<svg id="Livello_1" data-name="Livello 1" xmlns="http://www.w3.org/2000/svg" viewBox="0 0 85.04 85.04"><defs><style>.cls-1{fill:none;stroke:#005ca9;stroke-miterlimit:10;stroke-width:1.7px;}</style></defs><title>auto</title><g id="BOLLOWEB"><g id="_13" data-name="13"><path class="cls-1" d="M11,36.27a31.1,31.1,0,0,0-5,.73c-1.51,1.15-2.3,4.18-2.54,8.91-.73,3.27,2.24,4.91,8.91,5,0-.3-.06-.61-.06-.85A7.56,7.56,0,0,1,20,42.39a8.16,8.16,0,0,1,2.73.49,7.67,7.67,0,0,1,2.61,1.7A7.41,7.41,0,0,1,27.57,50a12,12,0,0,1-.12,1.46H57.58a9.59,9.59,0,0,1-.18-1.88,7.37,7.37,0,0,1,2.24-5.4A7,7,0,0,1,65,42a6.89,6.89,0,0,1,2.73.48,8,8,0,0,1,2.67,1.7,7.6,7.6,0,0,1,2.18,5.4,7.68,7.68,0,0,1-.18,1.69h6.48a1.63,1.63,0,0,0,1.88-1.21c.06-.18.06-.36.12-.54a3.6,3.6,0,0,0-.24-2,1.33,1.33,0,0,0-1-.85,6.19,6.19,0,0,0-.06-2.37,6,6,0,0,0-1.45-2.24,41.22,41.22,0,0,0-15-4.91,60.66,60.66,0,0,0-17.15-7.39c-.67-.19-1.33-.31-1.94-.43a41.39,41.39,0,0,0-5.27-.73c-.85,0-1.7-.06-2.55-.06a33.12,33.12,0,0,0-7.76,1c-2.55.61-5.15,1.34-7.76,2.18A56.43,56.43,0,0,0,11,36.27Zm10.79,1.15c-1.09-.66-1.33-1.33-.66-2,3-2.24,7.88-3.51,14.48-3.63L36,37.91Zm18.25.37-.55-5.94a24.5,24.5,0,0,1,3.16.42c.54.06,1.15.18,1.75.24,7.1,1.52,11.22,3.58,12.31,6.19Z"/><circle class="cls-1" cx="20.07" cy="50.4" r="5.15"/><circle class="cls-1" cx="20.07" cy="50.4" r="1.39"/><circle class="cls-1" cx="64.93" cy="50.4" r="5.15"/><circle class="cls-1" cx="64.93" cy="50.4" r="1.39"/></g></g></svg>