<svg id="Livello_1" data-name="Livello 1" xmlns="http://www.w3.org/2000/svg" viewBox="0 0 85.04 85.04"><defs><style>.cls-1{fill:#005ca9;stroke:#fff;stroke-miterlimit:10;stroke-width:0.57px;}</style></defs><title>ciclomotore</title><g id="BOLLOWEB"><g id="_15" data-name="15"><path class="cls-1" d="M71.55,45.55A11.43,11.43,0,1,0,83,57,11.44,11.44,0,0,0,71.55,45.55Zm0,20.15A8.73,8.73,0,1,1,80.27,57,8.74,8.74,0,0,1,71.55,65.7Z"/><path class="cls-1" d="M71.55,51a6,6,0,1,0,6,6A6,6,0,0,0,71.55,51Zm0,9.32a3.31,3.31,0,1,1,3.3-3.3A3.31,3.31,0,0,1,71.55,60.28Z"/><path class="cls-1" d="M19,44.84a1.36,1.36,0,0,0-1.36,1.35v4a1.36,1.36,0,0,0,2.71,0v-4A1.35,1.35,0,0,0,19,44.84Z"/><path class="cls-1" d="M24.36,44.84A1.36,1.36,0,0,0,23,46.19v4a1.36,1.36,0,0,0,2.71,0v-4A1.36,1.36,0,0,0,24.36,44.84Z"/><path class="cls-1" d="M29.78,44.84a1.35,1.35,0,0,0-1.35,1.35v4a1.35,1.35,0,0,0,2.7,0v-4A1.35,1.35,0,0,0,29.78,44.84Z"/><path class="cls-1" d="M71.55,42.84a1.36,1.36,0,0,0,1.08-.55,1.32,1.32,0,0,0,.21-1.2c-.78-2.61-2.41-7-3.82-10.72h3A1.35,1.35,0,0,0,73.32,29V19.69A1.35,1.35,0,0,0,72,18.33H69A6,6,0,0,0,63.14,23h-1.6V21.82a6.51,6.51,0,0,0-6.5-6.5H49.55a1.36,1.36,0,0,0,0,2.71H55a3.8,3.8,0,0,1,3.8,3.79V45.94a16.81,16.81,0,0,0-4.06,9.36H49.19l-8.67-8.67V36.85a6.51,6.51,0,0,0-6.5-6.5H15.53A6.51,6.51,0,0,0,9,36.85v7.68A16.81,16.81,0,0,0,3.52,57a1.36,1.36,0,0,0,1.36,1.35H9a11.43,11.43,0,0,0,22.29,2l4.32,4.33a1.36,1.36,0,0,0,1,.39H50.91A1.35,1.35,0,0,0,52,64.46l5.14-7a1.37,1.37,0,0,0,.23-.47h0A14.15,14.15,0,0,1,71.55,42.84Zm-1.84-2.61a16.79,16.79,0,0,0-8.17,3.2V25.7h1.6a6,6,0,0,0,2.62,3.71c1.27,3.31,2.93,7.73,4,10.82ZM69,21h1.62v6.62H69A3.31,3.31,0,0,1,69,21ZM11.74,36.85a3.8,3.8,0,0,1,3.79-3.8H34a3.8,3.8,0,0,1,3.79,3.8V38H11.74ZM20.37,65.7a8.74,8.74,0,0,1-8.62-7.37h2.76a6,6,0,0,0,11.72,0H29A8.74,8.74,0,0,1,20.37,65.7Zm-3-7.37h6a3.31,3.31,0,0,1-6,0Zm32.87,4H37.15L30.86,56a1.33,1.33,0,0,0-1-.4H6.3a14.13,14.13,0,0,1,5-9.45,1.31,1.31,0,0,0,.48-1V40.73H37.81v6.46a1.33,1.33,0,0,0,.4,1l9.46,9.46a1.37,1.37,0,0,0,1,.4h4.75Z"/></g></g></svg>