<svg xmlns="http://www.w3.org/2000/svg" width="22.027" height="22" viewBox="0 0 22.027 22"><defs><style>.a{fill:#0072e5;}</style></defs><path class="a" d="M20732.127,219.005H20732a11.012,11.012,0,1,1,1.01-.046,6.453,6.453,0,0,1-.754.046Zm-10.717-11a10.539,10.539,0,0,0,3.35,7.716c1.725-1.327,4.461-1.5,5.01-2.991a18.618,18.618,0,0,0,.041-1.934,3.783,3.783,0,0,1-1.055-2.245c-.262-.018-.678-.275-.8-1.292a.948.948,0,0,1,.357-.949c-.889-3.428-.4-6.424,3.639-6.5a2.311,2.311,0,0,1,2.088.807c2.953.412,2.064,4.4,1.643,5.691a.951.951,0,0,1,.344.949c-.121,1.017-.531,1.274-.789,1.292a3.774,3.774,0,0,1-1.035,2.245,18.656,18.656,0,0,0,.045,1.934c.547,1.49,3.262,1.663,4.984,2.991a10.58,10.58,0,1,0-17.824-7.715Z" transform="translate(-20720.984 -197.006)"/></svg>