<svg id="Livello_1" data-name="Livello 1" xmlns="http://www.w3.org/2000/svg" viewBox="0 0 85.04 85.04"><defs><style>.cls-1{fill:none;stroke:#005ca9;stroke-miterlimit:10;stroke-width:1.98px;}</style></defs><title>motociclo</title><g id="BOLLOWEB"><g id="_12" data-name="12"><path class="cls-1" d="M39.34,30.16a16.42,16.42,0,0,0-4.8,5.67c-5.19.47-8.64-.47-10.19-2.83C22.8,29.76,17.47,29,8.42,30.36c-1.49,1-1,2.3,1.35,3.78a170,170,0,0,0,22.88,9.79c-.94.41-3.24,13.57-2.56,14.38a4.14,4.14,0,0,0,1.82,1.42H52.43c1.42-8.3,5.06-14.18,10.8-17.62l1.42-.88a26.8,26.8,0,0,1,9.11-2.77,6.23,6.23,0,0,0-.67-4.05,7.43,7.43,0,0,0-2.37-6.75,72.54,72.54,0,0,1-5.94-6.81,3.55,3.55,0,0,0-2.16,2.76l1.08,2h-.6a1.18,1.18,0,0,0-.48-.27A5.05,5.05,0,0,0,61.27,25L58,25.91a.76.76,0,0,0-.54.13A1.4,1.4,0,0,0,57,27.93a1.55,1.55,0,0,0,.88.68,1.37,1.37,0,0,0,1-.2H59l1.62-.75a7.79,7.79,0,0,0,4.59,3.78.92.92,0,0,1,.4.14,37.92,37.92,0,0,0-11.4-.07,22,22,0,0,0-7.56-2.83A8.64,8.64,0,0,0,39.34,30.16Z"/><circle class="cls-1" cx="69.63" cy="54.84" r="11.04"/><circle class="cls-1" cx="69.63" cy="54.84" r="5.96"/><circle class="cls-1" cx="14.39" cy="54.84" r="11.04"/><circle class="cls-1" cx="14.39" cy="54.84" r="5.96"/></g></g></svg>