<svg id="Livello_1" data-name="Livello 1" xmlns="http://www.w3.org/2000/svg" viewBox="0 0 85.04 85.04"><defs><style>.cls-1{fill:#005ca9;}.cls-2{fill:#fff;}</style></defs><title>rimorchio</title><g id="BOLLOWEB"><g id="_16" data-name="16"><path class="cls-1" d="M36.76,56.69a5.56,5.56,0,1,0,5.56-5.55A5.56,5.56,0,0,0,36.76,56.69Z"/><path class="cls-2" d="M42.32,59.74a3.05,3.05,0,1,1,3-3.05,3.06,3.06,0,0,1-3,3.05Z"/><path class="cls-1" d="M52.38,56.69a5.56,5.56,0,1,0,5.56-5.55A5.56,5.56,0,0,0,52.38,56.69Z"/><path class="cls-2" d="M57.94,59.74A3.05,3.05,0,1,1,61,56.69a3.06,3.06,0,0,1-3.05,3.05Z"/><path class="cls-1" d="M83.41,49.1H16.83v7.59H35.62a6.7,6.7,0,0,1,13.39,0h2.23a6.7,6.7,0,0,1,13.39,0H83.41Z"/><polygon class="cls-1" points="1.4 47.95 11.51 47.95 11.77 45.21 1.4 45.21 1.4 47.95"/><polygon class="cls-1" points="11.07 47.95 16.84 56.69 16.84 49.1 14.27 45.21 11.77 45.21 11.07 47.95"/><path class="cls-1" d="M3.31,42.75a1.56,1.56,0,0,0-1.56,1.56v.9H4.88v-.9A1.56,1.56,0,0,0,3.31,42.75Z"/><path class="cls-1" d="M29.77,29.6v4.71a4.08,4.08,0,1,1-8.16,0v-.84h-2v.84c0,3.57,2.51,6.9,6.08,6.9,4.44,0,7.74-3.33,7.74-6.9v-6Z"/><path class="cls-1" d="M64.88,29.06c0,5.89-7.19,10.66-16,10.66S32.77,35,32.77,29.06,40,18.4,48.83,18.4,64.88,23.17,64.88,29.06Z"/><path class="cls-1" d="M48.46,29.6c0,4.79-4.18,8.68-9.34,8.68s-9.35-3.89-9.35-8.68,4.18-8.68,9.35-8.68S48.46,24.8,48.46,29.6Z"/><polygon class="cls-1" points="55.47 49.19 62.29 49.19 63.51 28.45 54.24 28.45 55.47 49.19"/><polygon class="cls-1" points="36.7 49.19 43.52 49.19 44.75 28.45 35.48 28.45 36.7 49.19"/><path class="cls-1" d="M44.09,25.17c0,3.74-2.08,6.77-4.65,6.77s-4.64-3-4.64-6.77,2.08-6.77,4.64-6.77S44.09,21.43,44.09,25.17Z"/><path class="cls-1" d="M67.82,39s-2.94-1-2.94-9.94l-1.72,4.81S64.71,39,67.82,39Z"/><path class="cls-1" d="M36.08,30.69c-.45-.4-2.77,1.37-5.8,1.29-3,.08-5.35-1.69-5.8-1.29s1.64,3.51,5.8,3.51S36.64,31,36.08,30.69Z"/><rect class="cls-1" x="21.51" y="45.02" width="57.24" height="1.98"/><rect class="cls-1" x="78.74" y="43.12" width="4.67" height="5.97"/><rect class="cls-1" x="16.83" y="43.12" width="4.67" height="5.97"/><path class="cls-1" d="M35,28.92a1.45,1.45,0,1,1-1.44-1.44A1.44,1.44,0,0,1,35,28.92Z"/></g></g></svg>