<svg xmlns="http://www.w3.org/2000/svg" width="14.008" height="17.181" viewBox="0 0 14.008 17.181"><defs><style>.a,.b,.e{fill:none;}.a,.b{stroke:#000000;}.a{stroke-linejoin:round;}.a,.e{stroke-width:2px;}.b{stroke-width:2.5px;}.c{fill:#000000;}.d{fill:#fff;}.e{stroke:#fff;stroke-linecap:round;}</style></defs><g transform="translate(-1281.997 -3101.756)"><g transform="translate(1283 3103.006)"><g transform="translate(0 0)"><path class="a" d="M-.031,9.623s-.055,3.014,0,5.656,2.987,4.375,5.965,4.375,5.813-1.873,5.948-4.487,0-5.543,0-5.543H-.031Z" transform="translate(0.056 -4.723)"/><path class="b" d="M-5828.431,3210.991s.01-4.208,3.487-4.208,3.49,4.208,3.49,4.208" transform="translate(5830.854 -3206.783)"/><path class="c" d="M1266.295,3118.3l-.286-4.116.286-3.32h11.388l.331,3.829-.331,3.011-.691,1.571-2.437,1.666-2.1.584-2.139-.195-2.061-.8-1.489-1.26Z" transform="translate(-1266.009 -3106.523)"/></g><g transform="translate(4.225 6.367)"><path class="d" d="M1.787,0A1.787,1.787,0,1,1,0,1.787,1.787,1.787,0,0,1,1.787,0Z"/><path class="e" d="M0,0V2.134" transform="translate(1.788 2.889)"/></g></g></g></svg>