<svg xmlns="http://www.w3.org/2000/svg" width="64" height="64" viewBox="0 0 64 64"><defs><style>.a{fill:#fff;stroke-width:2px;}.a,.b{stroke:#003575;}.b{fill:#73d7ff;stroke-width:1.5px;}.c{stroke:none;}.d{fill:none;}</style></defs><g transform="translate(-328 -851)"><g class="a" transform="translate(328 851)"><circle class="c" cx="32" cy="32" r="32"/><circle class="d" cx="32" cy="32" r="31"/></g><path class="b" d="M13.226,14.879a7.44,7.44,0,1,0-7.44-7.44A7.441,7.441,0,0,0,13.226,14.879Zm6.613,3.653H16.992a8.993,8.993,0,0,1-7.533,0H6.613A6.612,6.612,0,0,0,0,25.145v.827a2.48,2.48,0,0,0,2.48,2.48H23.972a2.48,2.48,0,0,0,2.48-2.48v-.827A6.612,6.612,0,0,0,19.839,18.532Z" transform="translate(346.7 868.5)"/></g></svg>