<svg xmlns="http://www.w3.org/2000/svg" width="64" height="64" viewBox="0 0 64 64"><defs><style>.a{fill:#fff;stroke:#003575;stroke-width:2px;}.b{fill:#73d7ff;}.c{fill:#003575;}.d{stroke:none;}.e{fill:none;}</style></defs><g transform="translate(-688 -851)"><g class="a" transform="translate(688 851)"><circle class="d" cx="32" cy="32" r="32"/><circle class="e" cx="32" cy="32" r="31"/></g><g transform="translate(705.752 868.754)"><path class="b" d="M83.307,274.47h9.714V261.92h3.634l-3.418-4.468v-8.059H89.711v3.85l-5.577-5.757h-2.08l-12.1,14.435H72.98l.54,12.55Z" transform="translate(-69.014 -246.843)"/><path class="c" d="M73.656,274.986a1.522,1.522,0,0,1-1.52-1.52v-10.91a.3.3,0,0,0-.3-.3H69.111a.61.61,0,0,1-.462-1.01L80.577,247.38a.558.558,0,0,1,.047-.049,3.111,3.111,0,0,1,4.252,0c.014.014.03.03.046.049L87.976,251a.3.3,0,0,0,.227.106.3.3,0,0,0,.3-.3v-.976a1.507,1.507,0,0,1,1.506-1.506h1.847a1.507,1.507,0,0,1,1.506,1.506v6.955a.294.294,0,0,0,.065.186l3.438,4.3a.611.611,0,0,1-.477.993H93.658a.3.3,0,0,0-.3.3v10.91a1.522,1.522,0,0,1-1.52,1.52Zm9.09-27.273a1.871,1.871,0,0,0-1.251.477.269.269,0,0,0-.027.027l-10.6,12.325a.3.3,0,0,0,.227.493h1.655a.611.611,0,0,1,.611.611v11.819a.3.3,0,0,0,.3.3H91.84a.3.3,0,0,0,.3-.3V261.646a.612.612,0,0,1,.611-.611h1.744a.3.3,0,0,0,.233-.485l-2.455-3.069a.617.617,0,0,1-.133-.381v-7.274a.3.3,0,0,0-.3-.3l-1.835.014a.3.3,0,0,0-.3.3l.014,3.445a.612.612,0,0,1-.4.573.612.612,0,0,1-.675-.179l-4.62-5.463a.27.27,0,0,0-.03-.031A1.885,1.885,0,0,0,82.746,247.713Z" transform="translate(-68.5 -246.493)"/></g></g></svg>