<?xml version="1.0" encoding="utf-8"?>
<!-- Generator: Adobe Illustrator 24.1.3, SVG Export Plug-In . SVG Version: 6.00 Build 0)  -->
<svg version="1.1" id="Livello_1" xmlns="http://www.w3.org/2000/svg" xmlns:xlink="http://www.w3.org/1999/xlink" x="0px" y="0px"
	 viewBox="0 0 199.4 68.5" style="enable-background:new 0 0 199.4 68.5;" xml:space="preserve">
<style type="text/css">
	.st0{fill:#FFFFFF;}
</style>
<g id="Banner_Piemontetu" transform="translate(-972 -2539.549)">
	<g id="Group_7140" transform="translate(972 2506.759)">
		<g id="Group_74" transform="translate(150.798 57.563)">
			<path id="Path_210" class="st0" d="M11.3,18c0,0.4-0.2,0.9-0.6,1.1c-0.5,0.3-1.1,0.4-1.7,0.3l-0.8-0.1c-3.4-0.2-5.1-2-5.1-5.4
				V7.4H1.7C1.2,7.4,0.8,7.3,0.4,7c-0.6-0.6-0.6-1.5,0-2.1l0,0c0.4-0.3,0.8-0.4,1.2-0.4h1.5V1.8c0-0.5,0.2-1,0.5-1.3
				C4.1,0.1,4.6,0,5.1,0s1,0.1,1.4,0.5C6.8,0.8,7,1.3,7,1.8v2.8h2.6c0.4,0,0.9,0.1,1.2,0.4c0.6,0.6,0.6,1.5,0,2.1
				C10.4,7.3,10,7.4,9.5,7.4H7v6.8c0,1.5,0.7,2.3,2,2.4l0.8,0.1C10.8,16.7,11.3,17.2,11.3,18z"/>
			<path id="Path_211" class="st0" d="M26.7,4.7C27,5.1,27.2,5.5,27.2,6v11.7c0,0.5-0.2,0.9-0.5,1.3c-0.4,0.3-0.9,0.5-1.4,0.5
				S24.4,19.4,24,19c-0.3-0.3-0.5-0.8-0.5-1.2V17c-0.4,0.8-1.1,1.4-1.9,1.9c-0.8,0.4-1.7,0.7-2.6,0.6c-3.6,0-5.4-2-5.4-6.1V6
				c0-0.5,0.2-1,0.5-1.3c0.4-0.3,0.9-0.5,1.4-0.5s1,0.1,1.4,0.5C17.2,5,17.4,5.5,17.4,6v7.4c-0.1,0.8,0.2,1.6,0.6,2.3
				c0.5,0.5,1.2,0.8,2,0.8c0.9,0,1.9-0.3,2.5-1c0.7-0.8,1-1.7,0.9-2.8V6c0-0.5,0.2-1,0.5-1.3c0.4-0.3,0.9-0.5,1.4-0.5
				C25.8,4.2,26.3,4.4,26.7,4.7z"/>
		</g>
		<g id="Group_76" transform="translate(0 56.049)">
			<g id="Group_75">
				<path id="Path_212" class="st0" d="M0.5,20.3C0.2,19.9,0,19.4,0,18.9V2.2c0-0.5,0.1-0.9,0.5-1.3c0.4-0.3,0.8-0.5,1.3-0.5h7
					c1.8-0.1,3.6,0.5,5,1.6c2.4,2.5,2.4,6.5,0,9.1c-1.4,1.2-3.2,1.7-5,1.6H3.7v6.1c0.1,1-0.6,1.8-1.6,1.9c-0.1,0-0.2,0-0.3,0
					C1.3,20.8,0.9,20.6,0.5,20.3z M8.3,9.9c2.5,0,3.8-1.1,3.8-3.3s-1.3-3.3-3.8-3.3H3.7v6.6H8.3z"/>
				<path id="Path_213" class="st0" d="M18.8,3.3c-0.4-0.4-0.6-0.9-0.6-1.4s0.2-1,0.6-1.4c0.9-0.7,2.2-0.7,3.1,0
					c0.4,0.3,0.6,0.8,0.6,1.4c0,0.5-0.2,1-0.6,1.4C20.9,4,19.7,4,18.8,3.3L18.8,3.3z M19,20.3c-0.3-0.3-0.5-0.8-0.5-1.3V8
					c0-0.5,0.2-0.9,0.5-1.3c0.4-0.3,0.8-0.4,1.3-0.4s0.9,0.1,1.3,0.4C22,7.1,22.1,7.5,22.1,8v11c0,0.5-0.2,0.9-0.5,1.3
					c-0.4,0.3-0.8,0.5-1.3,0.4C19.8,20.8,19.4,20.6,19,20.3L19,20.3z"/>
				<path id="Path_214" class="st0" d="M37.7,17.1c0.2,0.3,0.3,0.6,0.3,1c0,0.7-0.5,1.2-1.1,1.5c-0.7,0.4-1.4,0.7-2.2,0.9
					c-0.8,0.2-1.6,0.3-2.3,0.3c-2,0.1-3.9-0.6-5.3-1.9c-1.4-1.4-2.1-3.3-2-5.3c0-1.3,0.3-2.6,0.9-3.8c0.5-1.1,1.4-2,2.4-2.6
					c1.1-0.6,2.3-0.9,3.5-0.9c1.1,0,2.3,0.3,3.3,0.8c0.9,0.6,1.7,1.4,2.2,2.3c0.5,1.1,0.8,2.3,0.8,3.6c0,0.8-0.4,1.2-1.1,1.2h-8.4
					c0,1.1,0.4,2.1,1.1,2.9c0.8,0.7,1.7,1,2.7,0.9c0.5,0,1.1-0.1,1.6-0.2c0.5-0.2,1.1-0.4,1.6-0.6c0.4-0.2,0.8-0.4,1.3-0.5
					C37.3,16.8,37.5,16.9,37.7,17.1z M29.7,9.7c-0.6,0.7-1,1.7-1,2.6h6.5c0-1-0.3-1.9-0.9-2.6c-0.6-0.6-1.4-0.9-2.2-0.9
					C31.1,8.8,30.3,9.1,29.7,9.7L29.7,9.7z"/>
				<path id="Path_215" class="st0" d="M61.4,7.6c0.9,1.3,1.4,2.8,1.2,4.4v7c0,0.5-0.2,0.9-0.5,1.3c-0.4,0.3-0.8,0.5-1.3,0.4
					c-0.5,0-0.9-0.1-1.3-0.4C59.2,20,59,19.5,59,19.1v-7c0.1-0.8-0.1-1.6-0.6-2.2c-0.4-0.5-1.1-0.7-1.7-0.7c-0.8,0-1.7,0.3-2.2,1
					c-0.6,0.7-0.9,1.7-0.8,2.6v6.4c0,0.5-0.2,0.9-0.5,1.3c-0.4,0.3-0.8,0.5-1.3,0.4c-0.5,0-0.9-0.1-1.3-0.4
					c-0.4-0.3-0.5-0.8-0.5-1.3v-7c0.1-0.8-0.1-1.6-0.6-2.2c-0.4-0.5-1.1-0.7-1.7-0.7c-0.8,0-1.7,0.3-2.2,1C45,11,44.7,12,44.8,12.9
					v6.4c0,0.5-0.2,0.9-0.5,1.3c-0.4,0.3-0.8,0.5-1.3,0.4c-0.5,0-0.9-0.1-1.3-0.4c-0.3-0.3-0.5-0.8-0.5-1.3V8c0-0.5,0.2-0.9,0.5-1.2
					c0.4-0.3,0.8-0.4,1.3-0.4c0.4,0,0.9,0.1,1.2,0.4s0.5,0.7,0.5,1.2v0.7c0.4-0.7,1-1.3,1.8-1.7c0.8-0.4,1.6-0.6,2.5-0.6
					c1.8-0.2,3.5,0.9,4.2,2.6c0.4-0.8,1.1-1.5,1.9-1.9c0.8-0.5,1.8-0.7,2.8-0.7C59.2,6.2,60.5,6.7,61.4,7.6z"/>
				<path id="Path_216" class="st0" d="M69,19.9c-1.1-0.6-1.9-1.5-2.5-2.5c-1.2-2.4-1.2-5.3,0-7.7c0.5-1.1,1.4-2,2.5-2.5
					c2.4-1.2,5.1-1.2,7.5,0c1.1,0.6,1.9,1.5,2.5,2.5c0.6,1.2,0.9,2.5,0.9,3.8s-0.3,2.7-0.9,3.9c-0.6,1.1-1.4,2-2.5,2.5
					C74.1,21.1,71.3,21.1,69,19.9L69,19.9z M75.4,16.9c1.2-2.1,1.2-4.6,0-6.7C74.7,9.4,73.7,9,72.7,9c-1-0.1-2,0.4-2.6,1.2
					c-1.2,2.1-1.2,4.6,0,6.7c0.6,0.8,1.6,1.2,2.6,1.1C73.7,18.1,74.7,17.7,75.4,16.9L75.4,16.9z"/>
				<path id="Path_217" class="st0" d="M94.8,7.7C95.7,9,96.1,10.5,96,12v7c0,0.5-0.1,0.9-0.5,1.3c-0.4,0.3-0.8,0.5-1.3,0.5
					s-1-0.1-1.3-0.5c-0.3-0.3-0.5-0.8-0.5-1.3v-6.8c0.1-0.8-0.1-1.7-0.6-2.4c-0.5-0.5-1.2-0.8-1.9-0.7c-0.9,0-1.8,0.3-2.5,1
					c-0.6,0.7-1,1.6-0.9,2.6v6.4c0,0.5-0.2,0.9-0.5,1.3c-0.4,0.3-0.8,0.5-1.3,0.5s-0.9-0.1-1.3-0.5c-0.3-0.3-0.5-0.8-0.5-1.3V8
					c0-0.5,0.2-0.9,0.5-1.2c0.4-0.3,0.8-0.5,1.3-0.5c0.4,0,0.9,0.1,1.2,0.4c0.3,0.3,0.5,0.7,0.5,1.2v0.8c0.5-0.8,1.1-1.4,1.9-1.8
					s1.8-0.6,2.7-0.6C92.4,6.2,93.8,6.7,94.8,7.7z"/>
				<path id="Path_218" class="st0" d="M108.6,19.4c0,0.4-0.2,0.8-0.6,1c-0.5,0.3-1,0.4-1.6,0.3l-0.8-0.1c-3.2-0.2-4.8-1.9-4.8-5.1
					V9.3h-1.4c-0.4,0-0.8-0.1-1.2-0.3c-0.6-0.6-0.6-1.4,0-2l0,0c0.3-0.2,0.8-0.4,1.2-0.3h1.4V4c0-0.5,0.2-0.9,0.5-1.2
					c0.4-0.3,0.8-0.5,1.3-0.5s0.9,0.1,1.3,0.5c0.3,0.3,0.5,0.8,0.5,1.2v2.6h2.4c0.4,0,0.8,0.1,1.2,0.3c0.6,0.6,0.6,1.4,0,2l0,0
					c-0.3,0.2-0.8,0.4-1.2,0.3h-2.4v6.5c0,1.4,0.6,2.2,1.9,2.3l0.8,0.1C108.1,18.2,108.6,18.6,108.6,19.4z"/>
				<path id="Path_219" class="st0" d="M122.3,17.1c0.2,0.3,0.3,0.6,0.3,1c0,0.7-0.5,1.2-1.1,1.5c-0.7,0.4-1.4,0.7-2.2,0.9
					c-0.8,0.2-1.6,0.3-2.3,0.3c-2,0.1-3.9-0.6-5.3-1.9c-1.4-1.4-2.1-3.3-2-5.3c0-1.3,0.3-2.6,0.9-3.8c0.5-1.1,1.4-2,2.4-2.6
					c1.1-0.6,2.3-0.9,3.5-0.9c1.1,0,2.3,0.3,3.3,0.8c0.9,0.6,1.7,1.4,2.2,2.3c0.5,1.1,0.8,2.3,0.8,3.6c0,0.8-0.4,1.2-1.1,1.2h-8.4
					c0,1.1,0.4,2.1,1.1,2.9c0.8,0.7,1.7,1,2.7,0.9c0.5,0,1.1-0.1,1.6-0.2c0.5-0.2,1.1-0.4,1.6-0.6c0.4-0.2,0.8-0.4,1.3-0.5
					C121.8,16.8,122.1,16.9,122.3,17.1z M114.2,9.7c-0.6,0.7-1,1.7-1,2.6h6.5c0-1-0.3-1.9-0.9-2.6c-0.6-0.6-1.4-0.9-2.2-0.9
					C115.7,8.8,114.8,9.1,114.2,9.7z"/>
			</g>
		</g>
		<g id="Group_80" transform="translate(130.873 32.79)">
			<g id="Group_79">
				<g id="Group_78">
					<g id="Group_77">
						<path id="Path_220" class="st0" d="M68.5,34.3c0-3.3-0.1-6.8-3.4-6.8s-3,3.5-3,6.8c0.2,14.1-10.9,27.9-28.8,27.9
							c-11.9,0-26.4-10.2-27-27C5.9,21.3,16.9,6.3,34.3,6.4c3.3,0,5.9,0,5.9-3.3S37.5,0,34.3,0C15.3,0,0,15.3,0,34.3
							c0,18.9,15.3,34.3,34.3,34.3S68.5,53.2,68.5,34.3L68.5,34.3L68.5,34.3z"/>
					</g>
				</g>
			</g>
			<ellipse id="Ellipse_70" class="st0" cx="62.3" cy="18.4" rx="5.9" ry="5.9"/>
			<ellipse id="Ellipse_71" class="st0" cx="48.7" cy="18.4" rx="4.2" ry="4.2"/>
			<path id="Path_221" class="st0" d="M46.1,8.2c0,1.4,1.1,2.5,2.5,2.5s2.5-1.1,2.5-2.5S50,5.7,48.6,5.7C47.3,5.7,46.1,6.8,46.1,8.2
				L46.1,8.2z"/>
		</g>
	</g>
	<path id="Path_59761" class="st0" d="M979.2,2551.4c0,0.8-0.2,1.6-0.6,2.3c-0.3,0.6-0.9,1-1.6,1.2l1.7,1.8h-1.2l-1.4-1.6h-0.3
		c-0.9,0.1-1.8-0.3-2.4-1c-0.6-0.8-0.9-1.7-0.9-2.7c-0.1-1,0.2-1.9,0.9-2.7c0.6-0.7,1.5-1,2.4-1s1.8,0.3,2.4,1
		C978.9,2549.5,979.2,2550.4,979.2,2551.4z M973.5,2551.4c-0.1,0.8,0.2,1.6,0.6,2.2c0.4,0.5,1.1,0.8,1.8,0.7c0.7,0,1.3-0.2,1.8-0.7
		c0.4-0.6,0.7-1.4,0.6-2.2c0.1-0.8-0.2-1.5-0.6-2.2c-0.4-0.5-1.1-0.8-1.8-0.7c-0.7,0-1.3,0.2-1.8,0.8
		C973.7,2549.9,973.4,2550.6,973.5,2551.4L973.5,2551.4z M981.4,2549.6v3.5c0,0.4,0.1,0.7,0.3,1c0.3,0.2,0.6,0.4,0.9,0.3
		c0.5,0,0.9-0.1,1.2-0.5s0.4-1,0.4-1.5v-2.8h0.8v5.4h-0.7l-0.1-0.7l0,0c-0.2,0.3-0.4,0.5-0.7,0.6s-0.7,0.2-1,0.2
		c-0.5,0-1.1-0.1-1.5-0.5s-0.5-0.9-0.5-1.5v-3.5H981.4z M989,2555.1c-0.7,0-1.4-0.2-1.9-0.7c-0.5-0.6-0.7-1.3-0.7-2s0.2-1.5,0.6-2.1
		c0.4-0.5,1.1-0.8,1.7-0.8c0.6,0,1.2,0.2,1.6,0.7c0.4,0.5,0.6,1.1,0.6,1.7v0.5h-3.7c0,0.5,0.1,1,0.5,1.4c0.3,0.3,0.8,0.5,1.3,0.5
		c0.6,0,1.2-0.1,1.7-0.4v0.7c-0.3,0.1-0.5,0.2-0.8,0.3C989.7,2555.1,989.4,2555.1,989,2555.1z M988.8,2550.2c-0.4,0-0.8,0.1-1,0.4
		c-0.3,0.3-0.4,0.7-0.5,1.2h2.8c0-0.4-0.1-0.8-0.3-1.2C989.6,2550.4,989.2,2550.2,988.8,2550.2L988.8,2550.2z M995.8,2553.5
		c0,0.5-0.2,0.9-0.6,1.2c-0.5,0.3-1,0.4-1.6,0.4s-1.1-0.1-1.7-0.3v-0.8c0.3,0.1,0.5,0.2,0.8,0.3s0.6,0.1,0.9,0.1c0.3,0,0.7,0,1-0.2
		c0.2-0.1,0.4-0.4,0.3-0.6c0-0.2-0.1-0.4-0.3-0.5c-0.3-0.2-0.7-0.4-1.1-0.5c-0.4-0.1-0.7-0.3-1.1-0.5c-0.2-0.1-0.4-0.3-0.5-0.5
		s-0.2-0.4-0.2-0.6c0-0.4,0.2-0.8,0.5-1c0.4-0.3,0.9-0.4,1.5-0.4s1.2,0.1,1.7,0.4l-0.3,0.7c-0.5-0.2-1-0.3-1.5-0.3
		c-0.3,0-0.6,0-0.9,0.2c-0.2,0.1-0.3,0.3-0.3,0.5c0,0.1,0,0.3,0.1,0.4c0.1,0.1,0.2,0.2,0.4,0.3c0.3,0.2,0.6,0.3,0.9,0.4
		c0.5,0.1,0.9,0.4,1.3,0.7C995.7,2552.9,995.9,2553.2,995.8,2553.5z M998.9,2554.4c0.1,0,0.3,0,0.4,0c0.1,0,0.2,0,0.3-0.1v0.6
		c-0.1,0.1-0.3,0.1-0.4,0.1c-0.2,0-0.3,0-0.5,0c-1,0-1.6-0.5-1.6-1.6v-3.2h-0.8v-0.4l0.8-0.3l0.3-1.1h0.5v1.2h1.6v0.6H998v3.1
		c0,0.3,0.1,0.5,0.2,0.7C998.4,2554.3,998.7,2554.4,998.9,2554.4z M1005.3,2552.3c0,0.7-0.2,1.5-0.7,2s-1.1,0.8-1.8,0.7
		c-0.4,0-0.9-0.1-1.3-0.3c-0.4-0.2-0.7-0.6-0.9-1c-0.2-0.5-0.3-1-0.3-1.5c0-0.7,0.2-1.5,0.7-2s1.1-0.8,1.8-0.7
		c0.7,0,1.3,0.2,1.8,0.7C1005.1,2550.9,1005.4,2551.6,1005.3,2552.3L1005.3,2552.3z M1001.2,2552.3c0,0.6,0.1,1.1,0.4,1.6
		c0.3,0.4,0.7,0.6,1.2,0.5c0.5,0,0.9-0.2,1.2-0.5c0.3-0.5,0.5-1,0.4-1.6c0-0.5-0.1-1.1-0.4-1.6c-0.3-0.4-0.8-0.6-1.2-0.5
		c-0.5,0-0.9,0.2-1.2,0.5C1001.3,2551.2,1001.2,2551.8,1001.2,2552.3L1001.2,2552.3z M1012.8,2553.5c0,0.5-0.2,0.9-0.6,1.2
		c-0.5,0.3-1,0.4-1.6,0.4s-1.1-0.1-1.7-0.3v-0.8c0.3,0.1,0.5,0.2,0.8,0.3s0.6,0.1,0.9,0.1c0.3,0,0.7,0,1-0.2
		c0.2-0.1,0.4-0.4,0.3-0.6c0-0.2-0.1-0.4-0.3-0.5c-0.3-0.2-0.7-0.4-1.1-0.5c-0.4-0.1-0.7-0.3-1.1-0.5c-0.2-0.1-0.4-0.3-0.5-0.5
		s-0.2-0.4-0.2-0.6c0-0.4,0.2-0.8,0.5-1c0.4-0.3,0.9-0.4,1.5-0.4s1.2,0.1,1.7,0.4l-0.3,0.7c-0.5-0.2-1-0.3-1.5-0.3
		c-0.3,0-0.6,0-0.9,0.2c-0.2,0.1-0.3,0.3-0.3,0.5c0,0.1,0,0.3,0.1,0.4c0.1,0.1,0.2,0.2,0.4,0.3c0.3,0.2,0.6,0.3,0.9,0.4
		c0.5,0.1,0.9,0.4,1.3,0.7C1012.7,2552.9,1012.8,2553.2,1012.8,2553.5z M1016.4,2555.1c-0.7,0-1.4-0.2-1.9-0.7
		c-0.5-0.6-0.7-1.3-0.7-2s0.2-1.5,0.6-2.1c0.4-0.5,1.1-0.8,1.7-0.8c0.6,0,1.2,0.2,1.6,0.7c0.4,0.5,0.6,1.1,0.6,1.7v0.5h-3.7
		c0,0.5,0.1,1,0.5,1.4c0.3,0.3,0.8,0.5,1.3,0.5c0.6,0,1.2-0.1,1.7-0.4v0.7c-0.3,0.1-0.5,0.2-0.8,0.3
		C1017,2555.1,1016.7,2555.1,1016.4,2555.1z M1016.1,2550.2c-0.4,0-0.8,0.1-1,0.4c-0.3,0.3-0.4,0.7-0.5,1.2h2.8
		c0-0.4-0.1-0.8-0.3-1.2C1016.9,2550.4,1016.5,2550.2,1016.1,2550.2L1016.1,2550.2z M1022.2,2549.6c0.2,0,0.4,0,0.6,0.1l-0.1,0.8
		c-0.2,0-0.4-0.1-0.6-0.1c-0.4,0-0.8,0.2-1.1,0.5c-0.3,0.4-0.5,0.8-0.5,1.3v2.9h-0.8v-5.4h0.7l0.1,1l0,0c0.2-0.3,0.4-0.6,0.7-0.8
		C1021.5,2549.6,1021.8,2549.5,1022.2,2549.6L1022.2,2549.6z M1025,2555l-2-5.4h0.9l1.2,3.2c0.2,0.5,0.3,1,0.5,1.4l0,0
		c0.1-0.4,0.2-0.7,0.3-1.1c0.2-0.5,0.6-1.7,1.3-3.5h0.9l-2,5.3h-1.1V2555z M1029.6,2555h-0.8v-5.4h0.8V2555z M1028.7,2548.2
		c0-0.1,0-0.3,0.1-0.4c0.1-0.1,0.2-0.1,0.3-0.1c0.1,0,0.2,0,0.3,0.1c0.1,0.1,0.2,0.3,0.1,0.4c0,0.1,0,0.3-0.1,0.4
		c-0.1,0.1-0.2,0.1-0.3,0.1c-0.1,0-0.3,0-0.3-0.1C1028.8,2548.5,1028.7,2548.3,1028.7,2548.2z M1034.8,2555h-3.9v-0.6l2.9-4.2h-2.7
		v-0.6h3.6v0.6l-2.9,4.1h3V2555z M1036.8,2555h-0.8v-5.4h0.8V2555z M1035.9,2548.2c0-0.1,0-0.3,0.1-0.4c0.1-0.1,0.2-0.1,0.3-0.1
		c0.1,0,0.2,0,0.3,0.1c0.1,0.1,0.2,0.3,0.1,0.4c0,0.1,0,0.3-0.1,0.4c-0.1,0.1-0.2,0.1-0.3,0.1c-0.1,0-0.3,0-0.3-0.1
		C1036,2548.5,1035.9,2548.3,1035.9,2548.2z M1043.2,2552.3c0,0.7-0.2,1.5-0.7,2s-1.1,0.8-1.8,0.7c-0.4,0-0.9-0.1-1.3-0.3
		s-0.7-0.6-0.9-1c-0.2-0.5-0.3-1-0.3-1.5c0-0.7,0.2-1.5,0.7-2s1.1-0.8,1.8-0.7c0.7,0,1.3,0.2,1.8,0.7
		C1043,2550.9,1043.2,2551.6,1043.2,2552.3L1043.2,2552.3z M1039.1,2552.3c0,0.6,0.1,1.1,0.4,1.6c0.3,0.4,0.7,0.6,1.2,0.5
		c0.5,0,0.9-0.2,1.2-0.5c0.3-0.5,0.5-1,0.4-1.6c0-0.5-0.1-1.1-0.4-1.6c-0.3-0.4-0.8-0.6-1.2-0.5c-0.5,0-0.9,0.2-1.2,0.5
		C1039.2,2551.2,1039,2551.8,1039.1,2552.3L1039.1,2552.3z M1049.4,2555.1c-0.7,0-1.4-0.2-1.9-0.7c-0.5-0.6-0.7-1.3-0.7-2
		s0.2-1.5,0.6-2.1c0.4-0.5,1.1-0.8,1.7-0.8s1.2,0.2,1.6,0.7s0.6,1.1,0.6,1.7v0.5h-3.7c0,0.5,0.1,1,0.5,1.4c0.3,0.3,0.8,0.5,1.3,0.5
		c0.6,0,1.2-0.1,1.7-0.4v0.7c-0.3,0.1-0.5,0.2-0.8,0.3C1050.1,2555.1,1049.8,2555.1,1049.4,2555.1z M1049.2,2550.2
		c-0.4,0-0.8,0.1-1,0.4c-0.3,0.3-0.4,0.7-0.5,1.2h2.8c0-0.4-0.1-0.8-0.3-1.2C1050,2550.4,1049.6,2550.2,1049.2,2550.2L1049.2,2550.2
		z M1049.8,2548.9h-0.5c-0.3-0.2-0.5-0.5-0.8-0.7c-0.2-0.2-0.4-0.5-0.6-0.8v-0.1h1c0.1,0.3,0.3,0.5,0.4,0.8c0.1,0.2,0.3,0.5,0.5,0.7
		V2548.9z M1057.9,2555.1c-0.3,0-0.7-0.1-1-0.2c-0.3-0.1-0.5-0.3-0.7-0.6h-0.1c0,0.3,0.1,0.6,0.1,0.9v2.2h-0.8v-7.8h0.7l0.1,0.7l0,0
		c0.2-0.3,0.4-0.5,0.7-0.6c0.3-0.1,0.6-0.2,1-0.2c0.6,0,1.2,0.2,1.6,0.7c0.4,0.6,0.6,1.3,0.6,2s-0.2,1.5-0.6,2
		C1059.1,2554.9,1058.5,2555.1,1057.9,2555.1z M1057.8,2550.2c-0.4,0-0.9,0.1-1.2,0.5c-0.3,0.4-0.4,0.9-0.4,1.4v0.2
		c0,0.6,0.1,1.1,0.4,1.6c0.3,0.3,0.7,0.5,1.2,0.5c0.4,0,0.8-0.2,1.1-0.6c0.3-0.5,0.4-1,0.4-1.5s-0.1-1.1-0.4-1.5
		S1058.2,2550.2,1057.8,2550.2L1057.8,2550.2z M1064.8,2555l-0.2-0.8l0,0c-0.2,0.3-0.5,0.5-0.8,0.7c-0.3,0.1-0.7,0.2-1,0.2
		c-0.5,0-0.9-0.1-1.2-0.4c-0.3-0.3-0.5-0.7-0.5-1.2c0-1.1,0.9-1.6,2.6-1.7h0.9v-0.3c0-0.3-0.1-0.7-0.3-0.9c-0.2-0.2-0.5-0.3-0.9-0.3
		c-0.5,0-1,0.2-1.5,0.4l-0.2-0.6c0.3-0.1,0.6-0.3,0.9-0.3c0.3-0.1,0.6-0.1,0.9-0.1c0.5,0,1,0.1,1.4,0.4c0.3,0.4,0.5,0.9,0.5,1.4v3.7
		h-0.6V2555z M1063,2554.4c0.4,0,0.9-0.1,1.2-0.4c0.3-0.3,0.5-0.7,0.4-1.2v-0.5h-0.8c-0.5,0-1,0.1-1.4,0.3c-0.3,0.2-0.4,0.5-0.4,0.8
		s0.1,0.5,0.3,0.7C1062.4,2554.4,1062.7,2554.4,1063,2554.4z M1069.5,2549.6c0.2,0,0.4,0,0.6,0.1l-0.1,0.8c-0.2,0-0.4-0.1-0.6-0.1
		c-0.4,0-0.8,0.2-1.1,0.5c-0.3,0.4-0.5,0.8-0.5,1.3v2.9h-0.8v-5.4h0.7l0.1,1l0,0c0.2-0.3,0.4-0.6,0.7-0.8
		C1068.9,2549.6,1069.2,2549.5,1069.5,2549.6z M1072.9,2554.4c0.1,0,0.3,0,0.4,0s0.2,0,0.3-0.1v0.6c-0.1,0.1-0.3,0.1-0.4,0.1
		c-0.2,0-0.3,0-0.5,0c-1,0-1.6-0.5-1.6-1.6v-3.2h-0.8v-0.4l0.8-0.3l0.3-1.1h0.5v1.2h1.6v0.6h-1.6v3.1c0,0.3,0.1,0.5,0.2,0.7
		C1072.4,2554.3,1072.6,2554.4,1072.9,2554.4z M1077,2555.1c-0.7,0-1.4-0.2-1.9-0.7c-0.5-0.6-0.7-1.3-0.7-2s0.2-1.5,0.6-2.1
		c0.4-0.5,1.1-0.8,1.7-0.8s1.2,0.2,1.6,0.7s0.6,1.1,0.6,1.7v0.5h-3.7c0,0.5,0.1,1,0.5,1.4c0.3,0.3,0.8,0.5,1.3,0.5
		c0.6,0,1.2-0.1,1.7-0.4v0.7c-0.3,0.1-0.5,0.2-0.8,0.3C1077.6,2555.1,1077.3,2555.1,1077,2555.1z M1076.7,2550.2
		c-0.4,0-0.8,0.1-1,0.4c-0.3,0.3-0.4,0.7-0.5,1.2h2.8c0-0.4-0.1-0.8-0.3-1.2C1077.5,2550.4,1077.1,2550.2,1076.7,2550.2
		L1076.7,2550.2z M1086.5,2554.3L1086.5,2554.3c-0.4,0.5-1.1,0.9-1.7,0.8c-0.6,0-1.2-0.2-1.6-0.7c-0.4-0.6-0.6-1.3-0.6-2
		s0.2-1.5,0.6-2.1c0.4-0.5,1-0.8,1.6-0.7c0.7,0,1.3,0.3,1.7,0.8h0.1v-0.4v-0.4v-2.2h0.8v7.6h-0.7L1086.5,2554.3z M1084.9,2554.4
		c0.4,0,0.9-0.1,1.2-0.5c0.3-0.4,0.4-0.9,0.4-1.5v-0.2c0-0.6-0.1-1.1-0.4-1.6c-0.3-0.3-0.8-0.5-1.2-0.5c-0.4,0-0.9,0.2-1.1,0.6
		c-0.3,0.5-0.4,1-0.4,1.6c0,0.5,0.1,1.1,0.4,1.5C1084.1,2554.2,1084.5,2554.4,1084.9,2554.4L1084.9,2554.4z M1089.8,2555h-0.8v-5.4
		h0.8V2555z M1089,2548.2c0-0.1,0-0.3,0.1-0.4c0.1-0.1,0.2-0.1,0.3-0.1c0.1,0,0.2,0,0.3,0.1c0.1,0.1,0.2,0.3,0.1,0.4
		c0,0.1,0,0.3-0.1,0.4c-0.1,0.1-0.2,0.1-0.3,0.1c-0.1,0-0.3,0-0.3-0.1C1089,2548.5,1088.9,2548.3,1089,2548.2z"/>
</g>
</svg>
