<svg xmlns="http://www.w3.org/2000/svg" width="26" height="26" viewBox="0 0 26 26"><defs><style>.a{fill:#73d7ff;}.b{fill:#fff;}.c{fill:#003575;}</style></defs><g transform="translate(-333.721 -192.288)"><circle class="a" cx="12.334" cy="12.334" r="12.334" transform="translate(334.282 192.909)"/><g transform="translate(333.721 192.288)"><path class="b" d="M356.16,227.338a1.427,1.427,0,1,1-1.427-1.428A1.427,1.427,0,0,1,356.16,227.338Z" transform="translate(-341.733 -206.043)"/><path class="b" d="M350.315,212.239H353.6v-1.78l2.954-3.472V202.2l-2.142-2.9h-5.207l-2.7,2.178v3.435h3.028v-1.181l1.145-1.115h2.37l.695,1.815v1.588l-2.9,2.659Z" transform="translate(-338.953 -195.159)"/><path class="c" d="M356.849,203.7a5.464,5.464,0,0,0-1.372-4.12,6.042,6.042,0,0,0-4.5-1.673h-.145a6.038,6.038,0,0,0-4.5,1.673,5.435,5.435,0,0,0-1.373,4.119v.571a.558.558,0,0,0,.558.557h3.318a.557.557,0,0,0,.557-.557v-.7c0-.816.456-1.23,1.354-1.23h.317c.9,0,1.354.417,1.354,1.237l.008.7c0,.365-.362.789-.964,1.445A7.207,7.207,0,0,0,349.1,210.9v.83a.558.558,0,0,0,.557.557h3.318a.558.558,0,0,0,.557-.557v-.83a3.242,3.242,0,0,1,1.343-2.468,5.34,5.34,0,0,0,1.982-4.175l-.007-.549Zm-2.757,3.944a4.269,4.269,0,0,0-1.676,3.263.272.272,0,0,1-.272.272h-1.659a.272.272,0,0,1-.272-.272,6.1,6.1,0,0,1,2.068-4.435,3.469,3.469,0,0,0,1.257-2.208l-.008-.695a2.235,2.235,0,0,0-2.469-2.345h-.317a2.237,2.237,0,0,0-2.467,2.227.272.272,0,0,1-.272.262h-1.668a.272.272,0,0,1-.272-.269,4.229,4.229,0,0,1,1.07-3.093,4.965,4.965,0,0,1,3.695-1.33h.145a4.964,4.964,0,0,1,3.695,1.33,4.336,4.336,0,0,1,1.064,3.326c0,.011,0,.021,0,.029l.008.564A4.226,4.226,0,0,1,354.092,207.64Z" transform="translate(-338.315 -194.585)"/><path class="c" d="M354.186,224.575a2.216,2.216,0,1,0,2.216,2.216A2.219,2.219,0,0,0,354.186,224.575Zm0,3.318a1.1,1.1,0,1,1,1.1-1.1A1.1,1.1,0,0,1,354.186,227.893Z" transform="translate(-341.187 -205.497)"/><path class="c" d="M346.721,192.288a13,13,0,1,0,13,13A13.014,13.014,0,0,0,346.721,192.288Zm0,24.885a11.885,11.885,0,1,1,11.885-11.885A11.9,11.9,0,0,1,346.721,217.173Z" transform="translate(-333.721 -192.288)"/></g></g></svg>