<svg xmlns="http://www.w3.org/2000/svg" width="19.263" height="22.081" viewBox="0 0 19.263 22.081"><defs><style>.a{fill:#73d7ff;}.b{fill:#fff;}.c{fill:#003575;}</style></defs><g transform="translate(-4.681 -2.507)"><g transform="translate(5.287 3.045)"><g transform="translate(0)"><rect class="a" width="18.05" height="21.057"/></g></g><g transform="translate(8.179 5.868)"><rect class="b" width="12.274" height="4.036"/></g><g transform="translate(4.681 2.507)"><path class="c" d="M5.858,24.588a1.179,1.179,0,0,1-1.177-1.177V3.684A1.179,1.179,0,0,1,5.858,2.507H22.766a1.179,1.179,0,0,1,1.177,1.177V23.411a1.179,1.179,0,0,1-1.177,1.177Zm0-21.135a.231.231,0,0,0-.231.231V23.411a.231.231,0,0,0,.231.231H22.764A.231.231,0,0,0,23,23.411L23,3.684a.231.231,0,0,0-.231-.231Z" transform="translate(-4.681 -2.507)"/><g transform="translate(2.818 2.818)"><path class="c" d="M10.431,12.253a1.179,1.179,0,0,1-1.177-1.177V8.258A1.179,1.179,0,0,1,10.431,7.08H21.7a1.179,1.179,0,0,1,1.177,1.178v2.818A1.179,1.179,0,0,1,21.7,12.253Zm0-4.227a.231.231,0,0,0-.231.232v2.818a.231.231,0,0,0,.231.231H21.7a.232.232,0,0,0,.232-.231l0-2.818a.231.231,0,0,0-.231-.232Z" transform="translate(-9.254 -7.08)"/></g><g transform="translate(4.932 12.68)"><rect class="c" width="0.947" height="0.947"/></g><g transform="translate(7.749 12.68)"><rect class="c" width="0.947" height="0.947"/></g><g transform="translate(10.567 12.68)"><rect class="c" width="0.947" height="0.947"/></g><g transform="translate(4.932 9.862)"><g transform="translate(0 0)"><rect class="c" width="0.947" height="0.947"/></g></g><g transform="translate(7.749 9.862)"><g transform="translate(0 0)"><rect class="c" width="0.947" height="0.947"/></g></g><g transform="translate(10.567 9.862)"><g transform="translate(0 0)"><rect class="c" width="0.947" height="0.947"/></g></g><g transform="translate(13.385 9.862)"><g transform="translate(0 0)"><rect class="c" width="0.947" height="0.947"/></g></g><g transform="translate(13.385 12.68)"><rect class="c" width="0.947" height="0.947"/></g><g transform="translate(13.385 15.498)"><rect class="c" width="0.947" height="3.764"/></g><g transform="translate(4.932 15.498)"><rect class="c" width="0.947" height="0.947"/></g><g transform="translate(7.749 15.498)"><rect class="c" width="0.947" height="0.947"/></g><g transform="translate(10.567 15.498)"><rect class="c" width="0.947" height="0.947"/></g><g transform="translate(4.932 18.316)"><rect class="c" width="0.947" height="0.947"/></g><g transform="translate(7.749 18.316)"><rect class="c" width="0.947" height="0.947"/></g><g transform="translate(10.567 18.316)"><rect class="c" width="0.947" height="0.947"/></g><g transform="translate(9.158 4.931)"><path class="c" d="M20.017,11.456a.473.473,0,0,1,0-.946H23.54a.473.473,0,1,1,0,.946Z" transform="translate(-19.544 -10.51)"/></g></g></g></svg>