<svg xmlns="http://www.w3.org/2000/svg" width="25.498" height="25.498" viewBox="0 0 25.498 25.498"><defs><style>.a{fill:#73d7ff;}.b{fill:#fff;}.c{fill:#003575;}</style></defs><g transform="translate(-2.084 -2.002)"><g transform="translate(2.084 2.002)"><g transform="translate(0.5 13.55)"><rect class="a" width="3.332" height="11.155"/></g><g transform="translate(4.122 15.941)"><path class="b" d="M7.974,30.661l8.794,2.624h2.1l9.815-3.875-.362-1.449-.652-.58-7.208,1.3-.8-1.921-4.576-.833-2.522-1.739H9.6L7.822,25.353Z" transform="translate(-7.822 -24.194)"/></g><g transform="translate(10.68 1.1)"><g transform="translate(0)"><ellipse class="a" cx="6.862" cy="6.768" rx="6.862" ry="6.768"/></g></g><g transform="translate(0 13.016)"><path class="c" d="M27.287,26.783A1.887,1.887,0,0,0,25.4,25.56a4.166,4.166,0,0,0-1.024.143c-.473.121-.96.258-1.432.39l-.015,0a27.753,27.753,0,0,1-3.309.783.253.253,0,0,1-.04,0,.266.266,0,0,1-.263-.226L19.31,26.6c-.005-.034-.01-.069-.018-.1-.236-1.029-1.229-2.13-3.306-2.13a6.666,6.666,0,0,0-.851.057,6.271,6.271,0,0,1-.777.054,2.2,2.2,0,0,1-1.994-.955,2.59,2.59,0,0,0-.847-.747,3.426,3.426,0,0,0-1.485-.3,8.5,8.5,0,0,0-3.117.717.262.262,0,0,1-.1.021.266.266,0,0,1-.267-.266V20.67A.547.547,0,0,0,6,20.123H2.63a.547.547,0,0,0-.546.547V32.059a.547.547,0,0,0,.546.546H6a.547.547,0,0,0,.546-.546V30.473a.269.269,0,0,1,.11-.216.274.274,0,0,1,.157-.051.267.267,0,0,1,.082.013c2.223.718,7.589,2.386,9.4,2.386,1.937,0,8.864-2.515,10.848-3.785C27.339,28.694,27.934,28.314,27.287,26.783ZM5.451,31.245a.268.268,0,0,1-.267.267H3.444a.268.268,0,0,1-.267-.267V21.483a.267.267,0,0,1,.267-.266h1.74a.267.267,0,0,1,.267.266Zm20.887-3.214C24.159,29.3,17.777,31.512,16.3,31.512c-1.87,0-8.785-2.241-9.568-2.5a.268.268,0,0,1-.185-.254V24.748a.267.267,0,0,1,.139-.234,7.672,7.672,0,0,1,3.352-.945,2.365,2.365,0,0,1,1.011.19,1.745,1.745,0,0,1,.475.455l.009.01a3.229,3.229,0,0,0,2.849,1.343,7.126,7.126,0,0,0,.895-.061,5.734,5.734,0,0,1,.724-.05,2.448,2.448,0,0,1,1.931.695,1.349,1.349,0,0,1,.325.738.268.268,0,0,1-.172.275l-.331.127a6.872,6.872,0,0,1-1.96.56.812.812,0,0,1-.2-.022c-.414-.1-1.623-.412-3.6-.921h0l-1.253-.323H10.73l-.055-.014v.006a.544.544,0,0,0-.27,1.046v.006l1.305.337.01,0h0c1.327.342,3.091.8,3.611.925a1.876,1.876,0,0,0,.447.05,7.315,7.315,0,0,0,2.369-.63l.025-.009c.2-.077.384-.149.543-.2h0a.525.525,0,0,1,.05-.024.267.267,0,0,1,.082-.019,22.077,22.077,0,0,0,4.382-.905c.528-.149.968-.272,1.422-.388a3.107,3.107,0,0,1,.753-.113.821.821,0,0,1,.878.56,3.4,3.4,0,0,1,.183.532A.267.267,0,0,1,26.338,28.031Z" transform="translate(-2.084 -20.123)"/></g><g transform="translate(9.761)"><path class="c" d="M23.451,17.738a7.9,7.9,0,0,1-7.763-6.123.547.547,0,1,1,1.066-.245,6.856,6.856,0,1,0,6.7-8.275,6.92,6.92,0,0,0-2.29.386.529.529,0,0,1-.181.032h0a.548.548,0,0,1-.18-1.065A8.013,8.013,0,0,1,23.451,2,7.923,7.923,0,0,1,31.41,9.87,7.923,7.923,0,0,1,23.451,17.738Z" transform="translate(-15.674 -2.002)"/></g></g><path class="c" d="M22.379,10.031A3.678,3.678,0,0,1,25.8,7.413a3.408,3.408,0,0,1,2.328.94.531.531,0,1,1-.717.782A2.387,2.387,0,0,0,25.8,8.475a2.559,2.559,0,0,0-2.278,1.557,3.232,3.232,0,0,0-.009,2.706A2.563,2.563,0,0,0,25.8,14.314a2.388,2.388,0,0,0,1.611-.662.531.531,0,1,1,.717.783,3.412,3.412,0,0,1-2.328.94,3.68,3.68,0,0,1-3.423-2.638A5.124,5.124,0,0,1,22.379,10.031Z" transform="translate(-5.666 -1.524)"/><rect class="c" width="5.848" height="1.026" rx="0.513" transform="translate(15.639 10.331)"/><rect class="c" width="5.848" height="1.026" rx="0.513" transform="translate(15.639 8.695)"/></g></svg>