<svg xmlns="http://www.w3.org/2000/svg" width="27.176" height="27.24" viewBox="0 0 27.176 27.24"><defs><style>.a{fill:#73d7ff;}.b{fill:#003575;}</style></defs><g transform="translate(-2.2 -2.1)"><path class="a" d="M2.9,18.7l.153,13.124.839,1.068H28.08l.992-2.365L28.691,18.7Z" transform="translate(-0.166 -3.934)"/><g transform="translate(2.2 2.1)"><path class="b" d="M25.653,4.771H24.508V3.245H10.468V4.923H9.4V2.634A.573.573,0,0,1,9.934,2.1H25.119a.573.573,0,0,1,.534.534Z" transform="translate(-3.906 -2.1)"/><path class="a" d="M26.442,7.647H25.3v-1.6H9.045V7.723H7.9V5.434A.573.573,0,0,1,8.434,4.9h17.4a.573.573,0,0,1,.534.534V7.647Z" transform="translate(-3.551 -2.764)"/><path class="b" d="M28.906,18.868H2.734a.534.534,0,0,1,0-1.068h26.1a.573.573,0,0,1,.534.534A.464.464,0,0,1,28.906,18.868Z" transform="translate(-2.2 -5.82)"/><path class="b" d="M22.109,25.357h-7.63A1.694,1.694,0,0,1,12.8,23.679V22.534A.573.573,0,0,1,13.334,22h9.843a.573.573,0,0,1,.534.534v1.145A1.583,1.583,0,0,1,22.109,25.357Zm-8.164-2.213v.534a.573.573,0,0,0,.534.534h7.63a.573.573,0,0,0,.534-.534v-.534Z" transform="translate(-4.712 -6.816)"/><path class="b" d="M26.644,16.5a.573.573,0,0,1-.534-.534V8.945H7.568v7.02a.573.573,0,0,1-.534.534.573.573,0,0,1-.534-.534V8.334A.573.573,0,0,1,7.034,7.8h19.61a.573.573,0,0,1,.534.534v7.63A.522.522,0,0,1,26.644,16.5Z" transform="translate(-3.219 -3.451)"/><path class="b" d="M27.762,32.077H3.879A1.694,1.694,0,0,1,2.2,30.4V17.351a.583.583,0,0,1,.153-.382l3.2-3.2a.592.592,0,0,1,.763.076.681.681,0,0,1,0,.763L3.268,17.732v12.9a.573.573,0,0,0,.534.534H27.685a.573.573,0,0,0,.534-.534V17.656l-3.052-3.128a.592.592,0,0,1,.076-.763.681.681,0,0,1,.763,0l3.2,3.2a.806.806,0,0,1,.153.382V30.4A1.583,1.583,0,0,1,27.762,32.077Z" transform="translate(-2.2 -4.837)"/></g></g></svg>