<svg xmlns="http://www.w3.org/2000/svg" width="24.16" height="26.987" viewBox="0 0 24.16 26.987"><defs><style>.a{fill:#73d7ff;}.b{fill:#003575;}</style></defs><g transform="translate(-0.93)"><g transform="translate(0.93 0.295)"><path class="a" d="M2.9,18.7l.135,10.341.745.842H25.252l.881-1.864L25.794,18.7Z" transform="translate(-2.407 -3.544)"/><g transform="translate(0 -0.295)"><g transform="translate(0 0)"><g transform="translate(3.389)"><path class="b" d="M12.182,21.754a.492.492,0,0,1-.467-.528c0-.33.175-.528.467-.528H22.4a.492.492,0,0,1,.467.528c0,.33-.175.528-.467.528Z" transform="translate(-8.631 -17.781)"/><path class="b" d="M12.182,21.754a.492.492,0,0,1-.467-.528c0-.33.175-.528.467-.528H22.4a.492.492,0,0,1,.467.528c0,.33-.175.528-.467.528Z" transform="translate(-8.631 -15.051)"/><path class="b" d="M12.182,21.754a.492.492,0,0,1-.467-.528c0-.33.175-.528.467-.528H22.4a.492.492,0,0,1,.467.528c0,.33-.175.528-.467.528Z" transform="translate(-8.631 -12.343)"/><path class="b" d="M1.246,15.732c-.612,0-1.163-.357-1.163-.848V.743a1.138,1.138,0,0,1,1.163-.99H16.482a1.149,1.149,0,0,1,1.163.99V14.884c0,.446-.49.848-1.163.848Zm0-15.167C1.124.565,1,.654,1,.743V14.884c0,.089.122.178.245.178H16.482c.122,0,.245-.089.245-.178V.743a.138.138,0,0,0-.061-.134.282.282,0,0,0-.184-.045Z" transform="translate(-0.084 0.247)"/><path class="b" d="M14.24,54.057a.528.528,0,0,1,0-1.057H17.69a.528.528,0,0,1,0,1.057Z" transform="translate(-10.838 -41.899)"/></g><path class="b" d="M25.942,18.787H2.675a.494.494,0,0,1,0-.987h23.2a.52.52,0,0,1,.475.493A.423.423,0,0,1,25.942,18.787Z" transform="translate(-2.2 -2.808)"/><path class="b" d="M21.4,25.1H14.351A1.564,1.564,0,0,1,12.8,23.551V22.493A.53.53,0,0,1,13.293,22h9.092a.53.53,0,0,1,.493.493v1.057A1.462,1.462,0,0,1,21.4,25.1Zm-7.541-2.044v.493a.53.53,0,0,0,.493.493H21.4a.53.53,0,0,0,.493-.493v-.493Z" transform="translate(-5.798 -4.767)"/><path class="b" d="M24.925,30.671H3.692A1.536,1.536,0,0,1,2.2,29.12V17.068a.549.549,0,0,1,.136-.352l2.849-2.96a.511.511,0,0,1,.678.07.65.65,0,0,1,0,.7L3.15,17.421V29.332a.519.519,0,0,0,.475.493H24.857a.52.52,0,0,0,.475-.493V17.35l-2.713-2.89a.562.562,0,0,1,.068-.7.587.587,0,0,1,.678,0l2.849,2.96a.761.761,0,0,1,.136.352V29.12A1.439,1.439,0,0,1,24.925,30.671Z" transform="translate(-2.2 -3.684)"/></g></g></g></g></svg>