<svg xmlns="http://www.w3.org/2000/svg" width="26" height="26" viewBox="0 0 26 26"><defs><style>.a{fill:none;}.b{fill:#003575;}.c{fill:#73d7ff;}</style></defs><g transform="translate(-16 -420)"><rect class="a" width="26" height="26" transform="translate(16 420)"/><g transform="translate(14.202 418.4)"><path class="b" d="M16.189,5.778a2.089,2.089,0,1,1,2.089-2.089,1.966,1.966,0,0,1-2.089,2.089Z" transform="translate(-3.006 0)"/><path class="c" d="M21.883,23.484a.956.956,0,0,0-1.729.288,7.68,7.68,0,0,1-7.131,5.474A7.056,7.056,0,0,1,9.781,15.92a1.15,1.15,0,0,0,.576-1.008h0a1.069,1.069,0,0,0-1.584-.865A9.223,9.223,0,0,0,3.8,22.4a9.458,9.458,0,0,0,9,9,9.3,9.3,0,0,0,9.22-7.2,1.185,1.185,0,0,0-.144-.72Z" transform="translate(0 -3.809)"/><path class="b" d="M30.183,23.981c-1.3-2.233-2.593-4.391-3.818-6.623a1.54,1.54,0,0,0-1.224-.865h-5.9V14.4h4.322a1.014,1.014,0,0,0,.936-1.008,1.086,1.086,0,0,0-.868-1.081H19.018c0-.36-.074-.576-.074-.865a5.343,5.343,0,0,0-.36-1.8,2.233,2.233,0,0,0-2.59-1.077,2,2,0,0,0-1.3,2.307,18.982,18.982,0,0,0,.144,2.017c.074.72.074,1.513.144,2.233L15.2,18.15a2,2,0,0,0,.72,1.441,2.5,2.5,0,0,0,1.873.648h6.772a.544.544,0,0,1,.5.288c.216.432.5.865.72,1.3.288.5.576,1.008.865,1.584.432.72.865,1.513,1.3,2.233a1.436,1.436,0,0,0,1.945.576,1.836,1.836,0,0,0,.286-2.235Z" transform="translate(-3.372 -2.289)"/></g></g></svg>