<svg xmlns="http://www.w3.org/2000/svg" width="28.857" height="21.403" viewBox="0 0 28.857 21.403"><defs><style>.a{fill:#73d7ff;}.b{fill:#003575;}</style></defs><g transform="translate(-1.987 -6)"><path class="a" d="M3.3,12.833,4.773,27.8H28.5l2.016-15.2Z" transform="translate(-0.295 -1.482)"/><g transform="translate(1.987 6)"><path class="b" d="M29.382,10.808H28.219V9.722a.53.53,0,0,0-.543-.543H15.889a1.71,1.71,0,0,1-1.163-.465L13.175,7.163a.592.592,0,0,0-.388-.155H6.351c-.31,0-.465.233-.465.543V10.73H4.8v-3.1A1.574,1.574,0,0,1,6.351,6h6.514a1.71,1.71,0,0,1,1.163.465l1.551,1.551a.592.592,0,0,0,.388.155H27.831A1.638,1.638,0,0,1,29.46,9.8l-.078,1.008Z" transform="translate(-2.619 -6)"/><path class="b" d="M28.363,28.638H4.556a1.087,1.087,0,0,1-1.086-.931L2,12.663A1.041,1.041,0,0,1,2.928,11.5H29.759a1.06,1.06,0,0,1,1.086,1.086v.078L29.371,27.63A1.024,1.024,0,0,1,28.363,28.638ZM3.005,12.586,4.479,27.552H28.208l1.473-14.966Z" transform="translate(-1.987 -7.235)"/></g></g></svg>