<svg xmlns="http://www.w3.org/2000/svg" width="24.352" height="28.488" viewBox="0 0 24.352 28.488"><defs><style>.a,.c,.d,.f{fill:#003575;}.a{fill-rule:evenodd;}.b{fill:#73d7ff;}.e,.f{stroke:none;}</style></defs><g transform="translate(-1080.673 -3095.65)"><g transform="translate(1080.673 3095.65)"><path class="a" d="M12.082,28.136A11.848,11.848,0,0,1,6,21.7,12.172,12.172,0,1,1,22.308,28.2a.818.818,0,0,1-.678-1.488,10.48,10.48,0,1,0-8.655.054Z" transform="translate(-5.11 -5.01)"/><g transform="translate(1.06 0.872)"><g transform="translate(0)"><ellipse class="b" cx="11.135" cy="11.196" rx="11.135" ry="11.196"/></g></g><path class="c" d="M22.454,11.112a5.2,5.2,0,0,1,4.827-3.7A4.815,4.815,0,0,1,30.57,8.742a.75.75,0,1,1-1.013,1.105,3.373,3.373,0,0,0-2.276-.934,3.616,3.616,0,0,0-3.219,2.2,4.567,4.567,0,0,0-.012,3.823,3.622,3.622,0,0,0,3.232,2.228,3.374,3.374,0,0,0,2.276-.935.75.75,0,1,1,1.013,1.106,4.822,4.822,0,0,1-3.289,1.329,5.2,5.2,0,0,1-4.836-3.728A7.24,7.24,0,0,1,22.454,11.112Z" transform="translate(-14.357 -0.869)"/><rect class="c" width="8.263" height="1.449" rx="0.615" transform="translate(6.557 12.833)"/><rect class="c" width="8.263" height="1.449" rx="0.615" transform="translate(6.557 10.501)"/></g><g class="d" transform="matrix(-0.454, 0.891, -0.891, -0.454, 1095.241, 3117.508)"><path class="e" d="M 5.749533176422119 6.264366626739502 L 1.691272974014282 6.264366626739502 C 1.433833003044128 6.264366626739502 1.30452299118042 6.092666625976562 1.260872960090637 6.01884651184082 C 1.217222929000854 5.945026397705078 1.129102945327759 5.748976707458496 1.253162980079651 5.523406505584717 L 3.28229284286499 1.834076642990112 C 3.410882949829102 1.600276589393616 3.631512880325317 1.575036644935608 3.720402956008911 1.575036644935608 C 3.809293031692505 1.575036644935608 4.029922962188721 1.600276589393616 4.158513069152832 1.834076642990112 L 6.187643051147461 5.523406505584717 C 6.311702728271484 5.748976707458496 6.223582744598389 5.945026397705078 6.179933071136475 6.01884651184082 C 6.136282920837402 6.092666625976562 6.006972789764404 6.264366626739502 5.749533176422119 6.264366626739502 Z"/><path class="f" d="M 3.720402956008911 2.075036525726318 L 1.691272735595703 5.764366626739502 L 5.749532699584961 5.764366626739502 L 3.720412969589233 2.075046539306641 C 3.720411062240601 2.075043201446533 3.720409393310547 2.075039863586426 3.720407485961914 2.075036525726318 C 3.720406055450439 2.075036525726318 3.720404386520386 2.075036525726318 3.720402956008911 2.075036525726318 M 3.720402956008911 1.075038909912109 C 4.063530445098877 1.075038909912109 4.406658172607422 1.247731685638428 4.596622943878174 1.593116760253906 L 6.625752925872803 5.28244686126709 C 6.992302894592285 5.948906898498535 6.510132789611816 6.764366626739502 5.749532699584961 6.764366626739502 L 1.691272735595703 6.764366626739502 C 0.9306731224060059 6.764366626739502 0.4485030174255371 5.948906898498535 0.8150529861450195 5.28244686126709 L 2.844182968139648 1.593116760253906 C 3.0341477394104 1.247731685638428 3.377275466918945 1.075038909912109 3.720402956008911 1.075038909912109 Z"/></g></g></svg>