<svg xmlns="http://www.w3.org/2000/svg" width="28.857" height="29.552" viewBox="0 0 28.857 29.552"><defs><style>.a{fill:#73d7ff;}.b{fill:#003575;}</style></defs><g transform="translate(-2.475 -2.175)"><path class="a" d="M18.07,2.4,6.4,13.594V30.662H28.152V13.117Z" transform="translate(-0.809 -0.046)"/><g transform="translate(2.475 2.175)"><path class="b" d="M30.915,17.04c-.079,0-.318-.079-.4-.079L17.023,3.386,3.368,16.961a.447.447,0,0,1-.714,0,.447.447,0,0,1,0-.714L16.546,2.354a.447.447,0,0,1,.714,0h0L31.153,16.246a.447.447,0,0,1,0,.714C31.153,17.04,30.995,17.04,30.915,17.04Z" transform="translate(-2.475 -2.175)"/><path class="b" d="M28.708,34.556H6.876A.458.458,0,0,1,6.4,34.08h0v-17.7a.458.458,0,0,1,.476-.476.512.512,0,0,1,.476.476V33.444h20.8V16.376a.458.458,0,0,1,.476-.476.512.512,0,0,1,.476.476V34C29.263,34.318,29.025,34.556,28.708,34.556Z" transform="translate(-3.284 -5.004)"/><path class="b" d="M22.333,36.6H16.776a.458.458,0,0,1-.476-.476h0V26.276a.458.458,0,0,1,.476-.476h5.557a.458.458,0,0,1,.476.476v9.765c0,.318-.159.556-.476.556Zm-5.081-1.032h4.525V26.753H17.253Z" transform="translate(-5.325 -7.045)"/></g></g></svg>