<svg xmlns="http://www.w3.org/2000/svg" width="30" height="30" viewBox="0 0 30 30"><defs><style>.a{fill:#73d7ff;}.b,.e{fill:#003575;}.c{fill:#f8fcff;stroke-linecap:round;stroke-miterlimit:10;}.d,.e{stroke:none;}</style></defs><g transform="translate(-3.4 -4.262)"><g transform="translate(3.4 4.262)"><circle class="a" cx="14.232" cy="14.232" r="14.232" transform="translate(0.647 0.716)"/><path class="b" d="M18.4,4.262a15,15,0,1,0,15,15A15,15,0,0,0,18.4,4.262Zm0,28.714A13.714,13.714,0,1,1,32.114,19.262,13.714,13.714,0,0,1,18.4,32.976Z" transform="translate(-3.4 -4.262)"/></g><g transform="translate(16.62 8.802)"><g class="c" transform="translate(-18.03 -9.286)"><path class="d" d="M 21.78034019470215 30.00460243225098 L 21.28034019470215 30.00460243225098 L 18.34175109863281 30.00460243225098 L 17.84175109863281 30.00460243225098 L 17.84175109863281 29.50460243225098 L 17.84175109863281 16.87283134460449 L 17.84175109863281 16.37283134460449 L 18.34175109863281 16.37283134460449 L 21.28034019470215 16.37283134460449 L 21.78034019470215 16.37283134460449 L 21.78034019470215 16.87283134460449 L 21.78034019470215 29.50460243225098 L 21.78034019470215 30.00460243225098 Z M 19.8110408782959 13.34628200531006 C 19.18498039245605 13.34628200531006 18.64268112182617 13.12082195281982 18.19919013977051 12.67617225646973 C 17.75546073913574 12.23359203338623 17.53000068664551 11.69128227233887 17.53000068664551 11.0652322769165 C 17.53000068664551 10.4403715133667 17.75546073913574 9.898681640625 18.20011138916016 9.455191612243652 C 18.64268112182617 9.011462211608887 19.18498039245605 8.786002159118652 19.8110408782959 8.786002159118652 C 20.43589973449707 8.786002159118652 20.97760009765625 9.011462211608887 21.42109107971191 9.456111907958984 C 21.86482048034668 9.898681640625 22.09028053283691 10.4403715133667 22.09028053283691 11.0652322769165 C 22.09028053283691 11.69128227233887 21.86482048034668 12.23359203338623 21.42018127441406 12.67709159851074 C 20.97760009765625 13.12082195281982 20.43589973449707 13.34628200531006 19.8110408782959 13.34628200531006 Z"/><path class="e" d="M 19.8110408782959 9.286001205444336 C 19.31947135925293 9.286001205444336 18.90109062194824 9.46040153503418 18.55319976806641 9.809202194213867 C 18.20440101623535 10.15709114074707 18.03000068664551 10.57547187805176 18.03000068664551 11.06523132324219 C 18.03000068664551 11.55681228637695 18.20440101623535 11.97518157958984 18.55319976806641 12.32308197021484 C 18.90109062194824 12.67188262939453 19.31947135925293 12.84628105163574 19.8110408782959 12.84628105163574 C 20.30080986022949 12.84628105163574 20.71919059753418 12.67188262939453 21.06708145141602 12.32308197021484 C 21.41588020324707 11.97518157958984 21.59028053283691 11.55681228637695 21.59028053283691 11.06523132324219 C 21.59028053283691 10.57547187805176 21.41588020324707 10.15709114074707 21.06708145141602 9.809202194213867 C 20.71919059753418 9.46040153503418 20.30080986022949 9.286001205444336 19.8110408782959 9.286001205444336 M 18.34175109863281 16.87283134460449 L 18.34175109863281 29.50460052490234 L 21.28034019470215 29.50460052490234 L 21.28034019470215 16.87283134460449 L 18.34175109863281 16.87283134460449 M 19.8110408782959 8.286001205444336 C 20.56284141540527 8.286001205444336 21.24201011657715 8.568521499633789 21.77511024475098 9.103021621704102 C 22.30776023864746 9.634271621704102 22.59028053283691 10.31343269348145 22.59028053283691 11.06523132324219 C 22.59028053283691 11.81820106506348 22.30776023864746 12.49799156188965 21.77327156066895 13.03110122680664 C 21.24201011657715 13.56376266479492 20.56284141540527 13.84628105163574 19.8110408782959 13.84628105163574 C 19.05805969238281 13.84628105163574 18.37827110290527 13.56376266479492 17.84517097473145 13.02926254272461 C 17.31252098083496 12.49799156188965 17.03000068664551 11.81820106506348 17.03000068664551 11.06523132324219 C 17.03000068664551 10.31343269348145 17.31252098083496 9.634271621704102 17.84702110290527 9.101171493530273 C 18.37827110290527 8.568521499633789 19.05805969238281 8.286001205444336 19.8110408782959 8.286001205444336 Z M 17.34175109863281 15.87283134460449 L 18.34175109863281 15.87283134460449 L 21.28034019470215 15.87283134460449 L 22.28034019470215 15.87283134460449 L 22.28034019470215 16.87283134460449 L 22.28034019470215 29.50460052490234 L 22.28034019470215 30.50460052490234 L 21.28034019470215 30.50460052490234 L 18.34175109863281 30.50460052490234 L 17.34175109863281 30.50460052490234 L 17.34175109863281 29.50460052490234 L 17.34175109863281 16.87283134460449 L 17.34175109863281 15.87283134460449 Z"/></g></g></g></svg>