<svg xmlns="http://www.w3.org/2000/svg" width="14" height="14" viewBox="0 0 14 14"><defs><style>.a{fill:#006cb4;}</style></defs><g transform="translate(-9.5 -9.5)"><g transform="translate(9.5 9.5)"><path class="a" d="M22.256,21.633a.62.62,0,0,1-.622.622H11.367a.62.62,0,0,1-.622-.622V11.367a.62.62,0,0,1,.622-.622h4.044V9.5H11.367A1.859,1.859,0,0,0,9.5,11.367V21.633A1.859,1.859,0,0,0,11.367,23.5H21.633A1.859,1.859,0,0,0,23.5,21.633V17.589H22.256Z" transform="translate(-9.5 -9.5)"/><path class="a" d="M51.141,9.5v1.4h4.246L49.9,16.382l.989.989,5.487-5.487V16.13h1.4V9.5Z" transform="translate(-43.771 -9.5)"/></g></g></svg>