<svg xmlns="http://www.w3.org/2000/svg" width="25.679" height="24.512" viewBox="0 0 25.679 24.512"><defs><style>.a{fill:#fff;}.b{fill:#003575;}</style></defs><g transform="translate(-2.33 -3.419)"><g transform="translate(2.776 6.143)"><rect class="a" width="24.56" height="20.687"/></g><g transform="translate(2.33 3.419)"><g transform="translate(5.735 8.664)"><rect class="b" width="1.101" height="1.101"/></g><g transform="translate(9.012 8.664)"><rect class="b" width="1.101" height="1.101"/></g><g transform="translate(12.289 8.664)"><rect class="b" width="1.101" height="1.101"/></g><g transform="translate(15.566 8.664)"><rect class="b" width="1.101" height="1.101"/></g><g transform="translate(18.844 8.664)"><rect class="b" width="1.101" height="1.101"/></g><g transform="translate(5.735 11.942)"><rect class="b" width="1.101" height="1.101"/></g><g transform="translate(9.012 11.942)"><rect class="b" width="1.101" height="1.101"/></g><g transform="translate(12.289 11.942)"><rect class="b" width="1.101" height="1.101"/></g><g transform="translate(15.566 11.942)"><rect class="b" width="1.101" height="1.101"/></g><g transform="translate(18.844 11.942)"><rect class="b" width="1.101" height="1.101"/></g><g transform="translate(5.735 15.219)"><rect class="b" width="1.101" height="1.101"/></g><g transform="translate(9.012 15.219)"><rect class="b" width="1.101" height="1.101"/></g><g transform="translate(12.289 15.219)"><rect class="b" width="1.101" height="1.101"/></g><g transform="translate(15.566 15.219)"><rect class="b" width="1.101" height="1.101"/></g><g transform="translate(18.844 15.219)"><rect class="b" width="1.101" height="1.101"/></g><g transform="translate(5.735 18.496)"><rect class="b" width="1.101" height="1.101"/></g><g transform="translate(9.012 18.496)"><rect class="b" width="1.101" height="1.101"/></g><g transform="translate(12.289 18.496)"><rect class="b" width="1.101" height="1.101"/></g><g transform="translate(15.566 18.496)"><rect class="b" width="1.101" height="1.101"/></g><path class="b" d="M2.881,27.931a.551.551,0,0,1-.551-.55V5.843a.551.551,0,0,1,.551-.55H6.158a.269.269,0,0,0,.269-.269V3.97a.55.55,0,1,1,1.1,0V5.025a.269.269,0,0,0,.269.269H9.435A.269.269,0,0,0,9.7,5.025V3.97a.55.55,0,1,1,1.1,0V5.025a.269.269,0,0,0,.269.269h1.639a.269.269,0,0,0,.269-.269V3.97a.55.55,0,1,1,1.1,0V5.025a.269.269,0,0,0,.269.269h1.638a.269.269,0,0,0,.269-.269V3.97a.55.55,0,1,1,1.1,0V5.025a.269.269,0,0,0,.269.269h1.638a.269.269,0,0,0,.269-.269V3.97a.55.55,0,1,1,1.1,0V5.025a.269.269,0,0,0,.269.269h1.639a.269.269,0,0,0,.269-.269V3.97a.55.55,0,1,1,1.1,0V5.025a.269.269,0,0,0,.269.269h3.277a.551.551,0,0,1,.55.55V27.38a.551.551,0,0,1-.55.55ZM3.7,6.394a.269.269,0,0,0-.269.269v19.9a.269.269,0,0,0,.269.269H26.64a.269.269,0,0,0,.269-.269V6.663a.269.269,0,0,0-.269-.269H24.182a.269.269,0,0,0-.269.269V7.718a.55.55,0,1,1-1.1,0V6.663a.269.269,0,0,0-.269-.269H20.9a.269.269,0,0,0-.269.269V7.718a.55.55,0,1,1-1.1,0V6.663a.269.269,0,0,0-.269-.269H17.628a.269.269,0,0,0-.269.269V7.718a.55.55,0,1,1-1.1,0V6.663a.269.269,0,0,0-.269-.269H14.35a.269.269,0,0,0-.269.269V7.718a.55.55,0,1,1-1.1,0V6.663a.269.269,0,0,0-.269-.269H11.073a.269.269,0,0,0-.269.269V7.718a.55.55,0,1,1-1.1,0V6.663a.269.269,0,0,0-.269-.269H7.8a.269.269,0,0,0-.269.269V7.718a.55.55,0,1,1-1.1,0V6.663a.269.269,0,0,0-.269-.269Z" transform="translate(-2.33 -3.419)"/></g></g></svg>