<svg xmlns="http://www.w3.org/2000/svg" width="30.219" height="30.219" viewBox="0 0 30.219 30.219"><defs><style>.a{fill:#73d7ff;}.b{fill:#fff;}.c{fill:#003575;}</style></defs><g transform="translate(-1.853 -2.979)"><g transform="translate(12.475 14.361)"><path class="a" d="M32.99,29.379H29.6l-.73,3.949L23.8,29.379H14.233V16.244H32.99Z" transform="translate(-14.233 -16.244)"/></g><g transform="translate(2.764 3.897)"><g transform="translate(0)"><path class="b" d="M2.914,17.184H6.3l.73,3.949L12.1,17.184l.526-2.671,9.046-.215V4.049H2.914Z" transform="translate(-2.914 -4.049)"/></g></g><g transform="translate(1.853 2.979)"><path class="c" d="M27.567,33.2a.652.652,0,0,1-.415-.151l-5.515-4.6a.32.32,0,0,0-.2-.074H12.142a.647.647,0,0,1-.647-.647V19.184a.315.315,0,0,0-.183-.287.307.307,0,0,0-.134-.03.316.316,0,0,0-.2.073l-4.2,3.5a.652.652,0,0,1-.414.15.626.626,0,0,1-.274-.062.647.647,0,0,1-.374-.586V18.088a.316.316,0,0,0-.317-.316H2.5a.649.649,0,0,1-.648-.648V3.627A.649.649,0,0,1,2.5,2.979H21.783a.648.648,0,0,1,.647.648v9.641a.317.317,0,0,0,.317.317h8.677a.649.649,0,0,1,.648.648v13.5a.648.648,0,0,1-.648.647H28.532a.317.317,0,0,0-.317.317V32.55a.65.65,0,0,1-.648.648ZM13.106,14.88a.316.316,0,0,0-.317.317V26.765a.316.316,0,0,0,.317.317h8.677a.651.651,0,0,1,.415.15l4.2,3.5a.312.312,0,0,0,.2.074.32.32,0,0,0,.134-.03.317.317,0,0,0,.183-.287V27.73a.648.648,0,0,1,.647-.648H30.46a.316.316,0,0,0,.317-.317V15.2a.316.316,0,0,0-.317-.317ZM3.465,4.275a.316.316,0,0,0-.317.317V16.16a.316.316,0,0,0,.317.317H6.358a.649.649,0,0,1,.648.648v2.762a.315.315,0,0,0,.182.287.308.308,0,0,0,.134.03.312.312,0,0,0,.2-.074l3.857-3.214a.316.316,0,0,0,.114-.243v-2.44a.648.648,0,0,1,.647-.648h8.677a.316.316,0,0,0,.317-.317V4.591a.316.316,0,0,0-.317-.317Z" transform="translate(-1.853 -2.979)"/><g transform="translate(19.283 17.354)"><rect class="c" width="1.295" height="1.295"/></g><g transform="translate(23.139 17.354)"><rect class="c" width="1.295" height="1.295"/></g><g transform="translate(15.426 17.354)"><rect class="c" width="1.295" height="1.295"/></g><g transform="translate(9.642 6.749)"><rect class="c" width="1.295" height="1.295"/></g><g transform="translate(13.498 6.749)"><rect class="c" width="1.295" height="1.295"/></g><g transform="translate(5.785 6.749)"><rect class="c" width="1.295" height="1.295"/></g></g></g></svg>