<svg xmlns="http://www.w3.org/2000/svg" width="28.857" height="22.406" viewBox="0 0 28.857 22.406"><defs><style>.a{fill:#73d7ff;}.b{fill:#003575;}</style></defs><g transform="translate(-1.8 -6.269)"><g transform="translate(1.8 6.269)"><rect class="a" width="1.088" height="5.596" transform="translate(21.801 10.033) rotate(-79.759)"/><rect class="a" width="1.088" height="6.218" transform="translate(21.52 7.71) rotate(-79.759)"/><rect class="a" width="1.088" height="13.29" transform="translate(6.608 5.056) rotate(-79.759)"/><path class="b" d="M22.628,30.487H3.432A1.7,1.7,0,0,1,1.8,28.855V16.032A1.7,1.7,0,0,1,3.432,14.4H22.706a1.7,1.7,0,0,1,1.632,1.632V28.855A1.829,1.829,0,0,1,22.628,30.487Zm-19.2-15a.584.584,0,0,0-.544.544V28.855a.531.531,0,0,0,.544.544H22.706a.531.531,0,0,0,.544-.544V16.032a.531.531,0,0,0-.544-.544Z" transform="translate(-1.8 -8.081)"/><path class="b" d="M28.341,25.489H28.03l-2.8-.544.233-1.088,2.876.544c.311,0,.544-.078.622-.466h0l2.254-12.59c0-.311-.078-.544-.466-.622h0L11.942,7.381a.465.465,0,0,0-.622.466h0l-.933,5.6L9.3,13.21l.933-5.6A1.531,1.531,0,0,1,12.02,6.293h0l18.963,3.42A1.531,1.531,0,0,1,32.3,11.5h0L29.973,24.09A1.55,1.55,0,0,1,28.341,25.489Z" transform="translate(-3.471 -6.269)"/><path class="a" d="M9.63,22.852h-2.1A1.592,1.592,0,0,1,5.9,21.22V20.132A1.7,1.7,0,0,1,7.532,18.5H9.708a1.7,1.7,0,0,1,1.632,1.632V21.22A1.705,1.705,0,0,1,9.63,22.852Z" transform="translate(-2.714 -8.995)"/><rect class="a" width="5.362" height="1.088" transform="translate(13.911 10.671)"/><rect class="a" width="2.642" height="1.088" transform="translate(11.735 17.044)"/><rect class="a" width="2.642" height="1.088" transform="translate(16.01 17.044)"/><rect class="a" width="2.642" height="1.088" transform="translate(7.461 17.044)"/><rect class="a" width="2.642" height="1.088" transform="translate(3.186 17.044)"/></g></g></svg>