<svg xmlns="http://www.w3.org/2000/svg" width="24.352" height="28.488" viewBox="0 0 24.352 28.488"><defs><style>.a,.c,.d,.f{fill:#003575;}.a{fill-rule:evenodd;}.b{fill:#73d7ff;}.e,.f{stroke:none;}</style></defs><g transform="translate(-1080.673 -3095.65)"><g transform="translate(1080.673 3095.65)"><path class="a" d="M12.082,28.136A11.848,11.848,0,0,1,6,21.7,12.172,12.172,0,1,1,22.308,28.2a.818.818,0,0,1-.678-1.488,10.48,10.48,0,1,0-8.655.054Z" transform="translate(-5.11 -5.01)"/><g transform="translate(1.06 0.872)"><g transform="translate(0)"><ellipse class="b" cx="11.135" cy="11.196" rx="11.135" ry="11.196"/></g></g><path class="c" d="M22.454,11.112a5.2,5.2,0,0,1,4.827-3.7A4.815,4.815,0,0,1,30.57,8.742a.75.75,0,1,1-1.013,1.105,3.373,3.373,0,0,0-2.276-.934,3.616,3.616,0,0,0-3.219,2.2,4.567,4.567,0,0,0-.012,3.823,3.622,3.622,0,0,0,3.232,2.228,3.374,3.374,0,0,0,2.276-.935.75.75,0,1,1,1.013,1.106,4.822,4.822,0,0,1-3.289,1.329,5.2,5.2,0,0,1-4.836-3.728A7.24,7.24,0,0,1,22.454,11.112Z" transform="translate(-14.357 -0.869)"/><rect class="c" width="8.263" height="1.449" rx="0.615" transform="translate(6.557 12.833)"/><rect class="c" width="8.263" height="1.449" rx="0.615" transform="translate(6.557 10.501)"/></g><g class="d" transform="matrix(-0.454, 0.891, -0.891, -0.454, 1095.241, 3117.508)"><path class="e" d="M 5.749532699584961 6.26436710357666 L 1.691272735595703 6.26436710357666 C 1.433832764625549 6.26436710357666 1.304522752761841 6.092667102813721 1.260872721672058 6.018846988677979 C 1.217222690582275 5.945026874542236 1.12910270690918 5.748977184295654 1.253162741661072 5.523406982421875 L 3.282292604446411 1.834077119827271 C 3.410882711410522 1.600277066230774 3.631512641906738 1.575037121772766 3.720402717590332 1.575037121772766 C 3.809292793273926 1.575037121772766 4.029922485351562 1.600277066230774 4.158512592315674 1.834077119827271 L 6.187642574310303 5.523406982421875 C 6.311702728271484 5.748977184295654 6.223582744598389 5.945026874542236 6.179932594299316 6.018846988677979 C 6.136282920837402 6.092667102813721 6.006972789764404 6.26436710357666 5.749532699584961 6.26436710357666 Z"/><path class="f" d="M 3.720402717590332 2.075037002563477 L 1.691272735595703 5.76436710357666 L 5.749532699584961 5.76436710357666 L 3.720412731170654 2.075047016143799 C 3.720410823822021 2.075043678283691 3.720409154891968 2.075040340423584 3.720407247543335 2.075037002563477 C 3.72040581703186 2.075037002563477 3.720404148101807 2.075037002563477 3.720402717590332 2.075037002563477 M 3.720402717590332 1.075039386749268 C 4.063529968261719 1.075039386749268 4.406657695770264 1.247732162475586 4.596622467041016 1.593117237091064 L 6.625752925872803 5.28244686126709 C 6.992302894592285 5.948897361755371 6.510132789611816 6.76436710357666 5.749532699584961 6.76436710357666 L 1.691272735595703 6.76436710357666 C 0.9306726455688477 6.76436710357666 0.4485025405883789 5.948906898498535 0.8150525093078613 5.28244686126709 L 2.84418249130249 1.593117237091064 C 3.0341477394104 1.247732162475586 3.377274990081787 1.075039386749268 3.720402717590332 1.075039386749268 Z"/></g></g></svg>