<svg xmlns="http://www.w3.org/2000/svg" width="19" height="21.781" viewBox="0 0 19 21.781"><defs><style>.a{fill:#fff;}.b{fill:#003575;}.c{fill:#73d7ff;}</style></defs><g transform="translate(-146.6 -174.165)"><g transform="translate(147.174 174.737)"><path class="a" d="M147.76,175.321v20.265l2.908-2.135,1.98,2.382,2.135-2.258,2.076,2.382,1.857-2.382,2.131,2.382,2.444-2.692,2.32,2.413V175.321Z" transform="translate(-147.76 -175.321)"/></g><g transform="translate(146.6 174.165)"><path class="b" d="M147.067,195.946a.461.461,0,0,1-.178-.036.465.465,0,0,1-.289-.431V174.632a.467.467,0,0,1,.467-.467h18.067a.467.467,0,0,1,.466.467v20.846a.466.466,0,0,1-.288.431.473.473,0,0,1-.178.036.462.462,0,0,1-.33-.137l-2.215-2.213a.228.228,0,0,0-.161-.067h-.016a.23.23,0,0,0-.166.091l-1.6,2.138a.467.467,0,0,1-.747,0l-1.53-2.038a.228.228,0,0,0-.365,0l-1.528,2.038a.467.467,0,0,1-.747,0l-1.53-2.039a.23.23,0,0,0-.183-.091.228.228,0,0,0-.182.092l-1.53,2.038a.467.467,0,0,1-.747,0l-1.6-2.138a.229.229,0,0,0-.166-.091h-.016a.228.228,0,0,0-.161.067l-2.215,2.213A.464.464,0,0,1,147.067,195.946Zm6.948-3.714a.472.472,0,0,1,.374.187l1.531,2.039a.229.229,0,0,0,.182.091h0a.229.229,0,0,0,.183-.092l1.528-2.038a.467.467,0,0,1,.746,0l1.53,2.038a.228.228,0,0,0,.183.091h0a.228.228,0,0,0,.183-.092l1.525-2.037a.469.469,0,0,1,.341-.186h.038a.467.467,0,0,1,.326.138l1.6,1.594a.228.228,0,0,0,.161.066.224.224,0,0,0,.087-.017.228.228,0,0,0,.141-.21V175.327a.228.228,0,0,0-.228-.228H147.762a.228.228,0,0,0-.228.228V193.8a.228.228,0,0,0,.141.21.225.225,0,0,0,.088.017.229.229,0,0,0,.161-.066l1.6-1.595a.459.459,0,0,1,.323-.137h.037a.469.469,0,0,1,.345.186l1.525,2.037a.229.229,0,0,0,.183.092h0a.227.227,0,0,0,.182-.091l1.528-2.037A.469.469,0,0,1,154.014,192.232Z" transform="translate(-146.6 -174.165)"/><g transform="translate(2.779 7.644)"><path class="c" d="M152.682,190.54a.467.467,0,1,1,0-.934h1.389a.467.467,0,1,1,0,.934Z" transform="translate(-152.215 -189.606)"/></g><g transform="translate(6.948 7.644)"><path class="c" d="M161.1,190.54a.467.467,0,1,1,0-.934h8.225a.467.467,0,0,1,0,.934Z" transform="translate(-160.637 -189.606)"/></g><g transform="translate(2.779 10.423)"><path class="c" d="M152.682,196.155a.467.467,0,0,1,0-.934h1.389a.467.467,0,1,1,0,.934Z" transform="translate(-152.215 -195.221)"/></g><g transform="translate(6.948 10.423)"><path class="c" d="M161.1,196.155a.467.467,0,0,1,0-.934h8.225a.467.467,0,0,1,0,.934Z" transform="translate(-160.637 -195.221)"/></g><g transform="translate(2.779 13.203)"><path class="c" d="M152.682,201.77a.467.467,0,1,1,0-.934h1.389a.467.467,0,1,1,0,.934Z" transform="translate(-152.215 -200.836)"/></g><g transform="translate(6.948 13.203)"><path class="c" d="M161.1,201.77a.467.467,0,1,1,0-.934h8.225a.467.467,0,0,1,0,.934Z" transform="translate(-160.637 -200.836)"/></g><g transform="translate(2.779 4.169)"><path class="b" d="M152.682,183.521a.467.467,0,0,1,0-.934h12.508a.467.467,0,0,1,0,.934Z" transform="translate(-152.215 -182.587)"/></g></g></g></svg>