<svg xmlns="http://www.w3.org/2000/svg" width="23.577" height="29.991" viewBox="0 0 23.577 29.991"><defs><style>.a{fill:#73d7ff;stroke-linejoin:round;}.a,.b,.d{stroke:#003575;}.b,.d{fill:none;stroke-width:2px;}.c{fill:#003575;}.d{stroke-linecap:round;}.e{fill:#fff;}</style></defs><g transform="translate(-502.494 -3201.751)"><g transform="translate(-0.406)"><path class="a" d="M-.01,8.623s-.1,7.453,0,12.639S5.605,29.848,11.2,29.848s10.93-3.675,11.184-8.807,0-12.417,0-12.417H-.01Z" transform="translate(503.462 3201.394)"/><path class="b" d="M-5828.431,3214.049s.02-7.266,6.653-7.266,6.653,7.266,6.653,7.266" transform="translate(6336.395 -4.031)"/></g><path class="c" d="M3.116,0A3.116,3.116,0,1,1,0,3.116,3.116,3.116,0,0,1,3.116,0Z" transform="translate(511 3215)"/><path class="d" d="M0,0V3.606" transform="translate(514.156 3219.98)"/><path class="e" d="M2.088,0A2.088,2.088,0,1,1,0,2.088,2.088,2.088,0,0,1,2.088,0Z" transform="translate(512 3216)"/></g></svg>