<svg xmlns="http://www.w3.org/2000/svg" width="25.219" height="25.22" viewBox="0 0 25.219 25.22"><defs><style>.a{fill:#73d7ff;}.b{fill:#fff;}.c{fill:#003575;}</style></defs><g transform="translate(-2.366 -2.232)"><g transform="translate(3.151 9.397)"><rect class="a" width="23.766" height="11.135"/></g><g transform="translate(7.006 15.881)"><rect class="b" width="15.977" height="10.747"/></g><g transform="translate(7.006 2.949)"><rect class="b" width="15.977" height="5.72"/></g><g transform="translate(2.366 2.232)"><path class="c" d="M7.734,27.452a1.346,1.346,0,0,1-1.345-1.346V21.279a.264.264,0,0,0-.264-.264H3.711a1.346,1.346,0,0,1-1.345-1.346V10.014A1.346,1.346,0,0,1,3.711,8.669H6.125A.264.264,0,0,0,6.389,8.4V3.578A1.347,1.347,0,0,1,7.734,2.232H22.217a1.348,1.348,0,0,1,1.346,1.346V8.4a.264.264,0,0,0,.264.264H26.24a1.346,1.346,0,0,1,1.345,1.346v9.655a1.346,1.346,0,0,1-1.345,1.346H23.826a.264.264,0,0,0-.264.264v4.827a1.347,1.347,0,0,1-1.346,1.346Zm0-11.265a.264.264,0,0,0-.264.264v9.655a.264.264,0,0,0,.264.265H22.215a.264.264,0,0,0,.264-.265l0-9.655a.265.265,0,0,0-.265-.265Zm14.483-1.081a1.347,1.347,0,0,1,1.346,1.345v3.218a.264.264,0,0,0,.264.265H26.24a.264.264,0,0,0,.264-.265V10.014a.264.264,0,0,0-.264-.265H3.711a.265.265,0,0,0-.264.265v9.655a.265.265,0,0,0,.264.265H6.125a.265.265,0,0,0,.264-.265V16.451a1.346,1.346,0,0,1,1.345-1.345ZM7.734,3.313a.264.264,0,0,0-.264.265V8.4a.264.264,0,0,0,.264.264H22.215a.264.264,0,0,0,.264-.264l0-4.827a.265.265,0,0,0-.265-.265Z" transform="translate(-2.366 -2.232)"/><g transform="translate(8.046 20.116)"><path class="c" d="M14.244,31.657a.54.54,0,1,1,0-1.081H22.29a.54.54,0,1,1,0,1.081Z" transform="translate(-13.703 -30.576)"/></g><g transform="translate(8.046 16.897)"><path class="c" d="M14.244,27.122a.54.54,0,1,1,0-1.081H22.29a.54.54,0,1,1,0,1.081Z" transform="translate(-13.703 -26.041)"/></g><g transform="translate(20.92 9.656)"><rect class="c" width="1.081" height="1.081"/></g><g transform="translate(17.701 9.656)"><rect class="c" width="1.081" height="1.081"/></g><g transform="translate(14.483 9.656)"><rect class="c" width="1.081" height="1.081"/></g></g></g></svg>