<svg xmlns="http://www.w3.org/2000/svg" width="25.888" height="25.888" viewBox="0 0 25.888 25.888"><defs><style>.a{fill:#fff;}.b{fill:#73d7ff;}.c{fill:#003575;}</style></defs><g transform="translate(-1080.672 -3095.64)"><g transform="translate(1080.672 3095.64)"><g transform="translate(0)"><path class="a" d="M24.451,1H12.785L11.5,1.607,11,3.387V25.94H30.855V8.048" transform="translate(-5.429 -0.538)"/><path class="a" d="M13,2.181,25.184,2l.332,3.249,6.416,3.617V26.017" transform="translate(-6.505 -1.077)"/><path class="b" d="M45.96,8.008,40,2V8.008Z" transform="translate(-20.995 -1.077)"/><path class="c" d="M2,24.751H25.627c.52,0,.884-.453.884-1.093V7.986a.273.273,0,0,0-.275-.27H21.821a2,2,0,0,1-2.014-1.763V1.386a.272.272,0,0,0-.245-.27H8.4a.919.919,0,0,0-.884.617.266.266,0,0,0,0,.035v5c0,.307-.275.37-.587.37s-.543-.064-.543-.37v-5A1.978,1.978,0,0,1,8.4,0H20.416a.553.553,0,0,1,.143,0h0a.547.547,0,0,1,.2.165l6.717,6.6a.546.546,0,0,1,.108.165h0a.544.544,0,0,1,.03.147.359.359,0,0,0,0,.059V23.6a2.034,2.034,0,0,1-.495,1.555,2.1,2.1,0,0,1-1.489.713L2,25.888ZM21.211,2.279a.273.273,0,0,0-.275.27v3.4a.259.259,0,0,0,0,.041.92.92,0,0,0,.884.588h3.227a.275.275,0,0,0,.259-.166.267.267,0,0,0-.062-.3L21.408,2.355A.277.277,0,0,0,21.211,2.279Z" transform="translate(-1.734)"/><path class="b" d="M9.085,51.489l.383-.129" transform="translate(-5.033 -27.639)"/><path class="b" d="M.485,34,.31,43.235" transform="translate(-0.31 -18.295)"/><path class="b" d="M0,0,14.168.557l.55,17.452H0Z" transform="translate(0.78 6.932)"/><path class="c" d="M9.521,28.923a.465.465,0,1,1,0-.923h7.72a.465.465,0,1,1,0,.923Z" transform="translate(-5.404 -17.317)"/><path class="c" d="M0,32.629S.042,22.46.042,22.366V15.528A1.453,1.453,0,0,1,1.406,14h12.93A1.453,1.453,0,0,1,15.7,15.528V32.84a.5.5,0,1,1-.988,0V15.528a.406.406,0,0,0-.376-.422H1.406a.406.406,0,0,0-.376.422V33.045" transform="translate(0.266 -7.53)"/><path class="c" d="M9.521,28.923a.465.465,0,1,1,0-.923h7.72a.465.465,0,1,1,0,.923Z" transform="translate(-5.404 -14.546)"/><path class="c" d="M9.521,28.923a.465.465,0,1,1,0-.923h7.72a.465.465,0,1,1,0,.923Z" transform="translate(-5.404 -9.004)"/><path class="c" d="M9.521,28.923a.465.465,0,1,1,0-.923h7.72a.465.465,0,1,1,0,.923Z" transform="translate(-5.404 -11.775)"/></g></g></g></svg>