<svg xmlns="http://www.w3.org/2000/svg" width="177.262" height="179.152" viewBox="0 0 177.262 179.152"><defs><style>.a{fill:#2297fc;opacity:0.625;}.b{fill:#1844a8;opacity:0.683;}.c{fill:#5cc5ff;opacity:0.5;}.d{fill:#fff;}.e{fill:#73d7ff;}.f{fill:#003575;}</style></defs><g transform="translate(-842 -2529)"><circle class="a" cx="54" cy="54" r="54" transform="translate(842 2600.152)"/><ellipse class="b" cx="22.466" cy="22.73" rx="22.466" ry="22.73" transform="translate(927.104 2642.349)"/><ellipse class="c" cx="71.261" cy="71.415" rx="71.261" ry="71.415" transform="translate(876.741 2529)"/><ellipse class="d" cx="60.789" cy="60.789" rx="60.789" ry="60.789" transform="translate(859.973 2546.672)"/><g transform="translate(558.279 2386.712)"><circle class="e" cx="26.567" cy="26.567" r="26.567" transform="translate(334.929 193.627)"/><g transform="translate(333.721 192.288)"><path class="d" d="M358.468,228.492a2.581,2.581,0,1,1-2.581-2.582A2.581,2.581,0,0,1,358.468,228.492Z" transform="translate(-327.652 -185.39)"/><path class="d" d="M353.562,223.276h6.092v-3.3l5.476-6.434v-8.87l-3.97-5.366h-9.651l-5,4.038v6.366h5.613v-2.188l2.122-2.066h4.393l1.288,3.364v2.943l-5.372,4.928Z" transform="translate(-328.51 -188.3)"/><path class="f" d="M367,208.639A10.127,10.127,0,0,0,364.461,201a11.2,11.2,0,0,0-8.342-3.1h-.269c-3.515,0-6.4,1.072-8.34,3.1a10.072,10.072,0,0,0-2.545,7.635V209.7A1.034,1.034,0,0,0,346,210.73h6.149a1.033,1.033,0,0,0,1.033-1.033v-1.3c0-1.512.844-2.28,2.51-2.28h.587c1.666,0,2.51.773,2.51,2.292l.014,1.293c0,.677-.671,1.462-1.787,2.679-1.848,2.012-4.376,4.766-4.376,9.615v1.538a1.035,1.035,0,0,0,1.033,1.033h6.149a1.035,1.035,0,0,0,1.033-1.033V222c0-2.125,1.1-3.206,2.489-4.575,1.633-1.606,3.666-3.6,3.674-7.738L367,208.668Zm-5.11,7.31c-1.527,1.5-3.106,3.058-3.106,6.048a.5.5,0,0,1-.5.5h-3.074a.5.5,0,0,1-.5-.5c0-4.042,2.034-6.258,3.833-8.219,1.255-1.368,2.339-2.55,2.331-4.092l-.014-1.288c0-2.68-1.753-4.346-4.576-4.346h-.587c-2.725,0-4.477,1.581-4.572,4.127a.5.5,0,0,1-.5.486h-3.092a.5.5,0,0,1-.5-.5A7.838,7.838,0,0,1,349,202.434a9.2,9.2,0,0,1,6.848-2.465h.269a9.2,9.2,0,0,1,6.848,2.465,8.037,8.037,0,0,1,1.971,6.164c0,.02,0,.039,0,.054l.014,1.045C364.945,212.953,363.463,214.409,361.894,215.949Z" transform="translate(-328.658 -188.433)"/><path class="f" d="M355.979,224.575a4.008,4.008,0,1,0,4.008,4.008A4.013,4.013,0,0,0,355.979,224.575Zm0,6a1.993,1.993,0,1,1,1.992-1.993A2,2,0,0,1,355.979,230.576Z" transform="translate(-327.744 -185.482)"/><path class="f" d="M361.722,192.288a28,28,0,1,0,28,28A28.032,28.032,0,0,0,361.722,192.288Zm0,53.6a25.6,25.6,0,1,1,25.6-25.6A25.628,25.628,0,0,1,361.722,245.888Z" transform="translate(-333.721 -192.288)"/></g></g></g></svg>