<svg xmlns="http://www.w3.org/2000/svg" width="177.262" height="179.152" viewBox="0 0 177.262 179.152"><defs><style>.a{fill:#2297fc;opacity:0.625;}.b{fill:#1844a8;opacity:0.683;}.c{fill:#5cc5ff;opacity:0.5;}.d{fill:#fff;}.e{fill:#73d7ff;}.f{fill:#003575;}</style></defs><g transform="translate(-1104.738 -2081)"><circle class="a" cx="54" cy="54" r="54" transform="translate(1104.738 2152.152)"/><ellipse class="b" cx="22.466" cy="22.73" rx="22.466" ry="22.73" transform="translate(1189.842 2194.349)"/><ellipse class="c" cx="71.261" cy="71.415" rx="71.261" ry="71.415" transform="translate(1139.479 2081)"/><ellipse class="d" cx="60.789" cy="60.789" rx="60.789" ry="60.789" transform="translate(1122.71 2098.672)"/><g transform="translate(1154.319 2128.371)"><g transform="translate(6.136 3.798)"><g transform="translate(0)"><rect class="e" width="43.332" height="50.549"/></g></g><g transform="translate(13.078 10.575)"><rect class="d" width="29.466" height="9.688"/></g><g transform="translate(4.681 2.507)"><path class="f" d="M7.508,55.515a2.829,2.829,0,0,1-2.827-2.827V5.334A2.829,2.829,0,0,1,7.508,2.507H48.1a2.829,2.829,0,0,1,2.827,2.827V52.688A2.829,2.829,0,0,1,48.1,55.515Zm0-50.736a.555.555,0,0,0-.555.555V52.688a.555.555,0,0,0,.555.555H48.092a.555.555,0,0,0,.555-.555l0-47.355a.556.556,0,0,0-.555-.555Z" transform="translate(-4.681 -2.507)"/><g transform="translate(6.764 6.764)"><path class="f" d="M12.081,19.5a2.829,2.829,0,0,1-2.827-2.827V9.908A2.831,2.831,0,0,1,12.081,7.08h27.06a2.831,2.831,0,0,1,2.827,2.828v6.764A2.829,2.829,0,0,1,39.141,19.5Zm0-10.147a.555.555,0,0,0-.555.556v6.764a.555.555,0,0,0,.555.555H39.135a.556.556,0,0,0,.556-.555l0-6.764a.556.556,0,0,0-.555-.556Z" transform="translate(-9.254 -7.08)"/></g><g transform="translate(11.839 30.441)"><rect class="f" width="2.272" height="2.272"/></g><g transform="translate(18.603 30.441)"><rect class="f" width="2.272" height="2.272"/></g><g transform="translate(25.368 30.441)"><rect class="f" width="2.272" height="2.272"/></g><g transform="translate(11.839 23.676)"><g transform="translate(0 0)"><rect class="f" width="2.272" height="2.272"/></g></g><g transform="translate(18.603 23.676)"><g transform="translate(0 0)"><rect class="f" width="2.272" height="2.272"/></g></g><g transform="translate(25.368 23.676)"><g transform="translate(0 0)"><rect class="f" width="2.272" height="2.272"/></g></g><g transform="translate(32.133 23.676)"><g transform="translate(0 0)"><rect class="f" width="2.272" height="2.272"/></g></g><g transform="translate(32.133 30.441)"><rect class="f" width="2.272" height="2.272"/></g><g transform="translate(32.133 37.206)"><rect class="f" width="2.272" height="9.037"/></g><g transform="translate(11.839 37.206)"><rect class="f" width="2.272" height="2.272"/></g><g transform="translate(18.603 37.206)"><rect class="f" width="2.272" height="2.272"/></g><g transform="translate(25.368 37.206)"><rect class="f" width="2.272" height="2.272"/></g><g transform="translate(11.839 43.971)"><rect class="f" width="2.272" height="2.272"/></g><g transform="translate(18.603 43.971)"><rect class="f" width="2.272" height="2.272"/></g><g transform="translate(25.368 43.971)"><rect class="f" width="2.272" height="2.272"/></g><g transform="translate(21.985 11.838)"><path class="f" d="M20.68,12.782a1.136,1.136,0,0,1,0-2.272h8.457a1.136,1.136,0,1,1,0,2.272Z" transform="translate(-19.544 -10.51)"/></g></g></g></g></svg>