<svg xmlns="http://www.w3.org/2000/svg" width="177.262" height="179.152" viewBox="0 0 177.262 179.152"><defs><style>.a{fill:#2297fc;opacity:0.625;}.b{fill:#1844a8;opacity:0.683;}.c{fill:#5cc5ff;opacity:0.5;}.d{fill:#fff;}.e{fill:#73d7ff;}.f{fill:#003575;}</style></defs><g transform="translate(-842 -2305)"><circle class="a" cx="54" cy="54" r="54" transform="translate(842 2376.152)"/><ellipse class="b" cx="22.466" cy="22.73" rx="22.466" ry="22.73" transform="translate(927.104 2418.349)"/><ellipse class="c" cx="71.261" cy="71.415" rx="71.261" ry="71.415" transform="translate(876.741 2305)"/><ellipse class="d" cx="60.789" cy="60.789" rx="60.789" ry="60.789" transform="translate(859.973 2322.672)"/><g transform="translate(888.916 2353.15)"><g transform="translate(2.084 2.002)"><g transform="translate(1.042 28.24)"><rect class="e" width="6.945" height="23.25"/></g><g transform="translate(8.59 33.222)"><path class="d" d="M8.139,37.673l18.328,5.469h4.378L51.3,35.064l-.755-3.019-1.359-1.208-15.022,2.72-1.661-4-9.538-1.736-5.257-3.623h-6.19l-3.7,2.416Z" transform="translate(-7.822 -24.194)"/></g><g transform="translate(22.259 2.292)"><g transform="translate(0)"><ellipse class="e" cx="14.302" cy="14.106" rx="14.302" ry="14.106"/></g></g><g transform="translate(0 27.128)"><path class="f" d="M54.612,34a3.933,3.933,0,0,0-3.931-2.549,8.682,8.682,0,0,0-2.133.3c-.987.253-2,.537-2.984.813l-.031.009a57.842,57.842,0,0,1-6.9,1.632.526.526,0,0,1-.084.006.555.555,0,0,1-.548-.47l-.018-.123c-.01-.072-.021-.144-.037-.217-.493-2.145-2.561-4.439-6.889-4.439a13.892,13.892,0,0,0-1.774.118,13.07,13.07,0,0,1-1.62.112A4.583,4.583,0,0,1,23.51,27.2a5.4,5.4,0,0,0-1.765-1.557,7.139,7.139,0,0,0-3.1-.617,17.719,17.719,0,0,0-6.5,1.494.546.546,0,0,1-.217.043.555.555,0,0,1-.557-.555v-4.75a1.139,1.139,0,0,0-1.138-1.139H3.222a1.139,1.139,0,0,0-1.138,1.139V45a1.139,1.139,0,0,0,1.138,1.138H10.24A1.139,1.139,0,0,0,11.378,45V41.694a.56.56,0,0,1,.229-.451.571.571,0,0,1,.328-.106.557.557,0,0,1,.171.027c4.633,1.5,15.816,4.973,19.6,4.973,4.036,0,18.473-5.241,22.608-7.889C54.72,37.987,55.959,37.194,54.612,34ZM9.1,43.3a.558.558,0,0,1-.557.557H4.918a.558.558,0,0,1-.557-.557V22.957a.556.556,0,0,1,.557-.555H8.544a.556.556,0,0,1,.557.555Zm43.532-6.7C48.091,39.249,34.79,43.86,31.7,43.86c-3.9,0-18.31-4.671-19.94-5.2a.558.558,0,0,1-.385-.53V29.762a.557.557,0,0,1,.29-.488,15.989,15.989,0,0,1,6.985-1.97,4.928,4.928,0,0,1,2.106.4,3.637,3.637,0,0,1,.99.949l.018.021a6.73,6.73,0,0,0,5.939,2.8,14.853,14.853,0,0,0,1.865-.127,11.95,11.95,0,0,1,1.509-.1,5.1,5.1,0,0,1,4.026,1.448,2.812,2.812,0,0,1,.677,1.537.559.559,0,0,1-.358.573c-.217.082-.449.171-.69.265a14.323,14.323,0,0,1-4.085,1.166,1.693,1.693,0,0,1-.415-.045c-.862-.214-3.383-.859-7.5-1.919l0,0-2.612-.674-.015,0-.115-.03,0,.012a1.133,1.133,0,0,0-.563,2.18l0,.013,2.72.7.021.006h0c2.767.713,6.442,1.66,7.526,1.928a3.91,3.91,0,0,0,.933.1,15.246,15.246,0,0,0,4.937-1.313l.052-.019c.412-.16.8-.311,1.132-.424h0a1.094,1.094,0,0,1,.1-.049.557.557,0,0,1,.171-.04,46.012,46.012,0,0,0,9.132-1.886c1.1-.31,2.017-.566,2.964-.808a6.475,6.475,0,0,1,1.57-.235,1.71,1.71,0,0,1,1.831,1.168A7.078,7.078,0,0,1,52.895,36,.556.556,0,0,1,52.633,36.605Z" transform="translate(-2.084 -20.123)"/></g><g transform="translate(20.344)"><path class="f" d="M31.883,34.8A16.471,16.471,0,0,1,15.7,22.037a1.14,1.14,0,0,1,.855-1.365,1.129,1.129,0,0,1,.262-.031,1.148,1.148,0,0,1,1.1.886A14.332,14.332,0,0,0,46.193,18.4,14.232,14.232,0,0,0,31.883,4.28a14.423,14.423,0,0,0-4.773.8,1.1,1.1,0,0,1-.377.067h0a1.142,1.142,0,0,1-.374-2.219A16.7,16.7,0,0,1,31.883,2,16.513,16.513,0,0,1,48.471,18.4,16.513,16.513,0,0,1,31.883,34.8Z" transform="translate(-15.674 -2.002)"/></g></g><path class="f" d="M22.575,12.87A7.665,7.665,0,0,1,29.7,7.413a7.1,7.1,0,0,1,4.852,1.96A1.106,1.106,0,1,1,33.053,11,4.976,4.976,0,0,0,29.7,9.626a5.334,5.334,0,0,0-4.749,3.244,6.736,6.736,0,0,0-.018,5.639A5.343,5.343,0,0,0,29.7,21.795a4.976,4.976,0,0,0,3.358-1.379,1.106,1.106,0,1,1,1.494,1.632,7.112,7.112,0,0,1-4.852,1.96,7.67,7.67,0,0,1-7.133-5.5A10.68,10.68,0,0,1,22.575,12.87Z" transform="translate(9.997 2.689)"/><rect class="f" width="12.189" height="2.138" rx="0.615" transform="translate(30.335 19.361)"/><rect class="f" width="12.189" height="2.138" rx="0.615" transform="translate(30.335 15.951)"/></g></g></svg>