<svg xmlns="http://www.w3.org/2000/svg" width="177.262" height="179.152" viewBox="0 0 177.262 179.152"><defs><style>.a{fill:#2297fc;opacity:0.625;}.b{fill:#1844a8;opacity:0.683;}.c{fill:#5cc5ff;opacity:0.5;}.d{fill:#fff;}.e{fill:none;}.f{fill:#73d7ff;}.g{fill:#003575;}</style></defs><g transform="translate(-1104.738 -2081)"><circle class="a" cx="54" cy="54" r="54" transform="translate(1104.738 2152.152)"/><ellipse class="b" cx="22.466" cy="22.73" rx="22.466" ry="22.73" transform="translate(1189.842 2194.349)"/><ellipse class="c" cx="71.261" cy="71.415" rx="71.261" ry="71.415" transform="translate(1139.479 2081)"/><ellipse class="d" cx="60.789" cy="60.789" rx="60.789" ry="60.789" transform="translate(1122.71 2098.672)"/><g transform="translate(1124 2094.114)"><rect class="e" width="67" height="67" transform="translate(24 31.887)"/><g transform="translate(32.361 37.574)"><path class="f" d="M2.9,18.7l.281,21.472,1.547,1.748H49.311l1.828-3.87-.7-19.349Z" transform="translate(-1.876 13.088)"/><g transform="translate(0 0)"><g transform="translate(0 0)"><g transform="translate(7.037)"><path class="g" d="M12.685,22.891a1.022,1.022,0,0,1-.971-1.1c0-.686.364-1.1.971-1.1H33.91a1.022,1.022,0,0,1,.971,1.1c0,.686-.364,1.1-.971,1.1Z" transform="translate(-5.311 -14.938)"/><path class="g" d="M12.685,22.891a1.022,1.022,0,0,1-.971-1.1c0-.686.364-1.1.971-1.1H33.91a1.022,1.022,0,0,1,.971,1.1c0,.686-.364,1.1-.971,1.1Z" transform="translate(-5.311 -9.268)"/><path class="g" d="M12.685,22.891a1.022,1.022,0,0,1-.971-1.1c0-.686.364-1.1.971-1.1H33.91a1.022,1.022,0,0,1,.971,1.1c0,.686-.364,1.1-.971,1.1Z" transform="translate(-5.311 -3.646)"/><path class="g" d="M2.5,32.93c-1.27,0-2.414-.741-2.414-1.76V1.808A2.363,2.363,0,0,1,2.5-.247H34.133a2.386,2.386,0,0,1,2.414,2.055V31.17c0,.926-1.016,1.76-2.414,1.76Zm0-31.492c-.254,0-.508.185-.508.37V31.17c0,.185.254.37.508.37H34.133c.254,0,.508-.185.508-.37V1.808a.287.287,0,0,0-.127-.278.586.586,0,0,0-.381-.093Z" transform="translate(-0.084 -0.049)"/><path class="g" d="M14.806,55.194a1.1,1.1,0,0,1,0-2.194h7.162a1.1,1.1,0,0,1,0,2.194Z" transform="translate(-7.742 -30.246)"/></g><path class="g" d="M51.5,19.849H3.186a1.025,1.025,0,0,1,0-2.049H51.357a1.081,1.081,0,0,1,.986,1.024A.878.878,0,0,1,51.5,19.849Z" transform="translate(-2.2 13.033)"/><path class="g" d="M30.653,28.439H16.019A3.248,3.248,0,0,1,12.8,25.219v-2.2A1.1,1.1,0,0,1,13.824,22H32.7a1.1,1.1,0,0,1,1.024,1.024v2.2A3.036,3.036,0,0,1,30.653,28.439ZM15,24.2v1.024a1.1,1.1,0,0,0,1.024,1.024H30.653a1.1,1.1,0,0,0,1.024-1.024V24.2Z" transform="translate(1.74 13.488)"/><path class="g" d="M49.384,48.991H5.3a3.189,3.189,0,0,1-3.1-3.219V20.747a1.141,1.141,0,0,1,.282-.732L8.4,13.87a1.062,1.062,0,0,1,1.408.146,1.349,1.349,0,0,1,0,1.463l-5.634,6V46.21a1.078,1.078,0,0,0,.986,1.024H49.244a1.081,1.081,0,0,0,.986-1.024V21.333l-5.634-6a1.168,1.168,0,0,1,.141-1.463,1.219,1.219,0,0,1,1.408,0l5.916,6.146a1.58,1.58,0,0,1,.282.732V45.771A2.987,2.987,0,0,1,49.384,48.991Z" transform="translate(-2.2 6.748)"/></g></g></g></g></g></svg>