<svg xmlns="http://www.w3.org/2000/svg" width="177.262" height="179.152" viewBox="0 0 177.262 179.152"><defs><style>.a{fill:#2297fc;opacity:0.625;}.b{fill:#1844a8;opacity:0.683;}.c{fill:#5cc5ff;opacity:0.5;}.d{fill:#fff;}.e{fill:#73d7ff;}.f{fill:#003575;}</style></defs><g transform="translate(-614 -2305)"><circle class="a" cx="54" cy="54" r="54" transform="translate(614 2376.152)"/><ellipse class="b" cx="22.466" cy="22.73" rx="22.466" ry="22.73" transform="translate(699.104 2418.349)"/><ellipse class="c" cx="71.261" cy="71.415" rx="71.261" ry="71.415" transform="translate(648.741 2305)"/><ellipse class="d" cx="60.789" cy="60.789" rx="60.789" ry="60.789" transform="translate(631.973 2322.672)"/><g transform="translate(660.75 2351.36)"><path class="e" d="M2.9,18.7l.32,27.552,1.762,2.243H55.761l2.082-4.966-.8-24.829Z" transform="translate(0.421 9.991)"/><g transform="translate(2.2 2.1)"><path class="f" d="M43.52,7.707h-2.4V4.5H11.643V8.027H9.4V3.221A1.2,1.2,0,0,1,10.521,2.1H42.4A1.2,1.2,0,0,1,43.52,3.221Z" transform="translate(2.133 -2.1)"/><path class="e" d="M46.825,10.667h-2.4V7.3H10.3v3.524H7.9V6.021A1.2,1.2,0,0,1,9.021,4.9H45.544a1.2,1.2,0,0,1,1.121,1.121v4.645Z" transform="translate(1.231 -0.415)"/><path class="f" d="M58.265,20.043H3.321a1.121,1.121,0,0,1,0-2.243H58.1a1.2,1.2,0,0,1,1.121,1.121A.973.973,0,0,1,58.265,20.043Z" transform="translate(-2.2 7.349)"/><path class="f" d="M32.343,29.048H16.324A3.555,3.555,0,0,1,12.8,25.524v-2.4A1.2,1.2,0,0,1,13.921,22H34.585a1.2,1.2,0,0,1,1.121,1.121v2.4A3.323,3.323,0,0,1,32.343,29.048ZM15.2,24.4v1.121a1.2,1.2,0,0,0,1.121,1.121H32.343a1.2,1.2,0,0,0,1.121-1.121V24.4Z" transform="translate(4.18 9.877)"/><path class="f" d="M48.789,26.061a1.2,1.2,0,0,1-1.121-1.121V10.2H8.743V24.94a1.2,1.2,0,0,1-1.121,1.121A1.2,1.2,0,0,1,6.5,24.94V8.921A1.2,1.2,0,0,1,7.621,7.8H48.789A1.2,1.2,0,0,1,49.91,8.921V24.94A1.1,1.1,0,0,1,48.789,26.061Z" transform="translate(0.388 1.331)"/><path class="f" d="M55.862,52.335H5.724A3.555,3.555,0,0,1,2.2,48.811V21.419a1.224,1.224,0,0,1,.32-.8L9.248,13.89a1.242,1.242,0,0,1,1.6.16,1.43,1.43,0,0,1,0,1.6L4.443,22.22V49.291a1.2,1.2,0,0,0,1.121,1.121H55.7a1.2,1.2,0,0,0,1.121-1.121V22.06l-6.407-6.568a1.242,1.242,0,0,1,.16-1.6,1.43,1.43,0,0,1,1.6,0l6.728,6.728a1.691,1.691,0,0,1,.32.8V48.811A3.323,3.323,0,0,1,55.862,52.335Z" transform="translate(-2.2 4.851)"/></g></g></g></svg>