<svg xmlns="http://www.w3.org/2000/svg" width="177.262" height="179.152" viewBox="0 0 177.262 179.152"><defs><style>.a{fill:#2297fc;opacity:0.625;}.b{fill:#1844a8;opacity:0.683;}.c{fill:#5cc5ff;opacity:0.5;}.d{fill:#fff;}.e{fill:#73d7ff;}.f{fill:#003575;}</style></defs><g transform="translate(-1104.738 -2305)"><circle class="a" cx="54" cy="54" r="54" transform="translate(1104.738 2376.152)"/><ellipse class="b" cx="22.466" cy="22.73" rx="22.466" ry="22.73" transform="translate(1189.842 2418.349)"/><ellipse class="c" cx="71.261" cy="71.415" rx="71.261" ry="71.415" transform="translate(1139.479 2305)"/><ellipse class="d" cx="60.789" cy="60.789" rx="60.789" ry="60.789" transform="translate(1122.71 2322.672)"/><g transform="translate(1151.013 2351.989)"><path class="e" d="M3.3,13.1,6.451,45.1H57.2l4.312-32.5Z" transform="translate(0.864 4.345)"/><g transform="translate(1.987 6)"><path class="f" d="M57.369,16.282H54.882V13.96A1.134,1.134,0,0,0,53.721,12.8H28.514a3.656,3.656,0,0,1-2.488-1L22.71,8.488a1.267,1.267,0,0,0-.829-.332H8.117c-.663,0-.995.5-.995,1.161v6.8H4.8V9.483A3.366,3.366,0,0,1,8.117,6h13.93a3.656,3.656,0,0,1,2.488.995l3.317,3.317a1.267,1.267,0,0,0,.829.332H54.052a3.5,3.5,0,0,1,3.483,3.482l-.166,2.156Z" transform="translate(-0.136 -6)"/><path class="f" d="M58.392,48.149H7.481a2.325,2.325,0,0,1-2.322-1.99L2.008,13.987A2.226,2.226,0,0,1,4,11.5H61.377A2.267,2.267,0,0,1,63.7,13.822v.166L60.548,45.993A2.191,2.191,0,0,1,58.392,48.149ZM4.164,13.822,7.315,45.828H58.06l3.151-32.006Z" transform="translate(-1.987 -2.379)"/></g></g></g></svg>