<svg xmlns="http://www.w3.org/2000/svg" width="177.262" height="179.152" viewBox="0 0 177.262 179.152"><defs><style>.a{fill:#2297fc;opacity:0.625;}.b{fill:#1844a8;opacity:0.683;}.c{fill:#5cc5ff;opacity:0.5;}.d{fill:#fff;}.e{fill:#73d7ff;}.f{fill:#003575;}</style></defs><g transform="translate(-386 -2081)"><circle class="a" cx="54" cy="54" r="54" transform="translate(386 2152.152)"/><ellipse class="b" cx="22.466" cy="22.73" rx="22.466" ry="22.73" transform="translate(471.105 2194.349)"/><ellipse class="c" cx="71.261" cy="71.415" rx="71.261" ry="71.415" transform="translate(420.741 2081)"/><ellipse class="d" cx="60.789" cy="60.789" rx="60.789" ry="60.789" transform="translate(403.973 2098.672)"/><g transform="translate(-643 -963.5)"><g transform="translate(1085.738 3095.132)"><path class="e" d="M3,2l28.477.625,11.306,14.38.475,37.5H3Z" transform="translate(-0.78 -0.515)"/><g transform="translate(0 0)"><path class="f" d="M2.97,55.274A2.919,2.919,0,0,1,.084,52.319V3A2.92,2.92,0,0,1,2.97.049h26.2c1.519,0-.562,2.913-.562,4.624l15.077,9.686,0,37.96A2.92,2.92,0,0,1,40.8,55.274Zm0-52.892A.661.661,0,0,0,2.362,3V52.319a.661.661,0,0,0,.608.622H40.8a.661.661,0,0,0,.608-.622l-.138-39.884c-6.981-5.34-12.5-9.819-9.564-9.819C26.665,2.519,18.769,2.382,2.97,2.382Z" transform="translate(-0.084 -0.049)"/></g></g><path class="f" d="M22.748,15.361A11.165,11.165,0,0,1,33.118,7.413a10.345,10.345,0,0,1,7.067,2.854,1.61,1.61,0,1,1-2.176,2.375,7.248,7.248,0,0,0-4.891-2.006A7.769,7.769,0,0,0,26.2,15.361a9.811,9.811,0,0,0-.026,8.214,7.782,7.782,0,0,0,6.943,4.786,7.249,7.249,0,0,0,4.891-2.008,1.611,1.611,0,1,1,2.176,2.377,10.359,10.359,0,0,1-7.067,2.854,11.172,11.172,0,0,1-10.39-8.009A15.555,15.555,0,0,1,22.748,15.361Z" transform="translate(1076.026 3106.139)"/><rect class="f" width="17.754" height="3.114" rx="0.615" transform="translate(1095.466 3127.063)"/><rect class="f" width="17.754" height="3.114" rx="0.615" transform="translate(1095.466 3122.053)"/><path class="d" d="M52.045,14.143,40,2V14.143Z" transform="translate(1075.426 3094.998)"/><path class="f" d="M39.757,15.593H30.832a4.046,4.046,0,0,1-4.07-3.563s.011-6.4,0-9.229S26.81-.044,26.879.01h1.115a1.117,1.117,0,0,1,.29,0h0a1.106,1.106,0,0,1,.4.333L42.257,13.681a1.1,1.1,0,0,1,.217.333h0c.034.1-.006,1.478,0,1.58C42.471,15.633,40.064,15.593,39.757,15.593ZM29.6,4.607a.551.551,0,0,0-.556.546V12.03a.525.525,0,0,0,0,.083A1.86,1.86,0,0,0,30.832,13.3h6.522a.556.556,0,0,0,.524-.336.54.54,0,0,0-.126-.6L30,4.761A.561.561,0,0,0,29.6,4.607Z" transform="translate(1086.779 3095.131)"/></g></g></svg>