<svg xmlns="http://www.w3.org/2000/svg" width="177.262" height="179.152" viewBox="0 0 177.262 179.152"><defs><style>.a{fill:#2297fc;opacity:0.625;}.b{fill:#1844a8;opacity:0.683;}.c{fill:#5cc5ff;opacity:0.5;}.d{fill:#fff;}.e{fill:#73d7ff;}.f,.i{fill:#003575;}.g{fill:#f8fcff;stroke-linecap:round;stroke-miterlimit:10;}.h,.i{stroke:none;}</style></defs><g transform="translate(-386 -2529)"><circle class="a" cx="54" cy="54" r="54" transform="translate(386 2600.152)"/><ellipse class="b" cx="22.466" cy="22.73" rx="22.466" ry="22.73" transform="translate(471.105 2642.349)"/><ellipse class="c" cx="71.261" cy="71.415" rx="71.261" ry="71.415" transform="translate(420.741 2529)"/><ellipse class="d" cx="60.789" cy="60.789" rx="60.789" ry="60.789" transform="translate(403.973 2546.672)"/><g transform="translate(435.339 2578.998)"><g transform="translate(3.4 4.262)"><circle class="e" cx="23.341" cy="23.341" r="23.341" transform="translate(1.061 1.175)"/><path class="f" d="M28,4.262a24.6,24.6,0,1,0,24.6,24.6A24.6,24.6,0,0,0,28,4.262Zm0,47.093a22.491,22.491,0,1,1,22.49-22.492A22.491,22.491,0,0,1,28,51.355Z" transform="translate(-3.4 -4.262)"/></g><g transform="translate(25.081 11.707)"><g class="g" transform="translate(-18.03 -9.286)"><path class="h" d="M 23.86065483093262 42.94517517089844 L 23.36065483093262 42.94517517089844 L 18.54128646850586 42.94517517089844 L 18.04128646850586 42.94517517089844 L 18.04128646850586 42.44517517089844 L 18.04128646850586 21.72864532470703 L 18.04128646850586 21.22864532470703 L 18.54128646850586 21.22864532470703 L 23.36065483093262 21.22864532470703 L 23.86065483093262 21.22864532470703 L 23.86065483093262 21.72864532470703 L 23.86065483093262 42.44517517089844 L 23.86065483093262 42.94517517089844 Z M 20.95096588134766 15.62497520446777 C 20.0123462677002 15.62497520446777 19.19917488098145 15.28685569763184 18.53405570983887 14.62001514434814 C 17.86811637878418 13.95581531524658 17.52999496459961 13.14264488220215 17.52999496459961 12.20400524139404 C 17.52999496459961 11.26733493804932 17.86811637878418 10.45516490936279 18.53497505187988 9.790055274963379 C 19.19916534423828 9.124114990234375 20.01233673095703 8.785995483398438 20.95096588134766 8.785995483398438 C 21.88763618469238 8.785995483398438 22.69981575012207 9.124114990234375 23.36492538452148 9.790975570678711 C 24.03085517883301 10.45517539978027 24.36897659301758 11.2673454284668 24.36897659301758 12.20400524139404 C 24.36897659301758 13.14263534545898 24.03085517883301 13.95580577850342 23.36401557922363 14.620924949646 C 22.69980621337891 15.28685569763184 21.88763618469238 15.62497520446777 20.95096588134766 15.62497520446777 Z"/><path class="i" d="M 20.95096588134766 9.285995483398438 C 20.144775390625 9.285995483398438 19.45862579345703 9.572013854980469 18.88806533813477 10.14406585693359 C 18.31601524353027 10.71462631225586 18.02999496459961 11.40077590942383 18.02999496459961 12.20400619506836 C 18.02999496459961 13.01019668579102 18.31601524353027 13.69634628295898 18.88806533813477 14.26691436767578 C 19.45862579345703 14.83895492553711 20.144775390625 15.12497711181641 20.95096588134766 15.12497711181641 C 21.75419616699219 15.12497711181641 22.44035530090332 14.83895492553711 23.01091575622559 14.26691436767578 C 23.58295631408691 13.69634628295898 23.86897659301758 13.01019668579102 23.86897659301758 12.20400619506836 C 23.86897659301758 11.40077590942383 23.58295631408691 10.71462631225586 23.01091575622559 10.14406585693359 C 22.44035530090332 9.572013854980469 21.75419616699219 9.285995483398438 20.95096588134766 9.285995483398438 M 18.54127502441406 21.72864532470703 L 18.54127502441406 42.44517517089844 L 23.36065483093262 42.44517517089844 L 23.36065483093262 21.72864532470703 L 18.54127502441406 21.72864532470703 M 20.95096588134766 8.285995483398438 C 22.02531623840332 8.285995483398438 22.95659637451172 8.673545837402344 23.71894645690918 9.437885284423828 C 24.48143577575684 10.19839477539062 24.86897659301758 11.12966537475586 24.86897659301758 12.20400619506836 C 24.86897659301758 13.28030395507812 24.48143577575684 14.21257400512695 23.71711540222168 14.97493362426758 C 22.95658493041992 15.73743438720703 22.02530670166016 16.12497711181641 20.95096588134766 16.12497711181641 C 19.87466621398926 16.12497711181641 18.94239616394043 15.73743438720703 18.18004608154297 14.97310638427734 C 17.41754531860352 14.21258544921875 17.02999496459961 13.28030395507812 17.02999496459961 12.20400619506836 C 17.02999496459961 11.12966537475586 17.41754531860352 10.19838714599609 18.18188667297363 9.43603515625 C 18.94238662719727 8.673545837402344 19.87465667724609 8.285995483398438 20.95096588134766 8.285995483398438 Z M 17.54127502441406 20.72864532470703 L 18.54127502441406 20.72864532470703 L 23.36065483093262 20.72864532470703 L 24.36065483093262 20.72864532470703 L 24.36065483093262 21.72864532470703 L 24.36065483093262 42.44517517089844 L 24.36065483093262 43.44517517089844 L 23.36065483093262 43.44517517089844 L 18.54127502441406 43.44517517089844 L 17.54127502441406 43.44517517089844 L 17.54127502441406 42.44517517089844 L 17.54127502441406 21.72864532470703 L 17.54127502441406 20.72864532470703 Z"/></g></g></g></g></svg>