<svg xmlns="http://www.w3.org/2000/svg" width="177.262" height="179.152" viewBox="0 0 177.262 179.152"><defs><style>.a{fill:#2297fc;opacity:0.625;}.b,.e{fill:#1844a8;}.b{opacity:0.683;}.c{fill:#5cc5ff;opacity:0.5;}.d{fill:#fff;}</style></defs><g transform="translate(-386 -2081)"><circle class="a" cx="54" cy="54" r="54" transform="translate(386 2152.152)"/><ellipse class="b" cx="22.466" cy="22.73" rx="22.466" ry="22.73" transform="translate(471.105 2194.349)"/><ellipse class="c" cx="71.261" cy="71.415" rx="71.261" ry="71.415" transform="translate(420.741 2081)"/><ellipse class="d" cx="60.789" cy="60.789" rx="60.789" ry="60.789" transform="translate(403.973 2098.672)"/><g transform="translate(437.124 2135.26)"><g transform="translate(0.899 5.494)"><rect class="d" width="49.546" height="41.733"/></g><g transform="translate(0 0)"><g transform="translate(11.57 17.479)"><rect class="e" width="2.221" height="2.221"/></g><g transform="translate(18.181 17.479)"><rect class="e" width="2.221" height="2.221"/></g><g transform="translate(24.792 17.479)"><rect class="e" width="2.221" height="2.221"/></g><g transform="translate(31.402 17.479)"><rect class="e" width="2.221" height="2.221"/></g><g transform="translate(38.013 17.479)"><rect class="e" width="2.221" height="2.221"/></g><g transform="translate(11.57 24.09)"><rect class="e" width="2.221" height="2.221"/></g><g transform="translate(18.181 24.09)"><rect class="e" width="2.221" height="2.221"/></g><g transform="translate(24.792 24.09)"><rect class="e" width="2.221" height="2.221"/></g><g transform="translate(31.402 24.09)"><rect class="e" width="2.221" height="2.221"/></g><g transform="translate(38.013 24.09)"><rect class="e" width="2.221" height="2.221"/></g><g transform="translate(11.57 30.701)"><rect class="e" width="2.221" height="2.221"/></g><g transform="translate(18.181 30.701)"><rect class="e" width="2.221" height="2.221"/></g><g transform="translate(24.792 30.701)"><rect class="e" width="2.221" height="2.221"/></g><g transform="translate(31.402 30.701)"><rect class="e" width="2.221" height="2.221"/></g><g transform="translate(38.013 30.701)"><rect class="e" width="2.221" height="2.221"/></g><g transform="translate(11.57 37.312)"><rect class="e" width="2.221" height="2.221"/></g><g transform="translate(18.181 37.312)"><rect class="e" width="2.221" height="2.221"/></g><g transform="translate(24.792 37.312)"><rect class="e" width="2.221" height="2.221"/></g><g transform="translate(31.402 37.312)"><rect class="e" width="2.221" height="2.221"/></g><path class="e" d="M3.441,52.866a1.111,1.111,0,0,1-1.111-1.11V8.31A1.112,1.112,0,0,1,3.441,7.2h6.611a.542.542,0,0,0,.542-.542V4.53a1.11,1.11,0,1,1,2.221,0V6.658a.542.542,0,0,0,.542.542h3.3a.542.542,0,0,0,.542-.542V4.53a1.11,1.11,0,1,1,2.221,0V6.658a.542.542,0,0,0,.542.542h3.306a.542.542,0,0,0,.542-.542V4.53a1.11,1.11,0,1,1,2.221,0V6.658a.542.542,0,0,0,.542.542h3.3a.543.543,0,0,0,.544-.542V4.53a1.11,1.11,0,1,1,2.219,0V6.658a.543.543,0,0,0,.544.542h3.3a.542.542,0,0,0,.542-.542V4.53a1.11,1.11,0,1,1,2.221,0V6.658A.542.542,0,0,0,39.8,7.2h3.306a.542.542,0,0,0,.542-.542V4.53a1.11,1.11,0,1,1,2.221,0V6.658a.542.542,0,0,0,.542.542h6.611a1.112,1.112,0,0,1,1.11,1.11V51.757a1.111,1.111,0,0,1-1.11,1.11ZM5.094,9.421a.542.542,0,0,0-.544.542V50.1a.542.542,0,0,0,.544.542H51.37a.542.542,0,0,0,.542-.542V9.963a.542.542,0,0,0-.542-.542H46.412a.542.542,0,0,0-.542.542v2.128a1.11,1.11,0,1,1-2.221,0V9.963a.542.542,0,0,0-.542-.542H39.8a.542.542,0,0,0-.542.542v2.128a1.11,1.11,0,1,1-2.221,0V9.963a.542.542,0,0,0-.542-.542h-3.3a.543.543,0,0,0-.544.542v2.128a1.11,1.11,0,1,1-2.219,0V9.963a.543.543,0,0,0-.544-.542h-3.3a.542.542,0,0,0-.542.542v2.128a1.11,1.11,0,1,1-2.221,0V9.963a.542.542,0,0,0-.542-.542H19.968a.542.542,0,0,0-.542.542v2.128a1.11,1.11,0,1,1-2.221,0V9.963a.542.542,0,0,0-.542-.542h-3.3a.542.542,0,0,0-.542.542v2.128a1.11,1.11,0,1,1-2.221,0V9.963a.542.542,0,0,0-.542-.542Z" transform="translate(-2.33 -3.419)"/></g></g></g></svg>