<svg xmlns="http://www.w3.org/2000/svg" width="177.262" height="179.152" viewBox="0 0 177.262 179.152"><defs><style>.a{fill:#2297fc;opacity:0.625;}.b{fill:#1844a8;opacity:0.683;}.c{fill:#5cc5ff;opacity:0.5;}.d{fill:#fff;}.e{fill:#73d7ff;}.f{fill:#003575;}</style></defs><g transform="translate(-386 -2305)"><circle class="a" cx="54" cy="54" r="54" transform="translate(386 2376.152)"/><ellipse class="b" cx="22.466" cy="22.73" rx="22.466" ry="22.73" transform="translate(471.105 2418.349)"/><ellipse class="c" cx="71.261" cy="71.415" rx="71.261" ry="71.415" transform="translate(420.741 2305)"/><ellipse class="d" cx="60.789" cy="60.789" rx="60.789" ry="60.789" transform="translate(403.973 2322.672)"/><g transform="translate(430.948 2354.021)"><g transform="translate(22.116 24.691)"><path class="e" d="M50.015,41.3H43.547l-1.393,7.533L32.492,41.3H14.233V16.244H50.015Z" transform="translate(-14.233 -16.244)"/></g><g transform="translate(3.59 4.73)"><g transform="translate(0)"><path class="d" d="M2.914,29.1H9.382l1.393,7.533L20.437,29.1l1-5.095L38.7,23.6V4.049H2.914Z" transform="translate(-2.914 -4.049)"/></g></g><g transform="translate(1.853 2.979)"><path class="f" d="M50.906,60.625a1.244,1.244,0,0,1-.792-.288L39.592,51.569a.61.61,0,0,0-.386-.141H21.48a1.235,1.235,0,0,1-1.234-1.234v-16.3a.6.6,0,0,0-.349-.547.587.587,0,0,0-.255-.057.6.6,0,0,0-.386.139l-8.019,6.681a1.244,1.244,0,0,1-.791.286,1.2,1.2,0,0,1-.522-.118,1.233,1.233,0,0,1-.714-1.118V31.8a.6.6,0,0,0-.6-.6H3.089a1.238,1.238,0,0,1-1.236-1.236V4.215A1.238,1.238,0,0,1,3.089,2.979H39.872a1.236,1.236,0,0,1,1.234,1.236V22.606a.6.6,0,0,0,.6.6H58.263A1.238,1.238,0,0,1,59.5,24.445V50.194a1.236,1.236,0,0,1-1.236,1.234H52.746a.6.6,0,0,0-.6.6v7.357a1.24,1.24,0,0,1-1.236,1.236ZM23.319,25.681a.6.6,0,0,0-.6.6V48.354a.6.6,0,0,0,.6.6H39.872a1.242,1.242,0,0,1,.792.286l8.017,6.681a.6.6,0,0,0,.386.141.611.611,0,0,0,.255-.057.6.6,0,0,0,.349-.547V50.194a1.236,1.236,0,0,1,1.234-1.236h5.518a.6.6,0,0,0,.6-.6V26.285a.6.6,0,0,0-.6-.6ZM4.929,5.451a.6.6,0,0,0-.6.6V28.123a.6.6,0,0,0,.6.6h5.518a1.238,1.238,0,0,1,1.236,1.236v5.269a.6.6,0,0,0,.347.547.587.587,0,0,0,.255.057.6.6,0,0,0,.386-.141l7.357-6.131a.6.6,0,0,0,.218-.463V24.445A1.236,1.236,0,0,1,21.48,23.21H38.033a.6.6,0,0,0,.6-.6V6.055a.6.6,0,0,0-.6-.6Z" transform="translate(-1.853 -2.979)"/><g transform="translate(36.784 33.105)"><rect class="f" width="2.471" height="2.471"/></g><g transform="translate(44.14 33.105)"><rect class="f" width="2.471" height="2.471"/></g><g transform="translate(29.428 33.105)"><rect class="f" width="2.471" height="2.471"/></g><g transform="translate(18.393 12.874)"><rect class="f" width="2.471" height="2.471"/></g><g transform="translate(25.749 12.874)"><rect class="f" width="2.471" height="2.471"/></g><g transform="translate(11.036 12.874)"><rect class="f" width="2.471" height="2.471"/></g></g></g></g></svg>