<svg xmlns="http://www.w3.org/2000/svg" width="177.262" height="179.152" viewBox="0 0 177.262 179.152"><defs><style>.a{fill:#2297fc;opacity:0.625;}.b{fill:#1844a8;opacity:0.683;}.c{fill:#5cc5ff;opacity:0.5;}.d{fill:#fff;}.e{fill:#73d7ff;}.f{fill:#003575;}</style></defs><g transform="translate(-614 -2081)"><circle class="a" cx="54" cy="54" r="54" transform="translate(614 2152.152)"/><ellipse class="b" cx="22.466" cy="22.73" rx="22.466" ry="22.73" transform="translate(699.104 2194.349)"/><ellipse class="c" cx="71.261" cy="71.415" rx="71.261" ry="71.415" transform="translate(648.741 2081)"/><ellipse class="d" cx="60.789" cy="60.789" rx="60.789" ry="60.789" transform="translate(631.973 2098.672)"/><g transform="translate(659.568 2125.155)"><g transform="translate(1.8 6.269)"><rect class="e" width="2.512" height="12.921" transform="translate(50.34 23.167) rotate(-79.759)"/><rect class="e" width="2.512" height="14.357" transform="translate(49.689 17.803) rotate(-79.759)"/><rect class="e" width="2.512" height="30.687" transform="translate(15.259 11.673) rotate(-79.759)"/><path class="f" d="M49.893,51.546H5.568A3.915,3.915,0,0,1,1.8,47.778V18.168A3.915,3.915,0,0,1,5.568,14.4h44.5a3.915,3.915,0,0,1,3.768,3.768V47.778A4.223,4.223,0,0,1,49.893,51.546ZM5.568,16.912a1.348,1.348,0,0,0-1.256,1.256V47.778a1.227,1.227,0,0,0,1.256,1.256h44.5a1.227,1.227,0,0,0,1.256-1.256V18.168a1.227,1.227,0,0,0-1.256-1.256Z" transform="translate(-1.8 0.191)"/><path class="f" d="M53.266,50.649h-.718l-6.46-1.256.538-2.512,6.64,1.256c.718,0,1.256-.179,1.436-1.077h0l5.2-29.071c0-.718-.179-1.256-1.077-1.436h0L15.4,8.837a1.073,1.073,0,0,0-1.436,1.077h0L11.812,22.834,9.3,22.3,11.453,9.375a3.535,3.535,0,0,1,4.127-3.051h0l43.786,7.9a3.536,3.536,0,0,1,3.051,4.127h0L57.034,47.419A3.579,3.579,0,0,1,53.266,50.649Z" transform="translate(4.159 -6.269)"/><path class="e" d="M14.514,28.549H9.668A3.677,3.677,0,0,1,5.9,24.781V22.268A3.915,3.915,0,0,1,9.668,18.5h5.025a3.915,3.915,0,0,1,3.768,3.768v2.512A3.937,3.937,0,0,1,14.514,28.549Z" transform="translate(1.458 3.448)"/><rect class="e" width="12.382" height="2.512" transform="translate(32.122 24.64)"/><rect class="e" width="6.101" height="2.512" transform="translate(27.097 39.355)"/><rect class="e" width="6.101" height="2.512" transform="translate(36.967 39.355)"/><rect class="e" width="6.101" height="2.512" transform="translate(17.227 39.355)"/><rect class="e" width="6.101" height="2.512" transform="translate(7.358 39.355)"/></g></g></g></svg>