<svg xmlns="http://www.w3.org/2000/svg" width="177.262" height="179.152" viewBox="0 0 177.262 179.152"><defs><style>.a{fill:#2297fc;opacity:0.625;}.b{fill:#1844a8;opacity:0.683;}.c{fill:#5cc5ff;opacity:0.5;}.d{fill:#fff;}.e{fill:#003575;}.f{fill:#73d7ff;}</style></defs><g transform="translate(-842 -2081)"><circle class="a" cx="54" cy="54" r="54" transform="translate(842 2152.152)"/><ellipse class="b" cx="22.466" cy="22.73" rx="22.466" ry="22.73" transform="translate(927.104 2194.349)"/><ellipse class="c" cx="71.261" cy="71.415" rx="71.261" ry="71.415" transform="translate(876.741 2081)"/><ellipse class="d" cx="60.789" cy="60.789" rx="60.789" ry="60.789" transform="translate(860 2099)"/><g transform="translate(750.4 1958.835)"><g transform="translate(148.013 175.573)"><path class="d" d="M147.76,175.321v49.842l7.153-5.251,4.87,5.859,5.251-5.555,5.106,5.859,4.566-5.859,5.242,5.859,6.011-6.62,5.707,5.935v-50.07Z" transform="translate(-147.76 -175.321)"/></g><g transform="translate(146.6 174.165)"><path class="e" d="M147.748,227.735a1.133,1.133,0,0,1-.438-.089,1.144,1.144,0,0,1-.71-1.06V175.313a1.149,1.149,0,0,1,1.148-1.148h44.436a1.149,1.149,0,0,1,1.147,1.148v51.273a1.145,1.145,0,0,1-.709,1.06,1.164,1.164,0,0,1-.438.088,1.137,1.137,0,0,1-.812-.337l-5.448-5.442a.56.56,0,0,0-.4-.164h-.04a.566.566,0,0,0-.409.224l-3.935,5.258a1.148,1.148,0,0,1-1.837,0l-3.762-5.014a.561.561,0,0,0-.9,0l-3.758,5.012a1.148,1.148,0,0,1-1.838,0l-3.763-5.015a.567.567,0,0,0-.449-.224.56.56,0,0,0-.448.225l-3.762,5.014a1.148,1.148,0,0,1-1.838,0l-3.935-5.258a.564.564,0,0,0-.409-.224h-.04a.56.56,0,0,0-.4.164L148.56,227.4A1.142,1.142,0,0,1,147.748,227.735Zm17.088-9.134a1.161,1.161,0,0,1,.919.459l3.765,5.015a.563.563,0,0,0,.448.224h0a.563.563,0,0,0,.449-.225l3.758-5.014a1.148,1.148,0,0,1,1.836,0l3.762,5.014a.562.562,0,0,0,.449.224h0a.561.561,0,0,0,.449-.225l3.75-5.011a1.154,1.154,0,0,1,.838-.457c.037,0,.065,0,.094,0a1.149,1.149,0,0,1,.8.338l3.924,3.922a.56.56,0,0,0,.4.163.551.551,0,0,0,.214-.043.561.561,0,0,0,.347-.517V177.022a.561.561,0,0,0-.561-.561H149.457a.561.561,0,0,0-.561.561v45.441a.56.56,0,0,0,.346.517.553.553,0,0,0,.215.043.564.564,0,0,0,.4-.163l3.925-3.923a1.13,1.13,0,0,1,.794-.337c.03,0,.06,0,.09,0a1.153,1.153,0,0,1,.847.457l3.75,5.01a.563.563,0,0,0,.449.225h0a.559.559,0,0,0,.448-.224l3.758-5.011A1.154,1.154,0,0,1,164.836,218.6Z" transform="translate(-146.6 -174.165)"/><g transform="translate(6.836 18.799)"><path class="f" d="M153.363,191.9a1.148,1.148,0,0,1,0-2.3h3.418a1.148,1.148,0,1,1,0,2.3Z" transform="translate(-152.215 -189.606)"/></g><g transform="translate(17.09 18.799)"><path class="f" d="M161.785,191.9a1.148,1.148,0,0,1,0-2.3h20.23a1.148,1.148,0,0,1,0,2.3Z" transform="translate(-160.637 -189.606)"/></g><g transform="translate(6.836 25.636)"><path class="f" d="M153.363,197.517a1.148,1.148,0,0,1,0-2.3h3.418a1.148,1.148,0,1,1,0,2.3Z" transform="translate(-152.215 -195.221)"/></g><g transform="translate(17.09 25.636)"><path class="f" d="M161.785,197.517a1.148,1.148,0,0,1,0-2.3h20.23a1.148,1.148,0,0,1,0,2.3Z" transform="translate(-160.637 -195.221)"/></g><g transform="translate(6.836 32.472)"><path class="f" d="M153.363,203.132a1.148,1.148,0,0,1,0-2.3h3.418a1.148,1.148,0,1,1,0,2.3Z" transform="translate(-152.215 -200.836)"/></g><g transform="translate(17.09 32.472)"><path class="f" d="M161.785,203.132a1.148,1.148,0,0,1,0-2.3h20.23a1.148,1.148,0,0,1,0,2.3Z" transform="translate(-160.637 -200.836)"/></g><g transform="translate(6.836 10.254)"><path class="e" d="M153.363,184.884a1.149,1.149,0,0,1,0-2.3h30.763a1.149,1.149,0,0,1,0,2.3Z" transform="translate(-152.215 -182.587)"/></g></g></g></g></svg>