<svg xmlns="http://www.w3.org/2000/svg" width="177.262" height="179.152" viewBox="0 0 177.262 179.152"><defs><style>.a{fill:#2297fc;opacity:0.625;}.b{fill:#1844a8;opacity:0.683;}.c{fill:#5cc5ff;opacity:0.5;}.d{fill:#fff;}.e{fill:#73d7ff;}.f{fill:#003575;}</style></defs><g transform="translate(-614 -2529)"><circle class="a" cx="54" cy="54" r="54" transform="translate(614 2600.152)"/><ellipse class="b" cx="22.466" cy="22.73" rx="22.466" ry="22.73" transform="translate(699.104 2642.349)"/><ellipse class="c" cx="71.261" cy="71.415" rx="71.261" ry="71.415" transform="translate(648.741 2529)"/><ellipse class="d" cx="60.789" cy="60.789" rx="60.789" ry="60.789" transform="translate(631.973 2546.672)"/><g transform="translate(663.567 2577.918)"><g transform="translate(4.048 17.593)"><rect class="e" width="50.953" height="23.873"/></g><g transform="translate(12.315 31.494)"><rect class="d" width="34.254" height="23.041"/></g><g transform="translate(12.315 3.768)"><rect class="d" width="34.254" height="12.264"/></g><g transform="translate(2.366 2.232)"><path class="f" d="M13.875,56.3a2.887,2.887,0,0,1-2.883-2.885V43.067a.566.566,0,0,0-.566-.566H5.249a2.887,2.887,0,0,1-2.883-2.885v-20.7a2.887,2.887,0,0,1,2.883-2.885h5.176a.566.566,0,0,0,.566-.566V5.117a2.888,2.888,0,0,1,2.883-2.885h31.05A2.889,2.889,0,0,1,47.81,5.117v10.35a.565.565,0,0,0,.566.566h5.175a2.887,2.887,0,0,1,2.883,2.885v20.7A2.887,2.887,0,0,1,53.551,42.5H48.376a.565.565,0,0,0-.566.566v10.35A2.888,2.888,0,0,1,44.925,56.3Zm0-24.151a.566.566,0,0,0-.566.566v20.7a.566.566,0,0,0,.566.568H44.92a.566.566,0,0,0,.566-.568l.006-20.7a.569.569,0,0,0-.568-.568Zm31.05-2.317a2.888,2.888,0,0,1,2.885,2.883v6.9a.566.566,0,0,0,.566.568h5.175a.566.566,0,0,0,.566-.568v-20.7a.566.566,0,0,0-.566-.568H5.249a.567.567,0,0,0-.566.568v20.7a.567.567,0,0,0,.566.568h5.176a.567.567,0,0,0,.566-.568v-6.9a2.886,2.886,0,0,1,2.883-2.883ZM13.875,4.549a.566.566,0,0,0-.566.568v10.35a.565.565,0,0,0,.566.566H44.92a.565.565,0,0,0,.566-.566l.006-10.35a.569.569,0,0,0-.568-.568Z" transform="translate(-2.366 -2.232)"/><g transform="translate(17.25 43.127)"><path class="f" d="M14.862,32.893a1.159,1.159,0,1,1,0-2.317h17.25a1.159,1.159,0,1,1,0,2.317Z" transform="translate(-13.703 -30.576)"/></g><g transform="translate(17.25 36.226)"><path class="f" d="M14.862,28.358a1.159,1.159,0,1,1,0-2.317h17.25a1.159,1.159,0,1,1,0,2.317Z" transform="translate(-13.703 -26.041)"/></g><g transform="translate(44.851 20.701)"><rect class="f" width="2.318" height="2.318"/></g><g transform="translate(37.951 20.701)"><rect class="f" width="2.318" height="2.318"/></g><g transform="translate(31.05 20.701)"><rect class="f" width="2.318" height="2.318"/></g></g></g></g></svg>