<svg xmlns="http://www.w3.org/2000/svg" width="48" height="48" viewBox="0 0 48 48"><defs><style>.a{fill:none;}.b{fill:#73d7ff;}.c{fill:#fff;}.d{fill:#003575;}</style></defs><g transform="translate(-1072 -3087.5)"><rect class="a" width="48" height="48" transform="translate(1072 3087.5)"/><g transform="translate(1074.319 3089.664)"><g transform="translate(5.732 3.44)"><g transform="translate(0)"><rect class="b" width="31.298" height="36.511"/></g></g><g transform="translate(10.746 8.334)"><rect class="c" width="21.283" height="6.998"/></g><g transform="translate(4.681 2.507)"><path class="d" d="M6.723,40.794a2.044,2.044,0,0,1-2.042-2.042V4.549A2.044,2.044,0,0,1,6.723,2.507H36.04a2.044,2.044,0,0,1,2.042,2.042v34.2a2.044,2.044,0,0,1-2.042,2.042Zm0-36.646a.4.4,0,0,0-.4.4v34.2a.4.4,0,0,0,.4.4H36.037a.4.4,0,0,0,.4-.4l0-34.2a.4.4,0,0,0-.4-.4Z" transform="translate(-4.681 -2.507)"/><g transform="translate(4.886 4.886)"><path class="d" d="M11.3,16.05a2.044,2.044,0,0,1-2.042-2.042V9.123A2.045,2.045,0,0,1,11.3,7.08H30.841a2.045,2.045,0,0,1,2.042,2.043v4.886a2.044,2.044,0,0,1-2.042,2.042Zm0-7.329a.4.4,0,0,0-.4.4v4.886a.4.4,0,0,0,.4.4H30.837a.4.4,0,0,0,.4-.4l0-4.886a.4.4,0,0,0-.4-.4Z" transform="translate(-9.254 -7.08)"/></g><g transform="translate(8.551 21.987)"><rect class="d" width="1.641" height="1.641"/></g><g transform="translate(13.437 21.987)"><rect class="d" width="1.641" height="1.641"/></g><g transform="translate(18.323 21.987)"><rect class="d" width="1.641" height="1.641"/></g><g transform="translate(8.551 17.101)"><g transform="translate(0 0)"><rect class="d" width="1.641" height="1.641"/></g></g><g transform="translate(13.437 17.101)"><g transform="translate(0 0)"><rect class="d" width="1.641" height="1.641"/></g></g><g transform="translate(18.323 17.101)"><g transform="translate(0 0)"><rect class="d" width="1.641" height="1.641"/></g></g><g transform="translate(23.209 17.101)"><g transform="translate(0 0)"><rect class="d" width="1.641" height="1.641"/></g></g><g transform="translate(23.209 21.987)"><rect class="d" width="1.641" height="1.641"/></g><g transform="translate(23.209 26.873)"><rect class="d" width="1.641" height="6.527"/></g><g transform="translate(8.551 26.873)"><rect class="d" width="1.641" height="1.641"/></g><g transform="translate(13.437 26.873)"><rect class="d" width="1.641" height="1.641"/></g><g transform="translate(18.323 26.873)"><rect class="d" width="1.641" height="1.641"/></g><g transform="translate(8.551 31.76)"><rect class="d" width="1.641" height="1.641"/></g><g transform="translate(13.437 31.76)"><rect class="d" width="1.641" height="1.641"/></g><g transform="translate(18.323 31.76)"><rect class="d" width="1.641" height="1.641"/></g><g transform="translate(15.88 8.55)"><path class="d" d="M20.365,12.151a.821.821,0,1,1,0-1.641h6.108a.821.821,0,0,1,0,1.641Z" transform="translate(-19.544 -10.51)"/></g></g></g></g></svg>