<svg xmlns="http://www.w3.org/2000/svg" width="48" height="48" viewBox="0 0 48 48"><defs><style>.a{fill:none;}.b{fill:#73d7ff;}.c{fill:#fff;}.d{fill:#003575;}</style></defs><g transform="translate(-1072 -3087.5)"><rect class="a" width="48" height="48" transform="translate(1072 3087.5)"/><g transform="translate(1074.916 3090.498)"><g transform="translate(2.084 2.002)"><g transform="translate(0.755 20.459)"><rect class="b" width="5.031" height="16.843"/></g><g transform="translate(6.223 24.068)"><path class="c" d="M8.052,33.959,21.329,37.92H24.5l14.82-5.851-.547-2.187-.984-.875-10.882,1.97-1.2-2.9-6.91-1.258-3.809-2.625H10.5l-2.68,1.75Z" transform="translate(-7.822 -24.194)"/></g><g transform="translate(16.125 1.66)"><g transform="translate(0)"><ellipse class="b" cx="10.361" cy="10.219" rx="10.361" ry="10.219"/></g></g><g transform="translate(0 19.652)"><path class="d" d="M40.137,30.179a2.849,2.849,0,0,0-2.848-1.847,6.29,6.29,0,0,0-1.545.216c-.715.183-1.45.389-2.161.589l-.023.007a41.9,41.9,0,0,1-5,1.182.381.381,0,0,1-.061,0,.4.4,0,0,1-.4-.341l-.013-.089c-.008-.052-.015-.1-.027-.157-.357-1.554-1.856-3.216-4.991-3.216a10.064,10.064,0,0,0-1.285.086,9.469,9.469,0,0,1-1.173.081,3.32,3.32,0,0,1-3.011-1.441,3.911,3.911,0,0,0-1.279-1.128,5.172,5.172,0,0,0-2.243-.447A12.837,12.837,0,0,0,9.377,24.76a.4.4,0,0,1-.157.031.4.4,0,0,1-.4-.4V20.948a.825.825,0,0,0-.824-.825H2.908a.825.825,0,0,0-.824.825v17.2a.825.825,0,0,0,.824.824H7.992a.825.825,0,0,0,.824-.824V35.75a.406.406,0,0,1,.166-.326.413.413,0,0,1,.238-.077.4.4,0,0,1,.124.02c3.357,1.083,11.458,3.6,14.2,3.6,2.924,0,13.383-3.8,16.378-5.715C40.216,33.065,41.114,32.49,40.137,30.179ZM7.167,36.916a.4.4,0,0,1-.4.4H4.137a.4.4,0,0,1-.4-.4V22.176a.4.4,0,0,1,.4-.4H6.764a.4.4,0,0,1,.4.4ZM38.7,32.063c-3.29,1.915-12.926,5.256-15.163,5.256-2.823,0-13.265-3.384-14.446-3.769a.4.4,0,0,1-.279-.384v-6.06a.4.4,0,0,1,.21-.354,11.583,11.583,0,0,1,5.06-1.427,3.57,3.57,0,0,1,1.526.286,2.635,2.635,0,0,1,.717.688l.013.015a4.876,4.876,0,0,0,4.3,2.028A10.76,10.76,0,0,0,22,28.25a8.657,8.657,0,0,1,1.093-.075,3.7,3.7,0,0,1,2.916,1.049,2.037,2.037,0,0,1,.49,1.114.4.4,0,0,1-.259.415c-.157.06-.325.124-.5.192a10.376,10.376,0,0,1-2.96.845,1.226,1.226,0,0,1-.3-.033c-.625-.155-2.451-.623-5.432-1.39l0,0-1.892-.488-.011,0-.084-.022,0,.009a.821.821,0,0,0-.408,1.579l0,.01,1.971.509.015,0h0c2,.516,4.667,1.2,5.452,1.4a2.833,2.833,0,0,0,.676.075,11.045,11.045,0,0,0,3.577-.951l.038-.014c.3-.116.58-.226.82-.307h0a.8.8,0,0,1,.075-.036.4.4,0,0,1,.124-.029,33.333,33.333,0,0,0,6.616-1.366c.8-.224,1.461-.41,2.147-.586a4.691,4.691,0,0,1,1.138-.17,1.239,1.239,0,0,1,1.326.846,5.129,5.129,0,0,1,.277.8A.4.4,0,0,1,38.7,32.063Z" transform="translate(-2.084 -20.123)"/></g><g transform="translate(14.738)"><path class="d" d="M27.416,25.762a11.932,11.932,0,0,1-11.721-9.245.826.826,0,1,1,1.609-.37A10.352,10.352,0,1,0,27.416,3.653a10.449,10.449,0,0,0-3.457.582.8.8,0,0,1-.273.049h0a.827.827,0,0,1-.271-1.607,12.1,12.1,0,0,1,4-.675,11.963,11.963,0,0,1,12.018,11.88A11.963,11.963,0,0,1,27.416,25.762Z" transform="translate(-15.674 -2.002)"/></g></g><path class="d" d="M22.471,11.366a5.553,5.553,0,0,1,5.158-3.953,5.145,5.145,0,0,1,3.515,1.42.8.8,0,1,1-1.082,1.181,3.6,3.6,0,0,0-2.433-1,3.864,3.864,0,0,0-3.44,2.35,4.88,4.88,0,0,0-.013,4.085,3.87,3.87,0,0,0,3.453,2.381,3.605,3.605,0,0,0,2.433-1,.8.8,0,0,1,1.082,1.182,5.152,5.152,0,0,1-3.515,1.42,5.557,5.557,0,0,1-5.168-3.983A7.737,7.737,0,0,1,22.471,11.366Z" transform="translate(1.7 0.457)"/><rect class="d" width="8.83" height="1.549" rx="0.615" transform="translate(22.55 14.578)"/><rect class="d" width="8.83" height="1.549" rx="0.615" transform="translate(22.55 12.107)"/></g></g></svg>