<svg xmlns="http://www.w3.org/2000/svg" width="48" height="48" viewBox="0 0 48 48"><defs><style>.a{fill:none;}.b{fill:#73d7ff;}.c{fill:#003575;}</style></defs><g transform="translate(-24 -32)"><rect class="a" width="48" height="48" transform="translate(24 32)"/><g transform="translate(26.75 35.839)"><path class="b" d="M2.9,18.7l.21,18.063,1.155,1.47H37.556l1.365-3.256L38.4,18.7Z" transform="translate(0.035 0.833)"/><g transform="translate(2.2 2.1)"><path class="c" d="M31.769,5.776H30.193v-2.1H10.87v2.31H9.4V2.835a.789.789,0,0,1,.735-.735h20.9a.789.789,0,0,1,.735.735Z" transform="translate(-1.839 -2.1)"/><path class="b" d="M33.419,8.681H31.844V6.475H9.475v2.31H7.9V5.635A.789.789,0,0,1,8.635,4.9H32.579a.789.789,0,0,1,.735.735V8.681Z" transform="translate(-1.914 -1.96)"/><path class="c" d="M38.956,19.27H2.935a.735.735,0,0,1,0-1.47H38.851a.789.789,0,0,1,.735.735A.638.638,0,0,1,38.956,19.27Z" transform="translate(-2.2 -1.312)"/><path class="c" d="M25.612,26.621H15.11a2.331,2.331,0,0,1-2.31-2.31V22.735A.789.789,0,0,1,13.535,22H27.082a.789.789,0,0,1,.735.735V24.31A2.179,2.179,0,0,1,25.612,26.621ZM14.375,23.575v.735a.789.789,0,0,0,.735.735h10.5a.789.789,0,0,0,.735-.735v-.735Z" transform="translate(-1.668 -1.101)"/><path class="c" d="M34.225,19.772a.789.789,0,0,1-.735-.735V9.375H7.97v9.662a.789.789,0,0,1-.735.735.789.789,0,0,1-.735-.735V8.535A.789.789,0,0,1,7.235,7.8h26.99a.789.789,0,0,1,.735.735v10.5A.718.718,0,0,1,34.225,19.772Z" transform="translate(-1.984 -1.814)"/><path class="c" d="M37.381,39.012H4.51A2.331,2.331,0,0,1,2.2,36.7V18.743a.8.8,0,0,1,.21-.525l4.411-4.411a.814.814,0,0,1,1.05.105.938.938,0,0,1,0,1.05l-4.2,4.306V37.016a.789.789,0,0,0,.735.735H37.276a.789.789,0,0,0,.735-.735V19.163l-4.2-4.306a.814.814,0,0,1,.105-1.05.938.938,0,0,1,1.05,0l4.411,4.411a1.109,1.109,0,0,1,.21.525V36.7A2.179,2.179,0,0,1,37.381,39.012Z" transform="translate(-2.2 -1.52)"/></g></g></g></svg>