<svg xmlns="http://www.w3.org/2000/svg" width="48" height="48" viewBox="0 0 48 48"><defs><style>.a{fill:none;}.b{fill:#73d7ff;}.c{fill:#003575;}</style></defs><g transform="translate(-24 -32)"><rect class="a" width="48" height="48" transform="translate(24 32)"/><g transform="translate(27.8 36.998)"><path class="b" d="M2.9,18.7l.2,15.409,1.11,1.254H36.206l1.312-2.777-.5-13.886Z" transform="translate(0.035 3.114)"/><g transform="translate(2.2 -0.998)"><g transform="translate(0 0)"><g transform="translate(5.05)"><path class="c" d="M12.411,22.272a.733.733,0,0,1-.7-.787c0-.492.261-.787.7-.787H27.643a.733.733,0,0,1,.7.787c0,.492-.261.787-.7.787Z" transform="translate(-7.119 -16.564)"/><path class="c" d="M12.411,22.272a.733.733,0,0,1-.7-.787c0-.492.261-.787.7-.787H27.643a.733.733,0,0,1,.7.787c0,.492-.261.787-.7.787Z" transform="translate(-7.119 -12.495)"/><path class="c" d="M12.411,22.272a.733.733,0,0,1-.7-.787c0-.492.261-.787.7-.787H27.643a.733.733,0,0,1,.7.787c0,.492-.261.787-.7.787Z" transform="translate(-7.119 -8.461)"/><path class="c" d="M1.816,23.645c-.912,0-1.732-.532-1.732-1.263V1.312C.084.647.813.049,1.816.049h22.7c.912,0,1.732.532,1.732,1.263V22.382c0,.665-.729,1.263-1.732,1.263Zm0-22.6c-.182,0-.365.133-.365.266V22.382c0,.133.182.266.365.266h22.7c.182,0,.365-.133.365-.266V1.312a.206.206,0,0,0-.091-.2.42.42,0,0,0-.274-.066Z" transform="translate(-0.084 -0.049)"/><path class="c" d="M14.5,54.574A.787.787,0,0,1,14.5,53h5.14a.787.787,0,0,1,0,1.574Z" transform="translate(-9.428 -36.671)"/></g><path class="c" d="M37.578,19.27H2.908a.736.736,0,0,1,0-1.47H37.477a.775.775,0,0,1,.708.735A.63.63,0,0,1,37.578,19.27Z" transform="translate(-2.2 4.326)"/><path class="c" d="M25.612,26.621H15.11a2.331,2.331,0,0,1-2.31-2.31V22.735A.789.789,0,0,1,13.535,22H27.082a.789.789,0,0,1,.735.735V24.31A2.179,2.179,0,0,1,25.612,26.621ZM14.375,23.575v.735a.789.789,0,0,0,.735.735h10.5a.789.789,0,0,0,.735-.735v-.735Z" transform="translate(-2.366 3.467)"/><path class="c" d="M36.061,39.012H4.424A2.288,2.288,0,0,1,2.2,36.7V18.743a.819.819,0,0,1,.2-.525l4.245-4.411a.762.762,0,0,1,1.011.105.968.968,0,0,1,0,1.05L3.615,19.268V37.016a.774.774,0,0,0,.708.735H35.96a.775.775,0,0,0,.708-.735V19.163l-4.043-4.306a.838.838,0,0,1,.1-1.05.875.875,0,0,1,1.011,0l4.245,4.411a1.134,1.134,0,0,1,.2.525V36.7A2.144,2.144,0,0,1,36.061,39.012Z" transform="translate(-2.2 0.988)"/></g></g></g></g></svg>