<svg xmlns="http://www.w3.org/2000/svg" width="48" height="48" viewBox="0 0 48 48"><defs><style>.a{fill:none;}.b{fill:#003575;}.c{fill:#73d7ff;}</style></defs><g transform="translate(-1072 -3087.5)"><rect class="a" width="48" height="48" transform="translate(1072 3087.5)"/><g transform="translate(1074.202 3089.916)"><path class="b" d="M17.34,8.081a3.24,3.24,0,1,1,3.24-3.24,3.05,3.05,0,0,1-3.24,3.24Z" transform="translate(1.21)"/><path class="c" d="M31.852,28.759a1.483,1.483,0,0,0-2.682.447A11.913,11.913,0,0,1,18.108,37.7a10.946,10.946,0,0,1-5.028-20.672,1.784,1.784,0,0,0,.893-1.564h0a1.659,1.659,0,0,0-2.458-1.341A14.306,14.306,0,0,0,3.8,27.083,14.671,14.671,0,0,0,17.768,41.051a14.43,14.43,0,0,0,14.3-11.173,1.838,1.838,0,0,0-.224-1.117Z" transform="translate(0 1.445)"/><path class="b" d="M38.725,32.526C36.714,29.063,34.7,25.715,32.8,22.252a2.388,2.388,0,0,0-1.9-1.341h-9.16V17.665h6.7A1.573,1.573,0,0,0,29.9,16.1a1.684,1.684,0,0,0-1.346-1.676H21.405c0-.559-.115-.893-.115-1.341a8.288,8.288,0,0,0-.559-2.794,3.463,3.463,0,0,0-4.018-1.67c-1.564.447-2.123,1.9-2.011,3.579a29.446,29.446,0,0,0,.224,3.128c.115,1.117.115,2.347.224,3.463l.335,4.693A3.1,3.1,0,0,0,16.6,25.716a3.871,3.871,0,0,0,2.906,1.005h10.5a.844.844,0,0,1,.783.447c.335.671.783,1.341,1.117,2.011.447.783.893,1.564,1.341,2.458.671,1.117,1.341,2.347,2.011,3.463a2.228,2.228,0,0,0,3.016.893,2.848,2.848,0,0,0,.443-3.468Z" transform="translate(1.278 0.807)"/></g></g></svg>