<svg xmlns="http://www.w3.org/2000/svg" width="48" height="48" viewBox="0 0 48 48"><defs><style>.a{fill:none;}.b{fill:#73d7ff;}.c,.f{fill:#003575;}.d{fill:#f8fcff;stroke-linecap:round;stroke-miterlimit:10;}.e,.f{stroke:none;}</style></defs><g transform="translate(-1072 -3087.5)"><rect class="a" width="48" height="48" transform="translate(1072 3087.5)"/><g transform="translate(1073.6 3088.438)"><g transform="translate(3.4 4.262)"><circle class="b" cx="18.192" cy="18.192" r="18.192" transform="translate(0.827 0.916)"/><path class="c" d="M22.574,4.262A19.174,19.174,0,1,0,41.749,23.436,19.174,19.174,0,0,0,22.574,4.262Zm0,36.705A17.53,17.53,0,1,1,40.1,23.436a17.53,17.53,0,0,1-17.53,17.531Z" transform="translate(-3.4 -4.262)"/></g><g transform="translate(20.299 10.065)"><g class="d" transform="translate(-18.03 -9.286)"><path class="e" d="M 22.68484878540039 35.63108062744141 L 22.18484878540039 35.63108062744141 L 18.42849922180176 35.63108062744141 L 17.92849922180176 35.63108062744141 L 17.92849922180176 35.13108062744141 L 17.92849922180176 18.98411178588867 L 17.92849922180176 18.48411178588867 L 18.42849922180176 18.48411178588867 L 22.18484878540039 18.48411178588867 L 22.68484878540039 18.48411178588867 L 22.68484878540039 18.98411178588867 L 22.68484878540039 35.13108062744141 L 22.68484878540039 35.63108062744141 Z M 20.30666923522949 14.3370418548584 C 19.54470825195312 14.3370418548584 18.88463973999023 14.06260204315186 18.34477996826172 13.52135181427002 C 17.80443954467773 12.98240184783936 17.52999877929688 12.32232189178467 17.52999877929688 11.56036186218262 C 17.52999877929688 10.79994201660156 17.80443954467773 10.1406421661377 18.34568977355957 9.600781440734863 C 18.88463973999023 9.060441970825195 19.54470825195312 8.786002159118652 20.30666923522949 8.786002159118652 C 21.06709861755371 8.786002159118652 21.72639846801758 9.060441970825195 22.26625823974609 9.601692199707031 C 22.80659866333008 10.14063167572021 23.08103942871094 10.79992198944092 23.08103942871094 11.56036186218262 C 23.08103942871094 12.32233142852783 22.80659866333008 12.98241233825684 22.26533889770508 13.52226161956787 C 21.72639846801758 14.06260204315186 21.06709861755371 14.3370418548584 20.30666923522949 14.3370418548584 Z"/><path class="f" d="M 20.30666923522949 9.286003112792969 C 19.67830848693848 9.286003112792969 19.14349937438965 9.508930206298828 18.69878959655762 9.954792022705078 C 18.2529296875 10.39950180053711 18.02999877929688 10.93431091308594 18.02999877929688 11.56036376953125 C 18.02999877929688 12.1887321472168 18.2529296875 12.72354125976562 18.69878959655762 13.16825103759766 C 19.14349937438965 13.61411094665527 19.67830848693848 13.8370418548584 20.30666923522949 13.8370418548584 C 20.93272972106934 13.8370418548584 21.46753883361816 13.61411094665527 21.9122486114502 13.16825103759766 C 22.35811996459961 12.72354125976562 22.58103942871094 12.1887321472168 22.58103942871094 11.56036376953125 C 22.58103942871094 10.93431091308594 22.35811996459961 10.39950180053711 21.9122486114502 9.954792022705078 C 21.46753883361816 9.508930206298828 20.93272972106934 9.286003112792969 20.30666923522949 9.286003112792969 M 18.42849922180176 18.98411178588867 L 18.42849922180176 35.13108062744141 L 22.18484878540039 35.13108062744141 L 22.18484878540039 18.98411178588867 L 18.42849922180176 18.98411178588867 M 20.30666923522949 8.286003112792969 C 21.19212913513184 8.286003112792969 21.99215888977051 8.618862152099609 22.62026977539062 9.248600006103516 C 23.24817848205566 9.874870300292969 23.58103942871094 10.67489242553711 23.58103942871094 11.56036376953125 C 23.58103942871094 12.46001243591309 23.25716972351074 13.23920249938965 22.61843872070312 13.87628173828125 C 21.99215888977051 14.50418281555176 21.19212913513184 14.8370418548584 20.30666923522949 14.8370418548584 C 19.40703964233398 14.8370418548584 18.62785911560059 14.51318168640137 17.99076843261719 13.87444114685059 C 17.35385894775391 13.23918151855469 17.02999877929688 12.46000099182129 17.02999877929688 11.56036376953125 C 17.02999877929688 10.67491149902344 17.36285972595215 9.874881744384766 17.99259948730469 9.246772766113281 C 18.62785911560059 8.60986328125 19.40703964233398 8.286003112792969 20.30666923522949 8.286003112792969 Z M 17.42849922180176 17.98411178588867 L 18.42849922180176 17.98411178588867 L 22.18484878540039 17.98411178588867 L 23.18484878540039 17.98411178588867 L 23.18484878540039 18.98411178588867 L 23.18484878540039 35.13108062744141 L 23.18484878540039 36.13108062744141 L 22.18484878540039 36.13108062744141 L 18.42849922180176 36.13108062744141 L 17.42849922180176 36.13108062744141 L 17.42849922180176 35.13108062744141 L 17.42849922180176 18.98411178588867 L 17.42849922180176 17.98411178588867 Z"/></g></g></g></g></svg>