<svg xmlns="http://www.w3.org/2000/svg" width="48" height="48" viewBox="0 0 48 48"><defs><style>.a{fill:none;}.b{fill:#73d7ff;}.c{fill:#fff;}.d{fill:#003575;}</style></defs><g transform="translate(-1072 -3087.5)"><rect class="a" width="48" height="48" transform="translate(1072 3087.5)"/><g transform="translate(1073.728 3088.102)"><g transform="translate(16.399 18.566)"><path class="b" d="M39.92,34.231H35.277l-1,5.408-6.936-5.408H14.233V16.244H39.92Z" transform="translate(-14.233 -16.244)"/></g><g transform="translate(3.1 4.236)"><g transform="translate(0)"><path class="c" d="M2.914,22.036H7.558l1,5.408,6.936-5.408.72-3.658L28.6,18.085V4.049H2.914Z" transform="translate(-2.914 -4.049)"/></g></g><g transform="translate(1.853 2.979)"><path class="d" d="M37.067,44.362a.893.893,0,0,1-.569-.207l-7.553-6.295a.438.438,0,0,0-.277-.1H15.943a.887.887,0,0,1-.886-.886V25.17a.431.431,0,0,0-.25-.392.421.421,0,0,0-.183-.041.432.432,0,0,0-.277.1l-5.756,4.8a.893.893,0,0,1-.568.206.858.858,0,0,1-.375-.085.885.885,0,0,1-.512-.8V23.67a.433.433,0,0,0-.434-.432H2.74a.889.889,0,0,1-.887-.887V3.866a.889.889,0,0,1,.887-.887H29.146a.888.888,0,0,1,.886.887v13.2a.434.434,0,0,0,.434.434H42.349a.889.889,0,0,1,.887.887V36.874a.888.888,0,0,1-.887.886H38.388a.434.434,0,0,0-.434.434v5.282a.89.89,0,0,1-.887.887Zm-19.8-25.086a.433.433,0,0,0-.434.434V35.553a.433.433,0,0,0,.434.434H29.146a.892.892,0,0,1,.569.206l5.755,4.8a.427.427,0,0,0,.277.1.438.438,0,0,0,.183-.041.434.434,0,0,0,.25-.392V36.874a.888.888,0,0,1,.886-.887h3.961a.433.433,0,0,0,.434-.434V19.71a.433.433,0,0,0-.434-.434ZM4.061,4.753a.433.433,0,0,0-.434.434V21.03a.433.433,0,0,0,.434.434H8.022a.889.889,0,0,1,.887.887v3.782a.431.431,0,0,0,.249.392.421.421,0,0,0,.183.041.427.427,0,0,0,.277-.1l5.282-4.4a.432.432,0,0,0,.156-.333V18.389a.888.888,0,0,1,.886-.887H27.826a.433.433,0,0,0,.434-.434V5.187a.433.433,0,0,0-.434-.434Z" transform="translate(-1.853 -2.979)"/><g transform="translate(26.407 23.765)"><rect class="d" width="1.774" height="1.774"/></g><g transform="translate(31.688 23.765)"><rect class="d" width="1.774" height="1.774"/></g><g transform="translate(21.126 23.765)"><rect class="d" width="1.774" height="1.774"/></g><g transform="translate(13.204 9.242)"><rect class="d" width="1.774" height="1.774"/></g><g transform="translate(18.485 9.242)"><rect class="d" width="1.774" height="1.774"/></g><g transform="translate(7.923 9.242)"><rect class="d" width="1.774" height="1.774"/></g></g></g></g></svg>