<svg xmlns="http://www.w3.org/2000/svg" width="48" height="48" viewBox="0 0 48 48"><defs><style>.a{fill:none;}.b{fill:#fff;stroke:#707070;}.c{fill:#73d7ff;}.d{fill:#003575;}</style></defs><g transform="translate(-1.8 -1.521)"><rect class="a" width="48" height="48" transform="translate(1.8 1.521)"/><path class="b" d="M2.967,40.3V18.9l1.011-.888h8.736L14.567,7.646h1.889L48.24,13.381l.635,2.32L44.938,36.039l-1.988,1.443-4.836-1.443v5.978l-2.919.837H3.978Z"/><g transform="translate(1.8 6.269)"><rect class="c" width="1.81" height="9.308" transform="translate(36.263 16.689) rotate(-79.759)"/><rect class="c" width="1.81" height="10.342" transform="translate(35.795 12.825) rotate(-79.759)"/><rect class="c" width="1.81" height="22.106" transform="translate(10.992 8.409) rotate(-79.759)"/><path class="d" d="M36.445,41.159H4.515A2.82,2.82,0,0,1,1.8,38.445V17.115A2.82,2.82,0,0,1,4.515,14.4h32.06a2.82,2.82,0,0,1,2.715,2.715v21.33A3.042,3.042,0,0,1,36.445,41.159ZM4.515,16.21a.971.971,0,0,0-.9.9v21.33a.884.884,0,0,0,.9.9h32.06a.884.884,0,0,0,.9-.9V17.115a.884.884,0,0,0-.9-.9Z" transform="translate(-1.8 -3.889)"/><path class="d" d="M40.972,38.239h-.517l-4.654-.9.388-1.81,4.783.9c.517,0,.9-.129,1.034-.776h0l3.749-20.942c0-.517-.129-.9-.776-1.034h0L13.7,8.119a.773.773,0,0,0-1.034.776h0L11.11,18.2,9.3,17.814l1.551-9.308a2.547,2.547,0,0,1,2.973-2.2h0L45.367,12a2.547,2.547,0,0,1,2.2,2.973h0L43.686,35.912A2.578,2.578,0,0,1,40.972,38.239Z" transform="translate(0.395 -6.269)"/><path class="c" d="M12.105,25.739H8.615A2.649,2.649,0,0,1,5.9,23.025v-1.81A2.82,2.82,0,0,1,8.615,18.5h3.62a2.82,2.82,0,0,1,2.715,2.715v1.81A2.836,2.836,0,0,1,12.105,25.739Z" transform="translate(-0.6 -2.689)"/><rect class="c" width="8.92" height="1.81" transform="translate(23.14 17.75)"/><rect class="c" width="4.395" height="1.81" transform="translate(19.52 28.35)"/><rect class="c" width="4.395" height="1.81" transform="translate(26.63 28.35)"/><rect class="c" width="4.395" height="1.81" transform="translate(12.41 28.35)"/><rect class="c" width="4.395" height="1.81" transform="translate(5.3 28.35)"/></g></g></svg>