<svg xmlns="http://www.w3.org/2000/svg" width="48" height="48" viewBox="0 0 48 48"><defs><style>.a{fill:none;}.b,.d,.e,.g{fill:#003575;}.b{fill-rule:evenodd;}.c{fill:#73d7ff;}.f,.g{stroke:none;}</style></defs><g transform="translate(-1072 -3087)"><rect class="a" width="48" height="48" transform="translate(1072 3087)"/><g transform="translate(-2.711 -2.884)"><g transform="translate(1080.673 3095.65)"><path class="b" d="M15.417,39.1A17.485,17.485,0,0,1,6.43,29.613,17.857,17.857,0,0,1,16.336,6.322,18.073,18.073,0,0,1,39.8,16.173a17.874,17.874,0,0,1-9.265,23.011,1.206,1.206,0,0,1-1-2.193A15.484,15.484,0,0,0,37.553,17.05,15.649,15.649,0,0,0,17.259,8.516a15.508,15.508,0,0,0-.521,28.555Z" transform="translate(-5.11 -5.01)"/><g transform="translate(1.565 1.287)"><g transform="translate(0)"><ellipse class="c" cx="16.463" cy="16.502" rx="16.463" ry="16.502"/></g></g><path class="d" d="M22.576,12.874A7.67,7.67,0,0,1,29.7,7.413a7.108,7.108,0,0,1,4.855,1.961,1.106,1.106,0,1,1-1.5,1.631A4.98,4.98,0,0,0,29.7,9.627a5.338,5.338,0,0,0-4.752,3.246,6.741,6.741,0,0,0-.018,5.643,5.347,5.347,0,0,0,4.77,3.288,4.98,4.98,0,0,0,3.36-1.38,1.107,1.107,0,1,1,1.5,1.633A7.117,7.117,0,0,1,29.7,24.019a7.676,7.676,0,0,1-7.139-5.5A10.687,10.687,0,0,1,22.576,12.874Z" transform="translate(-10.597 2.22)"/><rect class="d" width="12.197" height="2.139" rx="0.615" transform="translate(9.702 18.913)"/><rect class="d" width="12.197" height="2.139" rx="0.615" transform="translate(9.702 15.476)"/></g><g class="e" transform="matrix(-0.454, 0.891, -0.891, -0.454, 1102.195, 3127.864)"><path class="f" d="M 9.291991233825684 9.484784126281738 L 1.691271543502808 9.484784126281738 C 1.433841466903687 9.484784126281738 1.304531455039978 9.313084602355957 1.260881543159485 9.239264488220215 C 1.217231512069702 9.165444374084473 1.129101514816284 8.96938419342041 1.253161549568176 8.743824005126953 L 5.053521633148193 1.834084391593933 C 5.182111740112305 1.600284457206726 5.402741432189941 1.575044393539429 5.491631507873535 1.575044393539429 C 5.580521583557129 1.575044393539429 5.801151275634766 1.600284457206726 5.929741382598877 1.834084391593933 L 9.730101585388184 8.743824005126953 C 9.854161262512207 8.96938419342041 9.76604175567627 9.165434837341309 9.722391128540039 9.239264488220215 C 9.678741455078125 9.313084602355957 9.549421310424805 9.484784126281738 9.291991233825684 9.484784126281738 Z"/><path class="g" d="M 5.491633892059326 2.075040817260742 C 5.49163293838501 2.075041770935059 5.491631984710693 2.075042724609375 5.491631507873535 2.075044631958008 L 1.691264152526855 8.984779357910156 C 1.691265106201172 8.984781265258789 1.691266059875488 8.984783172607422 1.691267013549805 8.984784126281738 C 1.691268920898438 8.984784126281738 1.691269874572754 8.984784126281738 1.691271781921387 8.984784126281738 L 9.291991233825684 8.984784126281738 L 5.491641521453857 2.075054168701172 C 5.491639137268066 2.07504940032959 5.491636276245117 2.075044631958008 5.491633892059326 2.075040817260742 M 5.491631507873535 1.075039863586426 C 5.83475923538208 1.075039863586426 6.177886486053467 1.247734069824219 6.367851734161377 1.593124389648438 L 10.16821193695068 8.502864837646484 C 10.53475189208984 9.169314384460449 10.05259132385254 9.984784126281738 9.291991233825684 9.984784126281738 L 1.691271781921387 9.984784126281738 C 0.9306716918945312 9.984784126281738 0.4485015869140625 9.169314384460449 0.8150510787963867 8.502864837646484 L 4.615411281585693 1.593124389648438 C 4.805376529693604 1.247734069824219 5.14850378036499 1.075039863586426 5.491631507873535 1.075039863586426 Z"/></g></g></g></svg>