<svg xmlns="http://www.w3.org/2000/svg" width="48" height="48" viewBox="0 0 48 48"><defs><style>.a{fill:none;}.b{fill:#fff;}.c{fill:#003575;}.d{fill:#73d7ff;}</style></defs><g transform="translate(-1072 -3087.5)"><g transform="translate(1070.2 3085.979)"><rect class="a" width="48" height="48" transform="translate(1.8 1.521)"/></g><g transform="translate(932.4 2917.461)"><g transform="translate(147.628 175.189)"><path class="b" d="M147.761,175.321v36.274l5.206-3.821,3.544,4.264L160.332,208l3.716,4.264L167.371,208l3.815,4.264,4.375-4.818,4.153,4.32v-36.44Z" transform="translate(-147.761 -175.321)"/></g><g transform="translate(146.6 174.165)"><path class="c" d="M147.436,213.152a.84.84,0,0,1-.836-.836V175a.836.836,0,0,1,.836-.836h32.34a.836.836,0,0,1,.835.836v37.315a.833.833,0,0,1-.516.772.847.847,0,0,1-.319.064.828.828,0,0,1-.591-.245l-3.965-3.961a.408.408,0,0,0-.289-.12H174.9a.412.412,0,0,0-.3.163l-2.864,3.827a.835.835,0,0,1-1.337,0l-2.738-3.649a.408.408,0,0,0-.653,0l-2.735,3.648a.836.836,0,0,1-1.338,0l-2.739-3.65a.413.413,0,0,0-.327-.163.408.408,0,0,0-.326.164l-2.738,3.649a.836.836,0,0,1-1.338,0l-2.864-3.827a.411.411,0,0,0-.3-.163h-.029a.408.408,0,0,0-.289.12l-3.964,3.961A.831.831,0,0,1,147.436,213.152Zm12.436-6.647a.845.845,0,0,1,.669.334l2.74,3.65a.409.409,0,0,0,.326.163h0a.409.409,0,0,0,.327-.164l2.735-3.649a.836.836,0,0,1,1.336,0l2.738,3.649a.409.409,0,0,0,.327.163h0a.408.408,0,0,0,.327-.164l2.729-3.647a.84.84,0,0,1,.61-.332l.068,0a.836.836,0,0,1,.583.246l2.856,2.854a.408.408,0,0,0,.289.119.4.4,0,0,0,.156-.031.408.408,0,0,0,.253-.377V176.245a.409.409,0,0,0-.408-.408H148.68a.408.408,0,0,0-.409.408v33.071a.407.407,0,0,0,.252.377.4.4,0,0,0,.157.031.411.411,0,0,0,.289-.119l2.857-2.855a.822.822,0,0,1,.578-.245l.066,0a.839.839,0,0,1,.617.332l2.729,3.646a.41.41,0,0,0,.327.164h0a.407.407,0,0,0,.326-.163l2.735-3.647A.84.84,0,0,1,159.872,206.505Z" transform="translate(-146.6 -174.165)"/><g transform="translate(4.975 13.682)"><path class="d" d="M153.051,191.277a.836.836,0,1,1,0-1.671h2.487a.836.836,0,1,1,0,1.671Z" transform="translate(-152.215 -189.606)"/></g><g transform="translate(12.438 13.682)"><path class="d" d="M161.473,191.277a.836.836,0,1,1,0-1.671H176.2a.836.836,0,0,1,0,1.671Z" transform="translate(-160.637 -189.606)"/></g><g transform="translate(4.975 18.657)"><path class="d" d="M153.051,196.892a.836.836,0,1,1,0-1.671h2.487a.836.836,0,1,1,0,1.671Z" transform="translate(-152.215 -195.221)"/></g><g transform="translate(12.438 18.657)"><path class="d" d="M161.473,196.892a.836.836,0,1,1,0-1.671H176.2a.836.836,0,0,1,0,1.671Z" transform="translate(-160.637 -195.221)"/></g><g transform="translate(4.975 23.633)"><path class="d" d="M153.051,202.507a.836.836,0,1,1,0-1.671h2.487a.836.836,0,1,1,0,1.671Z" transform="translate(-152.215 -200.836)"/></g><g transform="translate(12.438 23.633)"><path class="d" d="M161.473,202.507a.836.836,0,1,1,0-1.671H176.2a.836.836,0,0,1,0,1.671Z" transform="translate(-160.637 -200.836)"/></g><g transform="translate(4.975 7.463)"><path class="c" d="M153.051,184.259a.836.836,0,0,1,0-1.672h22.388a.836.836,0,0,1,0,1.672Z" transform="translate(-152.215 -182.587)"/></g></g></g></g></svg>