<svg xmlns="http://www.w3.org/2000/svg" width="64" height="64" viewBox="0 0 64 64"><defs><style>.a,.f{fill:#fff;}.a,.b,.c,.e{stroke:#1844a8;stroke-width:2px;}.b,.c,.e,.h{fill:none;}.b{stroke-linejoin:round;}.d{fill:#1844a8;}.e{stroke-linecap:round;}.g{stroke:none;}</style></defs><g transform="translate(-1248 -3087.5)"><g class="a" transform="translate(1248 3087.5)"><circle class="g" cx="32" cy="32" r="32"/><circle class="h" cx="32" cy="32" r="31"/></g><g transform="translate(1266 3102.006)"><path class="b" d="M0,8.623s-.128,9.225,0,15.644,6.97,10.627,13.921,10.627,13.567-4.549,13.882-10.9,0-15.37,0-15.37H0Z" transform="translate(0.056 0.47)"/><path class="c" d="M-5828.431,3215.876s.024-9.093,8.211-9.093,8.211,9.093,8.211,9.093" transform="translate(5834.135 -3206.783)"/></g><path class="d" d="M3.9,0A3.9,3.9,0,1,1,0,3.9,3.9,3.9,0,0,1,3.9,0Z" transform="translate(1275.899 3117.176)"/><path class="e" d="M0,0V4.513" transform="translate(1279.847 3123.367)"/><path class="f" d="M2.613,0A2.613,2.613,0,1,1,0,2.613,2.613,2.613,0,0,1,2.613,0Z" transform="translate(1277.151 3118.429)"/></g></svg>