<svg xmlns="http://www.w3.org/2000/svg" width="48" height="48" viewBox="0 0 48 48"><defs><style>.a{fill:none;}.b{fill:#73d7ff;}.c{fill:#fff;}.d{fill:#003575;}</style></defs><g transform="translate(-1072 -3087.5)"><rect class="a" width="48" height="48" transform="translate(1072 3087.5)"/><g transform="translate(1076.634 3092.551)"><g transform="translate(3.453 12.157)"><rect class="b" width="32.923" height="15.425"/></g><g transform="translate(8.794 21.14)"><rect class="c" width="22.133" height="14.888"/></g><g transform="translate(8.794 3.225)"><rect class="c" width="22.133" height="7.925"/></g><g transform="translate(2.366 2.232)"><path class="d" d="M9.8,37.169A1.865,1.865,0,0,1,7.939,35.3V28.618a.366.366,0,0,0-.366-.366H4.229a1.865,1.865,0,0,1-1.863-1.864V13.013a1.865,1.865,0,0,1,1.863-1.864H7.574a.366.366,0,0,0,.366-.366V4.1A1.866,1.866,0,0,1,9.8,2.232H29.865A1.867,1.867,0,0,1,31.729,4.1v6.687a.365.365,0,0,0,.366.366h3.344A1.865,1.865,0,0,1,37.3,13.013V26.388a1.865,1.865,0,0,1-1.863,1.864H32.1a.365.365,0,0,0-.366.366V35.3a1.866,1.866,0,0,1-1.864,1.864Zm0-15.605a.366.366,0,0,0-.366.366V35.3a.366.366,0,0,0,.366.367h20.06a.366.366,0,0,0,.366-.367l0-13.375a.368.368,0,0,0-.367-.367Zm20.063-1.5a1.866,1.866,0,0,1,1.864,1.863v4.459a.366.366,0,0,0,.366.367h3.344a.366.366,0,0,0,.366-.367V13.013a.366.366,0,0,0-.366-.367H4.229a.367.367,0,0,0-.366.367V26.388a.367.367,0,0,0,.366.367H7.574a.367.367,0,0,0,.366-.367V21.929A1.865,1.865,0,0,1,9.8,20.066ZM9.8,3.729a.366.366,0,0,0-.366.367v6.687a.365.365,0,0,0,.366.366h20.06a.365.365,0,0,0,.366-.366l0-6.687a.368.368,0,0,0-.367-.367Z" transform="translate(-2.366 -2.232)"/><g transform="translate(11.146 27.866)"><path class="d" d="M14.452,32.073a.749.749,0,1,1,0-1.5H25.6a.749.749,0,1,1,0,1.5Z" transform="translate(-13.703 -30.576)"/></g><g transform="translate(11.146 23.408)"><path class="d" d="M14.452,27.538a.749.749,0,1,1,0-1.5H25.6a.749.749,0,1,1,0,1.5Z" transform="translate(-13.703 -26.041)"/></g><g transform="translate(28.98 13.376)"><rect class="d" width="1.498" height="1.498"/></g><g transform="translate(24.522 13.376)"><rect class="d" width="1.498" height="1.498"/></g><g transform="translate(20.063 13.376)"><rect class="d" width="1.498" height="1.498"/></g></g></g></g></svg>