<svg xmlns="http://www.w3.org/2000/svg" width="28" height="28" viewBox="0 0 28 28"><defs><style>.a{fill:none;}</style></defs><path class="a" d="M0,0H28V28H0Z"/><path d="M21.732,16.633a12.6,12.6,0,0,1-3.887-.617,1.076,1.076,0,0,0-1.112.264L15,18.45a16.72,16.72,0,0,1-7.587-7.521L9.563,9.1a1.124,1.124,0,0,0,.264-1.123A12.281,12.281,0,0,1,9.211,4.09,1.1,1.1,0,0,0,8.121,3H4.31C3.716,3,3,3.264,3,4.09A18.888,18.888,0,0,0,21.732,22.822a1.156,1.156,0,0,0,1.09-1.3v-3.8A1.1,1.1,0,0,0,21.732,16.633Z" transform="translate(1.089 1.089)"/></svg>