<svg xmlns="http://www.w3.org/2000/svg" width="28" height="28" viewBox="0 0 28 28"><defs><style>.a{fill:none;}</style></defs><path class="a" d="M0,0H28V28H0Z"/><path d="M13.274,2A11.274,11.274,0,1,0,24.548,13.274,11.278,11.278,0,0,0,13.274,2ZM14.4,21.166H12.147V18.911H14.4Zm2.334-8.737L15.72,13.466A3.838,3.838,0,0,0,14.4,16.656H12.147v-.564A4.538,4.538,0,0,1,13.466,12.9l1.4-1.421a2.2,2.2,0,0,0,.665-1.59,2.255,2.255,0,1,0-4.51,0H8.764a4.51,4.51,0,1,1,9.019,0A3.587,3.587,0,0,1,16.735,12.428Z" transform="translate(0.726 0.726)"/></svg>